<?xml version="1.0" encoding="utf-8"?>
<!-- Generator: Adobe Illustrator 20.1.0, SVG Export Plug-In . SVG Version: 6.00 Build 0)  -->
<svg version="1.1" id="Layer_1" xmlns="http://www.w3.org/2000/svg" xmlns:xlink="http://www.w3.org/1999/xlink" x="0px" y="0px"
	 viewBox="0 0 1836 2376" style="enable-background:new 0 0 1836 2376;" xml:space="preserve">
<style type="text/css">
	.st0{fill:#FFFFFF;}
</style>
<rect x="600" y="974" class="st0" width="625" height="463"/>
<g>
	<g>
		<path d="M1105,1113.1c6.2-1.2,11.8-2.2,17.4-3.3c3.8-0.8,7.6-1.9,11.4-2.7c3.2-0.7,5,1.1,4.1,4.2c-2,6.9-4.2,13.7-6.3,20.5
			c-3.8,12.5-7.5,24.9-11.2,37.4c-1.4,4.8,1.2,9,2.5,13.2c4.6,15.1,9.6,30.1,14.4,45.1c1.2,3.9,0.3,5.5-3.5,6.3
			c-18.4,3.7-36.7,7.4-55.1,11.1c-3.3,0.7-5.4,2.1-6.8,5.8c-5.4,14.1-12.8,27.2-22.3,39c-6.1,7.6-12.7,14.8-19.7,21.6
			c-5.1,5-11.2,9.1-16.8,13.5c-3.7,2.9-7.5,5.6-11,8.6c-2.3,2-4.6,3.6-7.8,3.5c-0.9,0-1.9,1.1-2.9,1.8c-1.1,0.7-2.1,1.7-3.2,2.1
			c-4.6,1.5-9.5,2.4-14,4.2c-12.5,5.1-25.6,7.8-38.9,8.8c-9.2,0.7-18.5,0.9-27.8,1c-3.9,0-7.9-0.6-11.8-1.1
			c-6.3-0.8-12.7-1.7-19-2.8c-5.1-0.9-10.3-1.9-15.2-3.4c-2-0.6-3.2-3.3-5.2-4.4c-3.7-2-7.8-3.3-11.6-5.3
			c-12.5-6.6-24.6-13.8-34.8-23.6c-7-6.7-13.7-13.8-20.6-20.7c-0.5-0.5-1-1.2-1.6-1.5c-0.5-0.3-1.3-0.1-2.6-0.1c0,2.6-0.3,5,0.1,7.4
			c0.6,4-1.4,5.8-4.9,6.5c-7,1.4-14.1,2.7-21.1,4.1c-12,2.4-23.9,4.9-35.9,7.4c-4.5,1-6.4-0.7-5.2-5.2c5.2-20.1,10.4-40.2,15.6-60.3
			c0.7-2.9,0.8-5.5-0.3-8.5c-5-14.2-9.7-28.6-14.4-43c-0.5-1.4-0.7-2.8-0.8-4.3c-0.3-3.2,1-4.7,4.4-5.3c8.8-1.5,17.5-3.4,26.5-5.3
			c0-7.2,0.1-14.2,0-21.2c0-2.6,0.3-4.4,3.6-4.7c1.2-0.1,3-2.2,3.3-3.6c5.2-24.3,15.2-46.4,30.4-66.1c10.9-14,23.4-26.2,38.1-36.4
			c19.8-13.7,41.3-23,65-26.7c10.4-1.6,20.9-2.8,31.4-2.9c9.5,0,18.9,2.4,28.4,2.7c8,0.3,15.2,3.4,22.8,5.2c3.6,0.9,7,2.7,10.3,4.6
			c12,6.7,24.7,12.1,35.2,21.1c7.3,6.3,14.7,12.6,21.3,19.6c6,6.3,10.9,13.5,16.6,20.1c0.9,1.1,3.3,1.6,4.9,1.3
			c13.3-2.5,26.5-5.2,39.8-7.9c3.8-0.8,4.9,0.1,5,4C1105.1,1100.8,1105,1106.6,1105,1113.1z M837.9,1312.9c2.3,0.4,4.6,0.7,6.8,1.1
			c3.2,0.5,4.6-1,4.7-4.1c1-1.7,2-3.4,3-5c0.7-0.3,2.1-0.9,2.1-0.8c1.6,2.8,3.3,5.6,4.4,8.6c0.4,1.3-0.3,3.2-1,4.5
			c-0.6,1.2-1.9,2.2-2.9,3.3c4,2.3,6.7,5.4,8,9.7c0.7,2.5,2.1,4.8,3.1,7.3c1.3,3.3,3.7,4.4,7.4,4c0.5-1.9,1.2-3.8,1.3-5.7
			c0.3-3.5,0.2-7,0.4-10.5c0.2-2.9,0.8-5.6,4.5-5.8c0.2,0,0.4-0.5,0.5-0.8c-0.9-0.8-1.7-1.5-3-2.6c3.5-2.6,6.6-4.8,9.9-7.2
			c1.1,5.9,1.1,5.9-6.1,10.3c-0.5,7.7-1,16.2-1.6,25.5c10.3,1.4,19.7,2.7,28.7,3.9c1.2-2.5,1.8-3.8,2.6-5.3
			c-10.2,1.4-15.4-1.6-15.2-9.2c6.4,0.8,12.7,1.6,19.9,2.6c4.4-2.4,9.7-5.2,15.3-8.3c-0.5,5.1-4.3,7.8-8,9.2
			c-5.4,2.2-6.3,6.3-7.5,10.9c10.9,1.4,39.3-2.7,46.3-6.6c-1.1-1.6-2.3-3.1-3.2-4.8c-1.9-4.1-4.4-7.1-9.4-7.4
			c-1.7-0.1-4.3-0.1-3.9-3.7c3.8,0.2,7.5,0.4,11.2,0.5c4.6-2.7,9.4-5.6,14.3-8.5c2.2,3,0.9,6-0.5,7.7c-2.2,2.7-5.5,4.5-8.8,6.9
			c0.7,0.6,2,1.6,3.2,2.8c5,5.2,4.9,5.2,11.6,1.7c-0.3-1.7-0.6-3.4-0.8-5.2c-0.8-6.4-1.9-12.8-2.1-19.2c-0.1-1.6,2.5-3.4,4.1-4.9
			c0.3-0.3,2.1,0,2.1,0.2c0.4,1.8,1,3.7,0.7,5.5c-1.2,7.4-0.3,14.3,3.9,20.7c2.3-1.1,4.2-2,6.2-2.9c3.7-1.8,5.8-4.3,6.1-8.8
			c0.4-5.1,1.7-10.1,2.8-15.1c0.9-4,4.2-6.8,7.7-6.8c-2.1,7.3-6,14.3-3.3,22.8c1.9-1.2,3.4-2,4.7-2.9c10.4-7.5,20.1-15.8,28.6-25.4
			c11.2-12.5,20.1-26.4,26.9-41.7c3.6-8,7.5-16.1,3.3-25.7c-6.7,0.8-13.8,1.4-20.7,2.6c-17.5,3.1-35,6.4-52.5,9.7
			c-2,0.4-4,1.1-5.9,1.7l0.2-0.2c-13.2,2.5-26.4,5-39.6,7.5c-16.6,3.2-33.2,6.4-49.8,9.6c-4,0.8-8.1,1.4-12.1,2.3
			c-5.3,1.2-10.5,2.6-15.7,3.9c1.3,4.1,2.4,7.7,3.5,11.5c0.6-2.1,1.2-3.8,1.7-5.5c0.4,0,0.8,0,1.2,0c2.2,4.4,4.8,8.6,6.3,13.2
			c0.7,1.9-0.6,4.6-1.4,6.9c-0.4,1.3-1.5,2.5-2.2,3.8l0.2-0.2c-1.9,0.3-4.4,2.6-5.6-0.3c-0.5-1.2,0.9-3.4,1.7-5
			c0.8-1.6,2-3.1,3.4-5.3c-2.7,1.4-4.3,2.3-6.9,3.6c0-3.5,0-6.1,0-8.6c-4.1,1-0.6,5.2-2.8,7.7c-1.2-0.1-2.6-0.2-4.1-0.3
			c-1-0.5-2-1-3-1.5c-4.8-6.3-5.2-8.3-1.1-12.4c1.2,2.1,2.4,4.1,3.6,6.2c0.1-0.3,0.3-0.7,0.4-1c0-3.9,0-7.7,0-12
			c-26,5-51.5,9.9-78.1,14.9c19.2,25.9,42,45.5,71.8,56.8c1.3-7.3-4.2-11.2-6.5-16.7c-1.1,0.9-2,1.8-3.1,2.5
			c-2.4,1.5-5.6,1.6-6.8-0.5c-1.8-3.1-5.2-4.1-7.2-6.6c-0.5-0.6-0.6-1.4-1-2.4c1.3-0.3,2.3-0.5,3.2-0.7L837.9,1312.9z
			 M1098.8,1097.2c-114.4,22.7-228.6,45.4-342.5,68.1c0,37.9,0,75.2,0,112.8c6.7-1.2,13.1-2.2,19.5-3.5c16.3-3.2,32.7-6.3,48.9-9.7
			c12-2.5,23.9-5.4,35.8-8.1c0.8-0.2,1.6-0.9,2.3-0.7c5.9,1.5,11.2-1.2,16.8-2.1c14.7-2.2,29.2-5.3,43.8-8
			c8.2-1.5,16.4-2.7,24.6-4.4c13.2-2.7,26.4-5.9,39.6-8.5c11.5-2.3,23.2-4,34.7-6.2c16.7-3.2,33.3-6.5,49.9-9.8
			c8.9-1.8,17.8-3.6,26.6-5.3C1098.8,1173.2,1098.8,1135.3,1098.8,1097.2z M1048.6,1098.8c-35.4-51.9-99.2-79.2-165.7-64.5
			c-65.2,14.4-109.9,66.8-120.4,122c2.3-0.7,5.2-0.8,6.3-2.2c5.3-6.9,10.2-14,15-21.2c6.7-10.1,14.7-18.8,24.5-25.9
			c5.5-4,10.8-8.2,17.2-13.1c-4.1,0.4-7.4,1.6-9.9,0.7c-5.6-1.9-9.5,0.5-13.1,3.7c-4.8,4.3-9.2,9.1-13.9,13.7
			c-0.8,0.8-1.8,1.4-2.8,2.1c-0.3-0.3-0.5-0.6-0.8-0.9c4.7-6.6,9.4-13.2,14.1-19.8c2-2.8,4.8-3.7,8.2-3.4c4,0.3,8-0.1,12-0.1
			c9.7,0.1,19.6-0.9,29.1,0.5c10.9,1.6,21.4,5.4,31.2,10.4c4.8,2.4,9.2,2.6,13.8-0.6c8.7-6,18.8-7.1,29-7.2
			c10.9-0.1,21.8-1,32.5,1.9c5.3,1.5,10.9,2.3,15.9,4.5c5.9,2.6,11.3,6.4,17,9.7c1.7,1,3,1.5,5.3,1c8.7-2.1,17.6-3.5,26.3-5.2
			C1029.2,1103,1038.8,1100.9,1048.6,1098.8z M1130.7,1227.9c-0.6-2.2-1-3.8-1.5-5.3c-5-15.7-10.1-31.3-15-47.1
			c-0.6-2.1-0.7-4.6-0.1-6.7c4-14.1,8.4-28.1,12.6-42.1c1.2-3.9,2.2-7.7,3.5-12.2c-6.7,1.4-12.5,2.8-18.4,3.6
			c-3.8,0.6-4.8,2.2-4.7,5.9c0.2,26.3,0.1,52.7,0.1,79c0,15.7,0,15.7-12.3,26.3c-2.2,1.9-4.3,4.1-6.4,6.2c0.2,0.3,0.5,0.7,0.7,1
			C1102.9,1233.7,1116.6,1230.9,1130.7,1227.9z M770.3,1301.2c-6.1-3.1-11.7-6.4-17.6-8.9c-4.5-1.9-5.6-4.7-5.6-9.2
			c0.1-28,0.1-56,0.1-83.9c0-2,0-3.9,0-6.6c-7.5,1.6-14.4,3.1-21.3,4.6c0.2,0.9,0.2,1.4,0.3,1.9c5.1,14.8,10.2,29.7,15.2,44.5
			c0.6,1.9,1,4.2,0.5,6.1c-2.1,8.7-4.5,17.2-6.8,25.8c-3,11.4-6,22.8-9.1,34.7C741,1307.1,755.3,1304.2,770.3,1301.2z M815.2,1145.7
			c7.8-21.5,24.2-34.6,41.6-47.1c-6.6-2.5-9.5-3.2-12-1.5c-7.2,5-15.6,8.3-21.5,15.1c-6.3,7.2-13.1,14-19.1,21.3
			c-3.7,4.4-6.4,9.6-9.5,14.5c0.3,0.4,0.6,0.8,0.9,1.2C802.1,1148.1,808.7,1146.9,815.2,1145.7z M845,1137.8
			c5.4-0.3,10-0.5,14.6-0.9c1.2-0.1,2.6-0.9,3.3-1.8c6.5-8.7,12.8-17.5,19.3-26.3c0.3,0.4,0.2,0.2,0.1,0.1c-0.9-0.3-2-0.4-2.6-1
			c-5.3-4.6-9.4-2.6-14.3,1.2C855.6,1116.6,850,1126.7,845,1137.8z M948,1100.6c-1.4-0.6-2.3-1.1-3.2-1.2c-4-0.3-8.5-2.1-11.8,1.1
			c-5.2,5.1-9.9,10.7-14.7,16.3c-2.3,2.7-2.4,5.6,0.5,8c2.1-0.3,4.2-0.5,6.3-0.9c2.7-0.5,4.6-1.9,6.1-4.4c2-3.4,4.5-6.4,7.1-9.4
			C941.3,1106.9,944.7,1103.9,948,1100.6z M953.5,1116.8c0.4,0.4,0.7,0.7,1.1,1.1c7.4-1.6,15.7-1.3,20-9.8
			c-3.6-1.4-7.3-2.8-11.4-4.4C959.8,1108.3,956.7,1112.6,953.5,1116.8z M778.7,1295.5c0-4.7,0-8.6,0-13.1
			c-6.1,1.2-11.8,2.3-17.4,3.4c0,0.3,0,0.7,0,1C766.8,1289.6,772.4,1292.4,778.7,1295.5z M896.2,1117.4c-4.4,4-6.9,8-7.2,13.9
			c6.1-1.7,11.4-3.1,17.4-4.7C902.5,1123.1,899.4,1120.3,896.2,1117.4z M1077.1,1234.4c3.4-3.7,6-6.7,8.9-9.9
			c-2.9,0.5-5.9,1-8.9,1.4C1077.1,1228.8,1077.1,1231.1,1077.1,1234.4z M899.5,1107.7c3.3-2.5,6.2-4.8,9.2-7.1
			c-0.2-0.2-0.3-0.4-0.5-0.6c-4.3,1.7-8.7,3.3-13.6,5.2C896.9,1106.4,898.5,1107.2,899.5,1107.7z"/>
		<path d="M841,1306.1c1.2,0.4,2.5,0.7,3.9,1.1c0.4-1.2,0.8-2.4,1.3-3.7c-4.3-0.1-4.9-0.7-4.1-4.4c0.3-1.3,0.7-2.5,0.9-3.8
			c0.2-1.3,0.2-2.6,0.7-4.1c3.9,3.9,8.4,7.4,8.7,13.7c-1,1.7-2,3.4-3,5c-1.4,0.1-3.6-0.3-4.1,0.5c-1.9,3-4.7,2.4-7.4,2.5l0.2,0.2
			c-1.6-1.5-3.3-3-4.8-4.6c-0.1-0.1,0.1-0.6,0-0.3c2.8-0.8,5.4-1.6,7.9-2.4L841,1306.1z"/>
		<path d="M866,1286.5c1.5,0.9,3.3,1.6,4.5,2.8c1,1,1.9,3,1.6,4.2c-0.3,1-2.3,2.2-3.6,2.2c-4.3,0.2-8.4-4.4-8.5-8.7
			c0-2.4,1.5-2.1,3-2.1C864,1285.5,865,1286,866,1286.5z"/>
		<path d="M925.6,1184.1c5.6-0.1,6.2,0.9,4.6,6.4c-3.5,12.4-6.7,24.8-10.1,37.2c-2.1,7.9-5.2,10.2-13.4,11.4
			c-8.2,1.2-16.4,2.9-24.5,4.3c-8.3,1.5-16.6,3.2-25,4.5c-4.4,0.7-6.3-2.4-4.9-7.5c1.3-4.9,2.5-9.8,3.8-14.6
			c2.1-7.5,4.7-14.9,6.1-22.6c1.2-6.8,5.8-9.1,11.4-10.2c16.1-3.2,32.3-6,48.5-9C923.2,1183.9,924.4,1184.1,925.6,1184.1z
			 M883.6,1198.9c-3.4,12.9-6.6,25.2-10.1,38.5c8.5-1.6,15.8-3.2,23.1-4.3c2.4-0.4,2.9-1.8,3.4-3.4c1.7-6.1,3.3-12.2,4.9-18.3
			c1.4-5.6,2.8-11.1,4.3-17.1C900.2,1195.9,891.9,1197.4,883.6,1198.9z"/>
		<path d="M933.5,1234c1.3-5.6,2.3-10.4,3.6-15.2c3.2-12.1,6.7-24.1,9.7-36.2c0.6-2.5,1.9-3.2,3.8-3.6c12.3-2.3,24.6-4.9,37-6.7
			c6.2-0.9,12.7-0.7,19-0.2c4.7,0.4,5.8,3.1,4.5,7.5c-2.4,8.8-5.4,17.4-6.9,26.4c-1.6,9.5-7.4,14.3-15.6,16.8
			c-8.2,2.5-16.7,4.4-25.1,6C954,1230.8,944.3,1232.2,933.5,1234z M956.7,1221.3c0.4,0.4,0.8,0.8,1.2,1.1c6.6-1.6,13.2-3,19.8-4.8
			c2.4-0.7,4-2.3,4.6-5.1c1.6-7.1,3.8-14.1,5.7-21.1c0.9-3.2,1.6-6.5,2.7-11.1c-8.9,1.3-16.6,2.4-24,3.5
			C963.2,1196.7,960,1209,956.7,1221.3z"/>
		<path d="M825,1220.3c0.9-3.8,1.5-6.7,2.4-10.7c-8.5,1.5-16.2,2.9-23.9,4.3c-3.4,12.7-6.6,25-10.1,38.3c8.6-1.5,16.2-2.9,24-4.2
			c0.4-1.5,1-2.9,1.1-4.3c0.6-5.4,3.4-8.2,8.9-8.6c4.3-0.4,8.6-1.3,13.9-2.1c-1.6,5.4-2.5,10.5-4.7,15c-1.1,2.2-4.3,4.2-6.9,4.8
			c-11.9,2.7-23.9,4.8-35.9,7.1c-5.3,1-10.6,2-15.9,2.9c-4.7,0.9-7.2-2-5.9-7.2c1.3-5,2.6-10.1,4-15.1c2.1-7.5,4.7-14.9,6.1-22.6
			c1.2-6.9,5.9-8.9,11.5-10c14.1-2.8,28.2-5.4,42.3-8c3.1-0.6,6.2-0.8,9.3-1.1c2.4-0.2,4.1,0.8,3.6,3.4c-0.8,4.3-1.7,8.7-3.2,12.7
			c-0.4,1.1-3.2,1.5-5,1.9C835.7,1218.2,830.6,1219.2,825,1220.3z"/>
		<path d="M1013.8,1220.1c0.5-3.1,0.7-5.9,1.4-8.4c3.9-14.3,8-28.5,11.6-42.8c0.7-2.7,1.9-3.4,4.1-3.8c12.2-2.2,24.4-4.5,36.6-6.7
			c4.9-0.9,9.9-1.6,15.2-2.4c-0.7,2.8-1.3,5.1-1.9,7.9c-11.3,2.1-22.8,4.3-34.3,6.5c-1.1,4.5-2.2,8.9-3.5,14.1
			c9.8-1.8,19.2-3.5,28.6-5.2c-0.8,8.7-1.1,8.4-7.1,9c-7.3,0.8-14.4,2.5-21.6,3.9c-0.9,0.2-2.2,0.7-2.4,1.4
			c-1.3,4.6-2.5,9.3-3.8,14.6c11.9-2.2,22.8-4.2,33.9-6.2c-0.7,10.3-2,7.8-11.6,10c-8.1,1.9-16.4,3-24.5,4.5
			C1027.7,1217.6,1021.2,1218.8,1013.8,1220.1z"/>
		<path d="M944,1138.2c-3.1,10.3-6,20.2-9.1,30c-1.1,3.5-3,4.1-9,3.3c1.7-5.7,3.3-11.4,5.3-18c-5.1,5.5-9.5,10.3-14.1,15
			c-1.3,1.3-3,3.3-4.3,3.1c-1.3-0.1-2.6-2.4-3.4-4c-1.5-3-2.7-6.2-4.5-10.4c-2.3,7.5-4.3,13.8-6.4,20.5c-2.6,0.4-5.4,0.9-8.6,1.4
			c3.2-10.4,6.5-19.9,8.9-29.7c1.1-4.6,4.7-3.4,7.2-4.3c2.8-1,2.7,2,3.5,3.7c2,4.4,4.1,8.7,6.3,13.5c6-7,11.8-13.4,17.3-20.1
			C935.9,1138.9,939.9,1139.2,944,1138.2z"/>
		<path d="M993.5,1158.7c2.1-6.8,4-13.2,5.9-19.5c0.5-1.7,1.4-3.4,1.6-5.1c0.4-4.7,3.1-6.9,7.3-7.7c9.2-1.8,18.5-3.6,27.8-5.2
			c1.2-0.2,2.7,0.8,4.2,1.3c-2.8,9.2-5.4,18.1-8.3,26.8c-0.6,1.7-2.5,3.9-4.2,4.2c-10.4,2.1-20.8,3.7-31.2,5.5
			C995.9,1159.1,995.2,1158.9,993.5,1158.7z M1030.4,1125.8c-6.2,1.2-11.4,2.5-16.6,3.1c-2.3,0.3-3.2,1.4-3.7,3.1
			c-2.3,7.5-4.5,15.1-6.8,22.9c5.8-1.1,11.4-1.9,16.9-3.2c1.4-0.3,3.1-2.1,3.6-3.5C1026.1,1141.1,1028.1,1133.9,1030.4,1125.8z"/>
		<path d="M1079.8,1143.5c-6.2,2-9-1.7-11.8-5.3c-3-3.7-6-7.3-9.5-11.6c-2,6-3.9,11.2-5.4,16.6c-1.8,6.5-2.7,7.2-9.9,6.4
			c3-9.9,6.2-19.8,8.7-29.8c1.1-4.1,4.5-1.9,6.5-3.3c0.4-0.3,2.5,1.1,3.4,2.1c4.2,5,8.2,10.2,12.6,15.8c2-6.4,3.8-12,5.6-17.6
			c1.8-5.5,2.1-5.7,9.5-5.4C1086.2,1122.3,1083,1133,1079.8,1143.5z"/>
		<path d="M836.2,1172.4c4.4-0.9,8-2.2,11.6-2.3c3-0.1,4.2-1.6,5-3.9c0.8-2.2,1.3-4.5,2.1-7.3c-5.2,1.1-9.9,2.4-14.7,2.8
			c-3,0.3-3.7,1.6-4.4,4.1c-1.9,6.9-4,13.7-6.1,20.6c-1.9,6-3.7,7-10.6,6.1c3-9.8,5.9-19.6,8.8-29.4c0.6-2,1.6-3,4-3.3
			c8-1.3,15.9-3.3,24-4.7c2.4-0.4,4.9-0.1,8.6-0.1c-1.5,5-1.6,10.3-4.3,13.5c-2.6,3.1-7.7,3.9-11.9,5.8c2.6,3.3,5.6,7.2,8.7,11.3
			c-6.6,2.8-8.4,2.4-11.9-1.9C842.4,1180.2,839.6,1176.6,836.2,1172.4z"/>
		<path d="M979.1,1142.3c0.5-2.6,0.8-4.1,1.2-6.7c-5.8,1-10.9,1.5-15.9,2.9c-1.2,0.3-1.6,3.5-2.5,5.7c5.8,1.7,11.1,3.1,16.3,4.9
			c2.1,0.7,5.9,0.2,5.6,3.5c-0.3,3.3-0.4,7.7-4.1,9.3c-4,1.7-8.3,2.6-12.6,3.5c-6.4,1.3-12.8,2.2-19.2,3.2c-2.1-8,2.1-13.2,10-11.2
			c-0.6,2-1.2,3.9-2,6.6c5.7-1.1,11.1-1.8,16.3-3.4c1.5-0.5,2-3.8,3.2-6.3c-5.9-1.8-11.5-3.5-16.9-5.4c-1.9-0.7-5.3-2.8-5.1-3.3
			c1.1-3,0.2-7.3,4.2-8.7c2.7-1,5.6-1.8,8.4-2.4c6.1-1.3,12.1-2.5,18.2-3.5c1.8-0.3,3.6,0,6.2,0c-0.9,3.4-1.6,6.3-2.5,9.7
			C985.2,1141.2,982.4,1141.7,979.1,1142.3z"/>
		<path d="M815.9,1163.7c-1.2,9.1-1.7,9.5-10.7,11.2c0.3-2.1,0.5-4.1,0.9-6.7c-4.7,0.9-9,2.2-13.4,2.5c-3.2,0.2-4,1.5-4.8,4.3
			c-2,7.2-4.3,14.3-6.7,21.9c5.9-1.1,11.6-2.2,17.3-3.3c2.7-7.4,2.7-7.4,11-9.3c0,8.3-2.6,11.4-10.4,12.7
			c-6.2,1.1-12.4,2.6-18.7,3.7c-2.6,0.4-5.2,0.1-8.2,0.1c0-1.2-0.3-2.4,0-3.3c2.4-7.9,4.8-15.8,7.4-23.7c0.5-1.5,1.7-3.5,3-3.9
			C793.5,1166.5,804.5,1164.7,815.9,1163.7z"/>
		<path d="M876.5,1182.7c-2.7,0.5-5.3,0.9-9,1.5c3.5-11.5,6.7-22.1,10-33c2.6-0.4,5.4-0.9,9-1.4C883,1161.4,879.8,1172,876.5,1182.7
			z"/>
		<path d="M1016.3,1282.6c0.5,1.4,1,2.8,1.6,4.7c4.2,0,8.4,0,12.9,0c0.8,3.4-1.5,5.1-3.8,5.9c-2,0.7-4.5,0.2-7,0.8
			c1.6,0.7,3.1,1.3,4.7,2c-3,5.4-6.3,6-10.2,2.2c-2.2-2.2-4.7-4-6.7-6.2c-0.9-1-1.7-2.9-1.4-4c1.5-4.7,3.4-9.3,5.2-14
			c1.7,2.6,3,4.6,4.3,6.6C1016,1281.2,1016.1,1281.9,1016.3,1282.6z"/>
		<path d="M945.1,1286c1-2.7,2.1-5.4,3.1-8.2l-0.2,0.2c1-2.5,2-5,3-7.4c0.4-0.8,0.8-2.1,1.4-2.3c0.7-0.2,2.1,0.5,2.4,1.1
			c0.9,2,1.6,4.2,2,6.4c0.3,1.8,0.1,3.6,0.1,5.4c4.3,1.8,6.3,7.6,3.8,12.3c-1.1,2.1-2.9,4.2-4.9,5.4c-1.4,0.8-4.2,0.7-5.3-0.2
			c-1-0.8-1.1-3.6-0.6-5.2c0.7-2.1,2.5-3.8,3.8-5.8c0.9-1.4,1.8-2.9,2.4-4.6c-3.8,1.2-6.1,7.9-11.3,2.6L945.1,1286z"/>
		<path d="M910,1259c4.6,0.9,5.1,4.4,5.8,7.3c1.7,6.5,3.4,13.1,0.6,19.9c-1.3,3.1-2.6,3.2-5.2,1.5c-4.2-2.9-6.1-6.9-5.9-11.7
			C905.7,1270,906.4,1264.2,910,1259z"/>
		<path d="M977,1262c-2-6.5-0.2-10.7,5.5-11.9c0,1.7-0.2,3.3,0.1,4.8c0.3,1.4,1.1,2.6,2.1,3.9c-0.3-6.1,0.6-11.8,3.6-17.1
			c0,0-0.2,0.2-0.2,0.2c1.4,0.2,2.8,0.3,4.9,0.5c-1.2,5.3,2.8,10.6-1.1,15.6c-0.9,0.9-1.9,1.8-2.8,2.8c-1.7,0-3.1-0.2-3.2,2.4
			c0,1.5-1.1,3.1-1.7,4.6c-1.7-1-3.5-1.9-5.2-2.9c-0.4-0.2-0.7-0.6-1-1C977.6,1263.3,977.3,1262.6,977,1262z"/>
		<path d="M948.2,1277.9c-1.5,1.3-3,2.7-5.1,4.5c-1.2-1.5-2.4-2.9-3.5-4.4c-3.5-5.2-3.1-11-2.3-16.8c0.2-1.5,2-2.7,3-4.1
			c1.2,1,2.9,1.7,3.6,3c2.5,4.1,4.3,8.5,3.8,13.5c-0.1,1.5,0.1,2.9,0.2,4.4C948.1,1278,948.2,1277.9,948.2,1277.9z"/>
		<path d="M1030.3,1255.2c0.9-1.2,1.9-2.5,2.8-3.7c2-2.8,4.2-5.5,8.8-5.3c-0.7,6.3-3.3,11.3-7.4,15.9c1.9-1,3.9-2,6.2-3.2
			c1.2,3.3-0.3,5.9-2.2,7.5c-1.8,1.5-4.7,2.3-7.1,2.2c-3.2-0.2-3.1-2.2,0.3-6c-0.4-2.5-0.9-5.1-1.3-7.6L1030.3,1255.2z"/>
		<path d="M907.4,1310.8c-7.3-0.8-13.1-7.5-11.8-13.8c0.5-2.2,1.9-3.2,4-2c3.4,2,6.9,3.9,10,6.3c1.5,1.1,3.6,3.9,3.2,4.7
			C911.7,1307.9,909.3,1309.2,907.4,1310.8z"/>
		<path d="M900.4,1279.1c0.2,0.1,1.1,0.4,1.2,0.8c1.1,5.4,6.6,6.7,9.6,10.3c0.8,1,2,2.9,1.6,3.5c-1,1.3-2.6,2.8-4.1,2.9
			c-6.2,0.5-12.2-5.2-12.5-11.4C896.1,1281.8,897.8,1278.9,900.4,1279.1z"/>
		<path d="M883.5,1300.3c3.9-0.9,5-0.1,4.5,3.5c-0.4,2.8-4.7,8.1-7.5,7.8c-4.8-0.6-9.1,2.1-13.7,1.2l0.1,0.1
			c-4.1-1.7-7.4-4-7.4-10.1c5.3,2.3,10.2,4.3,15.5,6.6c2.6-2,5.7-4.3,8.7-6.7c0.4-0.3,0-1.7-0.1-2.5L883.5,1300.3z"/>
		<path d="M927.8,1284.9c0.1,4.7-6,11.7-10.2,12.4c-2.6,0.4-3.5-0.8-3-3.1c0.4-1.8,1.4-3.4,2-5.1c1.2-3.2,2.2-6.4,3.6-9.6
			c0.5-1.2,1.6-2.2,2.4-3.2c1,0.8,2.5,1.5,3,2.6C926.7,1280.9,927.3,1283.2,927.8,1284.9z"/>
		<path d="M905.6,1323c-3.9,0-10.4-5.8-11-10.8c-0.3-2.1,1.6-3.5,4-2.7c3.6,1.2,7.1,2.5,10.6,3.9c2.1,0.9,4.8,1.9,3.7,4.9
			C911.9,1320.9,910.1,1323.2,905.6,1323z"/>
		<path d="M928.4,1290.1c3.7,5.4,1.4,14.6-4.4,17.6c-2.1,1-4.3,1.7-6.5,2.4c-0.8,0.2-2.4,0-2.6-0.4c-0.4-0.9-0.4-2.4,0.1-3
			C919.5,1301.1,924,1295.6,928.4,1290.1z"/>
		<path d="M913.2,1332.7c0.1-4.5,1.6-6.6,5.2-8.3c4.8-2.2,9-5.5,13.8-8.6c2,2.8,0.2,6.1-1.7,8.4
			C926.3,1329.4,921,1333.2,913.2,1332.7z"/>
		<path d="M893.9,1320.5c4.8,2,9.7,3.9,14.3,6.2c1.3,0.6,1.9,2.4,2.9,3.7c-1.3,0.8-2.5,2.4-3.8,2.4c-3.3,0.1-6.7-0.1-9.7-1
			C893.7,1330.4,892.5,1325.9,893.9,1320.5z"/>
		<path d="M931.5,1303.4c1.2,7.9-5.5,17.7-12.7,18.5c-1.3,0.2-3.2-0.4-3.9-1.3c-0.5-0.6,0.2-2.8,1-3.7c1.5-1.8,3.4-3.2,5.1-4.7
			C924.3,1309.3,927.7,1306.5,931.5,1303.4z"/>
		<path d="M966.5,1299.1c-1.7,3.6-2.9,7.4-5.1,10.5c-2.3,3.2-4.8,2.9-7.6,0.4c-2.8-2.6-1.6-4.7,0.5-6.8c2.5-2.5,5.2-5,7.9-7.4
			c0.5-0.5,1.9-0.8,2.2-0.5C965.1,1296.3,965.6,1297.5,966.5,1299.1z"/>
		<path d="M1016.3,1282.6c-0.1-0.7-0.3-1.4-0.4-2.1c-4.8-9,0.9-15,6.4-22.2c0.7,5.2,1.4,9.5,1.6,13.8c0,0.9-2,1.9-3.6,3.2
			c-0.2,1.5-0.6,4.2-1.2,6.8C1018.9,1282.6,1017.2,1282.5,1016.3,1282.6z"/>
		<path d="M944.9,1285.8c0,1.5,0,2.9,0,4.3c-9.2,2.5-14-3.8-12.6-16.4c2.5-1.6,3.2,0,4.1,2c1.8,4.3,4.5,7.9,8.6,10.2L944.9,1285.8z"
			/>
		<path d="M957.6,1320.3c-0.3-3.6,5.1-11.2,11.1-15.9C972.4,1315.2,967.4,1322.3,957.6,1320.3z"/>
		<path d="M989.1,1260.8c0.9-0.9,1.9-1.8,2.8-2.8c2.6-1.8,5.2-3.5,7.9-5.3c2.5,2.4,2.9,5.9-0.1,9.2c-2,2.2-4.9,3.7-7.6,5.2
			c-1.1,0.6-2.7,0-4.1,0c0-1.3,0-2.7,0.2-4C988.2,1262.3,988.7,1261.6,989.1,1260.8z"/>
		<path d="M991.8,1290.1c1.9-0.8,3.9-1.4,5.7-2.3c2.1-1,3.2-0.6,3.3,1.8c0.1,3.1-3.3,7-6.9,8.3c-5.3,1.9-7.6,1.5-10.9-2.4
			c3.1-1.9,6.1-3.7,9.1-5.6L991.8,1290.1z"/>
		<path d="M999.1,1265.9c1.9,6.8-2.4,13.2-8.7,12.9c-1.4-0.1-3.8-1.4-4-2.4c-0.3-1.6,0.5-4.3,1.7-5.1
			C991.5,1269,995.4,1267.6,999.1,1265.9z"/>
		<path d="M938.2,1314.1c4.2,1,8.1,1.9,12,2.9c1.4,0.3,3,0.5,4,1.4c0.9,0.9,1.8,2.7,1.5,3.8c-0.2,0.8-2.4,1.7-3.6,1.6
			c-2.9-0.2-5.9-0.7-8.6-1.7C938.3,1320.1,937.9,1319,938.2,1314.1z"/>
		<path d="M948.9,1302.2c-9.9,3-15.8-2.5-16-13.5C940.2,1292.8,947.5,1298.8,948.9,1302.2z"/>
		<path d="M977,1262c0.3,0.6,0.6,1.3,1,1.9c0.6,1.7,1.1,3.6,1.9,5.2c0.6,1.1,1.6,2.1,2.5,3.1c1.9,1.9,2.6,4.2,0.3,6
			c-2.2,1.8-3.9-0.1-5.5-1.6c-1.4-1.2-2.8-2.4-4.2-3.6l0.1,0.1c-0.1-2.7-0.7-5.4-0.1-8C973.3,1263.9,975.6,1263,977,1262z"/>
		<path d="M976.9,1289c1.5,1.5,3,2.9,4.4,4.5c1.3,1.5,2,3.5-0.7,4.2c-4.9,1.3-7.8-2.2-10.7-5.1c-2.1-2.1-3.4-5-1.7-8.2
			c0.3-0.5,0.8-1,1-1.1c2.4,1.6,4.6,3,6.8,4.5C976.3,1288.3,976.6,1288.6,976.9,1289z"/>
		<path d="M976.9,1289c-0.3-0.4-0.7-0.7-1-1.1c-3.4-3.3-5.7-7.1-5.9-12c-0.1-2.2,0.4-3.7,3.1-2.8c0,0-0.1-0.1-0.1-0.1
			c0.7,1.4,1.1,2.9,2.1,4c2,2.2,4.5,4,6.3,6.3c1,1.2,1,3.1,1.4,4.8c-1.6,0.3-3.2,0.6-4.8,0.8C977.6,1289,977.3,1289,976.9,1289z"/>
		<path d="M992,1290c-1,0-2.2,0.3-2.9-0.2c-1.5-1-3.2-2.2-3.9-3.8c-0.4-0.8,1-3.1,2.1-3.7c3.8-1.8,7.8-3.1,12.5-4.8
			c-0.7,6.2-4.3,9.4-7.9,12.6L992,1290z"/>
		<path d="M936.1,1302.9c4.6,1.8,8.8,3.2,12.6,5.2c1.3,0.7,2.8,3.1,2.6,4.4c-0.5,2.7-3,2.3-5.3,1.9
			C940.1,1313.4,937,1309.7,936.1,1302.9z"/>
		<path d="M996.4,1298.5c-0.5,5.2-2.7,8.2-6.1,9.8c-2.7,1.3-8.1-1.4-10.1-4.7C984.8,1300,991,1301.7,996.4,1298.5z"/>
		<path d="M825.6,1280.2c4.8,1.6,7.8,4.4,9.7,8.4c0.5,1,0.4,2.8-0.2,3.5c-0.6,0.7-2.4,0.7-3.4,0.3
			C827.8,1290.8,825,1285.2,825.6,1280.2z"/>
		<path d="M1037.6,1270.4c-2.1,4-3.6,7.6-8.5,7.6c-2.2,0-4.4-0.6-4.1-3c0.2-1.7,2-4,3.5-4.4
			C1031.1,1269.8,1034,1270.4,1037.6,1270.4z"/>
		<path d="M860.6,1295.1c3.5,1.1,6.8,2.1,10.1,3.3c1.7,0.6,3.3,1.6,2.2,4.1c-1.1,2.5-3,2.9-5.3,2.2
			C864.3,1303.8,861.5,1300,860.6,1295.1z"/>
		<path d="M883.6,1300.1c-1.6,1.4-3,3-4.8,4c-0.8,0.5-2.8,0.3-3.3-0.3c-0.6-0.7-0.4-2.5,0.1-3.4c1.3-2,3-3.8,4.6-5.7l-0.2,0.2
			c1.7-1.2,3.5-2.3,5.5-3.7c1.2,3.3,0.2,6.3-2.1,9.1C883.5,1300.3,883.6,1300.1,883.6,1300.1z"/>
		<path d="M968.2,1302.3c0-2.8,0-5.3,0-8.4c3.7,2.6,6.9,4.9,10.1,7.4c0.6,0.5,0.9,2.4,0.6,2.6c-1.1,0.8-2.6,1.8-3.7,1.5
			C972.8,1304.7,970.7,1303.4,968.2,1302.3z"/>
		<path d="M1030.3,1255.2l0.2-0.2c-0.5,1.8-1.1,3.6-1.5,5.4c-0.5,2.1-1,4.2-1.6,7c-5.8-6.5-4.5-13.6,2.9-16.9
			C1030.3,1252.2,1030.3,1253.7,1030.3,1255.2z"/>
		<path d="M866.8,1312.7c1.6,0.8,3.2,1.7,5,2.3c1.7,0.6,3.6,0.8,5.7,1.2c-1.6,4.7-5.1,4.8-8,4.4c-3.4-0.4-5.2-3.5-6.4-7.1
			c1.5-0.3,2.6-0.5,3.8-0.8L866.8,1312.7z"/>
		<path d="M1033.1,1279.9c-1.9,4.5-5.1,6.7-8.9,6c-1.1-0.2-2.9-1.2-3-2c-0.2-1.4,0.3-3.3,1.2-4.5c0.5-0.6,2.2-0.5,3.4-0.4
			C1028.1,1279.2,1030.4,1279.5,1033.1,1279.9z"/>
		<path d="M841.2,1305.9c-8,0.4-8.3,0.3-11.9-5.1c8.3-2.4,11.8-0.8,11.7,5.3L841.2,1305.9z"/>
		<path d="M825.7,1291.6c3.6,2.2,8.6,1.3,11.4,5.4C831.8,1300.9,827.3,1298.9,825.7,1291.6z"/>
		<path d="M839.4,1297.4c-4.5-3.7-0.7-9-3.8-12.6C842.8,1287.1,844,1291.5,839.4,1297.4z"/>
		<path d="M885.5,1053.8c1.9-7.5,7.2-10,13.3-8.5c6.4,1.6,12.8,3,19.4,3.7c3.7,0.4,6.3,2.5,6.5,6.8c2-0.6,4.1-1.3,6.3-1.8
			c2.5-0.6,4.4,0.7,5,3c0.5,2.1,0.6,4.5-2.5,5.1c-3.3,0.7-6.7,1.2-10,1.8c-17.1,3.3-34.2,6.7-51.3,9.8c-1.9,0.3-4.2-0.4-5.9-1.4
			c-0.8-0.5-1-4-0.6-4.1c3.6-1.5,4.2-7.4,9.4-6.5c0.3,0,0.9-0.8,1-1.3C877.3,1055.6,880.9,1054,885.5,1053.8z"/>
		<path d="M951.3,1065.9c0.9-2.2,1.6-4.1,2.4-6.1c1-2.7,3.1-3.8,5.7-3.7c2.6,0.1,5.7,0,7.7,1.3c4.3,2.9,9.2,2.3,13.6,3.9
			c3,1.1,5.6,3.4,8.6,4.5c2.5,0.9,5.4,0.8,8,1.6c1.3,0.4,3.4,2.1,3.2,2.8c-0.3,1.4-1.7,3.1-3,3.7c-1.7,0.8-3.8,0.8-5.7,1.1
			c-12.4,2.1-24.7,4.5-37.1,6.3c-5.9,0.8-11.9,0.7-17.8,0.5c-1.3,0-2.6-2-3.9-3.1c1.3-1.5,2.5-4.2,4-4.4c2.9-0.3,3.9-2,5-4
			C944,1066.6,947.5,1065.7,951.3,1065.9z"/>
	</g>
</g>
</svg>
