<?xml version="1.0" encoding="utf-8"?>
<!-- Generator: Adobe Illustrator 20.1.0, SVG Export Plug-In . SVG Version: 6.00 Build 0)  -->
<svg version="1.1" id="Layer_1" xmlns="http://www.w3.org/2000/svg" xmlns:xlink="http://www.w3.org/1999/xlink" x="0px" y="0px"
	 viewBox="0 0 424.8 345.6" style="enable-background:new 0 0 424.8 345.6;" xml:space="preserve">
<style type="text/css">
	.st0{fill:#FFFFFF;}
</style>
<g>
	<g>
		<path class="st0" d="M-49.4,353.8c0-120,0-240,0-360c168,0,336,0,504,0c0,120,0,240,0,360C286.6,353.8,118.6,353.8-49.4,353.8z
			 M388.6,97.9c0-6.5,0.1-12.3,0-18.1c-0.1-3.1-0.6-5.2-5-4.1c-13.2,3-26.5,5.5-39.7,8.1c-2.3,0.5-4,0-5.7-2.5
			c-8.5-12.6-18.9-23.7-30.4-33.6c-13-11.2-28-19.3-43.3-26.7c-9.5-4.6-19.4-8.2-30.4-8.5c-9.6-0.2-19.1-3.5-28.6-3.3
			c-12.4,0.2-24.9,1.7-37.1,3.8c-28.3,5-53.1,18-74.7,36.6c-13,11.2-24.4,24.1-33.3,39c-9.6,16.3-16.8,33.4-20.8,52
			c-0.3,1.6-2.1,4-3.3,4.1c-3.8,0.3-3.6,2.6-3.6,5.2c0,6.8,0,13.6,0,20.6c-8.4,1.8-16.5,3.5-24.5,5.3c-7.1,1.6-7.9,2.9-5.5,10.1
			c4.7,14.2,9.6,28.3,14.1,42.5c0.8,2.6,1,5.8,0.4,8.4C12,257,6.6,277.2,1.4,297.5c-1,3.8,1.2,5.8,4.9,5
			c18.8-3.9,37.6-7.9,56.5-11.6c4.2-0.8,6.6-2.3,5.9-7.1c-0.3-2.1-0.1-4.3-0.1-8c2.1,1.4,3.6,1.9,4.5,3
			c10.4,12.3,21.9,23.4,35.4,32.1c9,5.8,18.9,10.3,28.3,15.5c3.1,1.7,5.5,5.4,8.7,6.1c14.9,3.2,29.8,6.7,45,7.3
			c23,0.8,45.6-1.3,67.2-9.9c3.9-1.6,8.1-2.6,12-4.1c5-2,10.1-3.8,14.8-6.5c3.7-2.1,6.7-5.5,10.2-8c12.3-9,23.8-18.7,33.6-30.5
			c11.5-13.8,20.9-28.8,27.3-45.6c1.3-3.3,3.3-4.7,6.2-5.3c18.4-3.8,36.7-7.4,55.1-11.1c3.8-0.8,5.6-2.2,4-6.8
			c-5.1-14.8-9.8-29.7-14.3-44.6c-1.3-4.4-3.1-9.5-2-13.6c4.9-18.9,10.8-37.5,16.2-56.3c0.4-1.5,0.3-3.1,0.4-4.6
			c-1.7-0.1-3.4-0.4-5-0.2C407.1,94.3,398.2,96.1,388.6,97.9z"/>
		<path d="M388.6,97.9c9.6-1.8,18.5-3.6,27.5-5.3c1.6-0.3,3.3,0.1,5,0.2c-0.1,1.5,0.1,3.2-0.4,4.6c-5.4,18.7-11.3,37.4-16.2,56.3
			c-1.1,4.1,0.7,9.2,2,13.6c4.5,15,9.2,29.9,14.3,44.6c1.6,4.7-0.2,6.1-4,6.8c-18.4,3.7-36.7,7.4-55.1,11.1c-2.9,0.6-5,2-6.2,5.3
			c-6.4,16.8-15.8,31.8-27.3,45.6c-9.8,11.8-21.3,21.5-33.6,30.5c-3.5,2.6-6.5,5.9-10.2,8c-4.7,2.6-9.8,4.5-14.8,6.5
			c-3.9,1.5-8.1,2.6-12,4.1c-21.6,8.6-44.2,10.7-67.2,9.9c-15.3-0.6-30.2-4.1-45-7.3c-3.2-0.7-5.6-4.3-8.7-6.1
			c-9.4-5.3-19.3-9.7-28.3-15.5c-13.5-8.7-25-19.8-35.4-32.1c-0.9-1.1-2.4-1.6-4.5-3c0,3.7-0.3,5.9,0.1,8c0.8,4.8-1.7,6.3-5.9,7.1
			c-18.8,3.8-37.7,7.7-56.5,11.6c-3.8,0.8-5.9-1.2-4.9-5C6.6,277.2,12,257,17.1,236.7c0.7-2.6,0.5-5.8-0.4-8.4
			c-4.5-14.2-9.4-28.4-14.1-42.5c-2.4-7.2-1.7-8.5,5.5-10.1c8.1-1.8,16.2-3.5,24.5-5.3c0-6.9,0-13.7,0-20.6c0-2.6-0.2-4.9,3.6-5.2
			c1.2-0.1,3-2.5,3.3-4.1c4-18.5,11.2-35.7,20.8-52c8.8-14.9,20.3-27.8,33.3-39c21.6-18.7,46.3-31.7,74.7-36.6
			c12.2-2.1,24.7-3.6,37.1-3.8c9.5-0.1,19.1,3.1,28.6,3.3c11.1,0.3,20.9,3.9,30.4,8.5c15.3,7.4,30.3,15.5,43.3,26.7
			c11.5,9.9,21.9,20.9,30.4,33.6c1.7,2.5,3.3,3,5.7,2.5c13.3-2.6,26.6-5,39.7-8.1c4.4-1,4.9,1.1,5,4.1
			C388.7,85.6,388.6,91.4,388.6,97.9z M121.5,297.7c6.2,2.5,10.3,1.5,11.5-3c1-1.7,2-3.3,3-5c0.6-0.4,1.2-0.9,1.9-1.3
			c1.7,3.3,4.1,6.5,4.7,10c0.4,2.1-2.2,4.7-2.9,6.1c2.4,3.6,4.8,7,6.9,10.5c1.5,2.6,2.1,5.7,3.9,8c1.2,1.6,3.5,2.4,5.4,3.5
			c0.9-1.6,2.3-3.2,2.5-4.9c0.5-3.3,0.6-6.6,0.6-9.9c-0.1-3.9,0.6-7.2,5.8-7.8c-3.1-1.7-4.2-3.2-1-5.1c2.5-1.5,4.8-3.3,7.4-5.1
			c1.2,4,0.6,6.8-3.1,8.5c-0.9,0.4-2.2,1.4-2.3,2.2c-1.1,8.1-1.9,16.2-2.9,24.9c8.6,1.3,15.9,2.7,23.3,3.5c3.5,0.4,7.5,0.5,8.1-4.6
			c-10.1,1.3-15.1-1.5-15.1-9.2c6.4,0.8,12.7,1.6,19.9,2.6c4.4-2.4,9.7-5.2,15.2-8.2c-0.4,5.1-4.3,7.7-7.9,9.2
			c-5.4,2.2-6.4,6.3-7.6,11.4c16.1-0.2,31.4-1.9,46.8-6.5c-1.4-2-2.5-3.4-3.3-4.9c-2.1-4.4-4.7-7.7-10.2-7.9c-1.3,0-2.6-1.5-3.9-2.2
			c0.1-0.6,0.2-1.2,0.2-1.8c10.4,3.2,18.1-2.3,25.7-7.9c2.5,7-0.7,11.3-9.3,13.9c3.9,7.9,7.6,9.3,14.9,5.6c-0.3-1.6-0.6-3.4-0.8-5.2
			c-0.8-6.4-1.9-12.8-2.2-19.2c-0.1-1.6,2.5-3.5,4.1-4.9c0.4-0.4,2.4,0.1,2.5,0.5c0.4,1.7,0.8,3.5,0.5,5.2
			c-1.3,7.4-0.3,14.3,3.8,20.8c1.5-0.8,2.6-1.5,3.8-1.9c5.6-1.9,8.6-5.4,8.7-11.7c0.1-4.4,1.5-8.8,2.6-13.1c1-4,4.1-6.7,7.8-7
			c-2,7.3-6,14.4-3.5,22.3c0.8-0.1,1.2,0,1.5-0.1c0.6-0.3,1.1-0.7,1.7-1c25.8-17.5,45-40.5,57.7-69c3.5-7.9,6.9-15.9,3-24.7
			c-1.1,0-2.3-0.2-3.4,0c-16,2.8-32.1,5.5-48.1,8.4c-9.2,1.7-18.4,3.6-27.6,5.4c0,0,0.1-0.2,0.1-0.2c-39.1,7.4-78.3,14.9-117.6,22.4
			c1.5,5,2.6,8.6,3.7,12.5c0.6-2.1,1.1-3.8,1.7-5.5c3.4,4.5,6.5,8.8,7.4,13.6c0.6,3.1-2.2,6.7-3.4,10.2l0.1-0.2
			c-1.9-0.1-3.9-0.1-5.8-0.2c0.6-1.7,1.1-3.5,1.9-5.1c0.8-1.6,2-3.1,3.5-5.3c-2.7,1.4-4.3,2.3-6.9,3.6c0-3.5,0-6.1,0-8.7
			c-0.2-0.1-0.5-0.2-0.7-0.3c-0.6,2.6-1.3,5.1-2,8.1c-1.3-0.1-2.8-0.2-4.2-0.3c-1-0.5-2-1-3-1.5c-2.6-3.5-6.1-6.9-1.7-13
			c1.7,2.7,2.9,4.7,4.5,7.2c0-5.3,0-9.2,0-13.4c-26,5-51.4,9.9-78,14.9c19.1,25.9,41.9,45.5,71.4,56.7c0.6-0.4,1.1-0.7,1.7-1.1
			c-2.5-5.1-5-10.2-6.7-13.7c-4.4,0.2-8.2,1.2-11.2,0.2c-2.8-1-4.9-4.2-7.2-6.5c-0.5-0.5-0.6-1.4-1.1-2.3c1.3-0.3,2.3-0.5,3.2-0.7
			L121.5,297.7z M382.4,82C268,104.7,153.8,127.4,39.9,150.1c0,37.9,0,75.2,0,112.9c6.9-1.3,13.4-2.5,20-3.8
			c9.1-1.8,18.2-3.5,27.4-5.4c14.3-2.9,28.7-5.9,43-8.9c5.4-1.2,10.7-3,16.2-4c5.5-1,11.2-1,16.7-2c9-1.6,17.8-4,26.7-5.6
			c13.7-2.4,27.5-4.2,41.2-6.8c13.8-2.6,27.4-6,41.1-8.7c11.2-2.3,22.5-4,33.7-6.2c13.3-2.5,26.5-5.2,39.8-7.8
			c12.3-2.4,24.5-4.9,36.7-7.3C382.4,158,382.4,120.1,382.4,82z M332.3,83.7C297,31.8,233.1,4.4,166.5,19.1
			C101.8,33.4,56.8,85.3,46.1,141c2.3-0.7,5.2-0.8,6.3-2.2c5.2-6.7,9.8-13.8,14.7-20.7c5.7-8,11.2-16.1,19.5-21.9
			c7.4-5.3,14.2-11.3,22.2-17.8c-3.6,0.5-6.6,1.9-8.8,1.1c-8.2-3-12.8,2.2-17.7,7C78.1,90.6,74,95,69.9,99.3
			c-0.5-0.5-1.1-0.9-1.6-1.4c5.6-7.4,11.3-14.8,17-22.1c0.5-0.6,1.8-0.9,2.7-0.9c13-0.1,26.1-0.5,39.1,0.1
			c11.5,0.5,22.1,4.7,32.6,9.2c5,2.1,10,6,16.1,1.7c10.3-7.3,22.2-7.7,34.3-8.1c20.3-0.7,39.4,2.4,56.7,13.7
			c4.8,3.1,9.3,4.7,15.3,2.6c6.4-2.2,13.3-2.9,20-4.2C312.1,87.8,322.1,85.7,332.3,83.7z M414.2,212.8c-0.5-1.7-0.7-2.8-1.1-3.9
			c-5.1-15.8-10.3-31.6-15.1-47.5c-0.8-2.7-0.9-5.9-0.1-8.6c2.9-10.7,6.4-21.4,9.6-32.1c2.1-6.9,4-13.8,6.2-21.3
			c-6.6,1.3-12.2,2.7-18,3.5c-4.2,0.6-5.3,2.4-5.2,6.5c0.2,29.7,0.1,59.3,0,89c0,2-0.5,4.4-1.7,5.8c-2.9,3.4-6.4,6.3-9.7,9.3
			c-2.5,2.2-5,4.3-7.6,6.4c0.4,0.5,0.8,1,1.2,1.4C386.5,218.5,400.2,215.7,414.2,212.8z M53.9,286c-6.1-3.1-11.7-6.4-17.6-8.9
			c-4.5-1.9-5.6-4.7-5.6-9.2c0.1-28,0.1-56,0.1-83.9c0-2,0-3.9,0-6.6c-7.5,1.6-14.4,3.1-21.5,4.6c5.4,15.7,10.6,31,15.8,46.3
			c0.6,1.8,1,3.9,0.7,5.6c-1.3,5.8-3,11.5-4.5,17.3C17.4,265.6,13.6,280,9.6,295C24.6,291.9,38.9,289,53.9,286z M98.8,130.5
			c7.6-21.3,24.1-34.5,41.4-47.7c-3.8-0.7-8-1.9-11.3-0.8c-4.9,1.7-9.9,4.5-13.8,8c-8.1,7.2-15.9,14.9-23.1,23
			c-5.3,6-9.5,13-14.1,19.6c0.4,0.5,0.7,0.9,1.1,1.4C85.7,132.9,92.3,131.7,98.8,130.5z M128.6,122.6c5.4-0.3,10-0.5,14.6-0.9
			c1.2-0.1,2.6-0.9,3.3-1.8c6.5-8.7,12.8-17.4,19.3-26.3c-1.2-0.5-3.2-1-4.7-2c-3.8-2.8-7.1-2.8-10,1.2c-0.4,0.5-1.1,0.7-1.6,1.1
			C139,100.8,133.7,111.3,128.6,122.6z M230.7,84.9c-4.5-1-9.8-3.2-14,0.6c-5.3,4.8-9.7,10.5-14.4,15.8c-2.4,2.8-2.9,5.7,0.8,8.9
			c3.3-1.3,8-1.8,10.5-4.4C219.8,99.5,224.9,92.2,230.7,84.9z M236.3,102.8c16.3-2.8,14.7-0.9,22-9.7c-3.8-1.4-7.5-2.9-11.6-4.4
			C243.4,93.1,240.3,97.4,236.3,102.8z M62.3,280.3c0-4.7,0-8.6,0-13.1c-6.1,1.2-11.7,2.3-18.8,3.7
			C50.5,274.4,56.1,277.2,62.3,280.3z M179.8,102.2c-4.4,4.1-6.9,8-7.2,13.9c6.1-1.7,11.4-3.1,17.4-4.8
			C186.1,107.9,183,105.1,179.8,102.2z M360.7,219.2c3.4-3.7,6-6.7,8.9-9.9c-2.9,0.5-5.9,1-8.9,1.4
			C360.7,213.6,360.7,215.9,360.7,219.2z M183.1,92.5c3.3-2.5,6.3-4.8,9.3-7.1c-0.1-0.2-0.2-0.4-0.3-0.6c-4.4,1.7-8.9,3.3-13.9,5.2
			C180.4,91.2,182,92,183.1,92.5z"/>
		<path class="st0" d="M382.4,82c0,38.1,0,76,0,114.5c-12.2,2.4-24.4,4.9-36.7,7.3c-13.3,2.6-26.5,5.3-39.8,7.8
			c-11.2,2.1-22.5,3.9-33.7,6.2c-13.7,2.8-27.4,6.1-41.1,8.7c-13.7,2.6-27.5,4.3-41.2,6.8c-9,1.6-17.8,4-26.7,5.6
			c-5.5,1-11.2,1-16.7,2c-5.5,1-10.8,2.8-16.2,4c-14.3,3.1-28.7,6-43,8.9c-9.1,1.9-18.2,3.6-27.4,5.4c-6.5,1.3-13.1,2.5-20,3.8
			c0-37.7,0-75,0-112.9C153.8,127.4,268,104.7,382.4,82z M209.2,168.8c-0.7,0-1.4-0.1-2,0c-17.2,3.1-34.3,6.1-51.4,9.5
			c-3.7,0.8-8.1,1.8-9.2,6.9c-1,4.6-2.3,9.1-3.6,13.7c-2.4,8.8-4.8,17.6-7.2,26.3c-1.6,6,0.7,8.2,6.8,7c15.9-3,31.7-5.9,47.7-8.4
			c8.2-1.3,11.2-3.5,13.4-11.4c3.4-12.4,6.7-24.8,10.1-37.2C215.4,169.8,214.8,168.8,209.2,168.8z M216.9,219.3
			c2.7-0.8,3.9-1.2,5.1-1.4c14.6-2.7,29.2-5.1,43.7-8.1c12.3-2.6,21.5-8.4,23.1-22.6c0.9-7.7,3.8-15.1,5.9-22.6
			c1.3-4.5,0.2-7.2-4.5-7.5c-6.4-0.5-13-0.5-19.4,0.4c-12.1,1.7-24,4.3-36,6.4c-2.5,0.4-3.7,1.3-4.4,4.1c-2.6,10.6-5.8,21-8.6,31.5
			C220.1,205.6,218.7,211.9,216.9,219.3z M108.7,204.9c2.8-0.4,5.2-0.8,7.6-1.1c8.1-1,15.5-2.2,16.1-13.1c0.3-5.8-0.6-7.9-6.5-6.8
			c-16.4,3-32.7,5.8-49.1,9.1c-5.4,1.1-10.2,3.2-10.9,10c-0.4,3.7-1.8,7.2-2.8,10.9c-2.5,8.9-5.3,17.8-7.3,26.8c-1.3,6,0.2,8,5.8,7
			c16.2-2.7,32.4-5.6,48.5-9c3.7-0.8,8.2-2.9,10.1-5.8c2.6-4.1,3.2-9.6,4.8-15.2c-5.7,1.1-10.2,2.5-14.8,2.7c-5.1,0.2-7,2.7-7.8,7.3
			c-0.3,1.8-1.4,4.7-2.6,5c-7.2,1.8-14.5,3-22,4.4c0-1.8-0.2-2.8,0-3.7c2.4-8.9,5.5-17.8,7.2-26.8c1.1-6.1,3.6-8.9,9.7-9.4
			c5.2-0.4,10.4-1.6,16.3-2.6C110.1,198.4,109.5,201.3,108.7,204.9z M297.1,204.9c16.3-2.9,31.6-5.2,46.7-8.3
			c9.7-2,9.1-0.2,10.2-9.8c-11.1,2-22,4-33.9,6.2c1.4-5.3,2.5-10,3.8-14.6c0.2-0.7,1.5-1.2,2.4-1.4c7.2-1.4,14.4-3.1,21.6-3.9
			c5.8-0.6,6.3-0.2,7.1-9.1c-9.4,1.7-18.8,3.4-28.6,5.2c1.3-5.2,2.4-9.6,3.5-14.3c8-1.3,16-2.8,24-4.1c10.4-1.7,10.4-1.7,12-10
			c-1,0-2-0.2-3,0c-16.4,3-32.7,5.9-49,9.1c-1.3,0.3-3,1.9-3.4,3.2c-3.5,12.2-6.8,24.5-10,36.7C299.4,194.7,298.4,199.5,297.1,204.9
			z M228,121.8c-4.4,2-8.4,2.8-10.8,5.2c-6.2,6.2-11.7,13.2-17.9,20.2c-2.2-4.7-4.2-9.2-6.4-13.4c-0.8-1.5-2.9-3.9-3.3-3.7
			c-2.5,1.2-6.1-0.3-7.2,4.3c-2.4,9.8-5.7,19.3-8.7,28.9c7,1.2,8.2,0.3,9.9-6.1c1.3-4.7,3-9.2,4.9-14.9c1.7,4.1,2.9,7.2,4.5,10.2
			c0.8,1.6,2.1,3.9,3.4,4c1.3,0.1,3-1.8,4.3-3.1c4.5-4.7,8.9-9.5,14.1-15c-2,6.6-3.6,12.3-5.3,18.1c4.1,0.7,7.7,0.8,9-3.5
			C221.6,143.1,224.5,133.2,228,121.8z M277.3,143.1c0.4,0.6,0.8,1.2,1.2,1.7c11.1-2.2,22.3-4.3,33.3-6.8c1.5-0.3,3.2-2.4,3.8-4
			c2.9-8.7,5.5-17.6,8.4-27.3c-2.1-0.1-4-0.5-5.7-0.3c-6.6,1-13.2,2.3-19.8,3.2c-7.7,1-14.3,3-14.9,12.4c0,0.6-0.4,1.2-0.6,1.8
			C281.1,130.4,279.2,136.7,277.3,143.1z M363.5,128.3c3.1-10.5,6.3-21.2,9.6-32.2c-7.3-0.3-7.7-0.1-9.5,5.4
			c-1.8,5.6-3.6,11.2-5.6,17.6c-4.5-5.6-8.4-10.8-12.6-15.8c-0.8-1-2.7-2-3.8-1.8c-2.1,0.5-5.2,1.5-5.7,3.1
			c-3.3,9.8-6.1,19.8-9,29.7c7.2,0.9,8,0.2,9.9-6.4c1.5-5.3,3.4-10.6,5.4-16.6c3.5,4.3,6.5,7.9,9.5,11.6
			C354.5,126.6,357.2,130.3,363.5,128.3z M119.8,157.1c3.2,4.1,6.5,7.3,8.5,11.1c3.1,6.1,7.4,3.6,12.8,2.7c-2-2.5-3.6-4.3-5-6.2
			c-1.6-2-3-4.1-4.6-6.3c12.1-2.6,17-8.6,15.5-18.6c-0.8,0-1.6-0.2-2.4-0.1c-9.2,1.5-18.3,3.5-27.5,4.6c-3.9,0.5-5.2,2.2-6.1,5.4
			c-2.6,9.2-5.5,18.4-8.2,27.5c6.8,0.9,8.7-0.1,10.6-6c2.2-7,4.1-14,6.3-21c0.4-1.3,1.3-3.1,2.3-3.3c5.4-1.2,10.9-2,16.7-3
			c-0.5,1.5-0.9,2.4-1,3.3c-0.8,4.8-3.1,7.9-8.4,8.2C126.3,155.8,123.5,156.5,119.8,157.1z M262.8,126.4c7.8,0.7,10.9-2.5,10.3-10.9
			c-3.4,0.4-6.8,0.7-10.1,1.3c-6.9,1.3-13.8,2.5-20.6,4.1c-4.8,1.1-4.6,5.9-5.4,9.5c-0.2,0.6,3.5,2.6,5.6,3.3
			c5.3,1.9,10.7,3.6,16.4,5.4c-1.2,2.4-1.7,5.8-3.2,6.2c-5.1,1.6-10.6,2.3-16.3,3.4c0.8-2.7,1.4-4.6,2-6.6c-7.7-2-12,2.9-9.9,11.4
			c8.4-1.6,16.8-3.6,25.3-4.7c5.7-0.7,8.6-3,10.1-8.7c1-3.8,0.2-5-3.2-6c-5.9-1.6-11.8-3.4-18.2-5.3c0.9-2.2,1.3-5.4,2.5-5.7
			c4.9-1.4,10.1-1.9,15.9-2.9C263.4,123,263.2,124.6,262.8,126.4z M99.4,149.1c-1-0.1-2-0.4-2.9-0.2c-9.5,1.6-19,3-28.3,5.2
			c-2.1,0.5-4.2,3.2-5.2,5.4c-1.7,3.8-2.5,8-3.7,12.1c-1.3,4.6-2.6,9.1-4.4,15.3c10.1-1.9,18.7-3.5,27.3-5.1
			c8.6-1.6,10.8-4,10.9-12.7c-8.4,1.9-8.4,1.9-11,9.3c-5.7,1.1-11.4,2.2-17.2,3.3c2.3-7.7,4.5-15.1,6.9-22.3
			c0.5-1.4,1.8-3.2,3.1-3.5c4.8-1.2,9.7-1.8,14.9-2.8c-0.3,2.5-0.6,4.5-0.9,6.6C97.8,158,98.3,157.6,99.4,149.1z M160.1,167.5
			c3.3-10.7,6.5-21.3,10-32.9c-3.6,0.6-6.4,1-9,1.4c-3.3,10.9-6.5,21.5-10,33C154.8,168.4,157.4,168,160.1,167.5z"/>
		<path class="st0" d="M163.7,279.6c1.3-3.4,4-7.1,3.4-10.1c-0.9-4.8-4-9.2-7.4-13.6c-0.5,1.7-1,3.4-1.7,5.5
			c-1.2-3.9-2.2-7.5-3.7-12.5c39.3-7.5,78.5-14.9,117.6-22.4c-1.5,5.6-3,11.1-4.6,16.8c-0.5-2.5-1.1-5.4-1.6-8.2
			c-5.3,1.1-7.1,5.3-5.1,11.8c-4.8,1.2-5.8,4.1-3.9,11.1c-3.3-1.1-3.7,1.3-2.9,3.2c1.6,4,3.8,7.7,5.8,11.6c-2.2-1.5-4.4-2.9-6.8-4.5
			c-2.9,2.1-2.1,5.3-0.4,7.6c2.5,3.4,5.3,7,10.3,6.7c1,0,2.8-0.6,2.9-1.1c0.1-1.1-0.4-2.5-1.1-3.5c-1.1-1.5-2.6-2.8-4-4.2
			c1.9-0.3,3.9-0.6,5.8-0.9c-0.8-2-1.3-4.1-2.5-5.8c-1.2-1.8-3-3.1-4.4-4.7c-1.1-1.4-2-3-2.9-4.5c1.3,1.1,2.4,2.4,3.9,3.1
			c1.8,0.9,4.7,2.6,5.8,1.9c2.6-1.7,1.2-4-0.5-6.2c-1.7-2.3-2.8-5.2-4.1-7.9c2.1,1.3,4.1,2.6,6.2,3.9c0.6-1.7,1-3.5,1.9-5
			c0.6-0.9,2-1.3,3-1.9c-0.4,1-0.9,2.1-1.3,3.1c-1.3,3,0.2,4.1,3,3.7c5.3-0.7,10.4-5.6,10.8-10.8c0.1-1.5-0.7-3.1-1.1-4.6
			c-3.3,2.2-5.9,4-8.5,5.8c3.4-3.4,0.7-7.4,1.2-11.1c0.5-3.8-1.1-5.4-4.9-5.1c9.2-1.8,18.4-3.7,27.6-5.4c16-2.9,32.1-5.6,48.1-8.4
			c1.1-0.2,2.3,0,3.4,0c3.9,8.9,0.5,16.8-3,24.7c-12.7,28.5-31.8,51.5-57.7,69c-0.6,0.4-1.1,0.8-1.7,1c-0.3,0.1-0.6,0.1-1.5,0.1
			c-2.6-7.9,1.4-15,3.5-22.3c-3.7,0.3-6.8,3-7.8,7c-1.1,4.3-2.5,8.7-2.6,13.1c-0.1,6.3-3.1,9.8-8.7,11.7c-1.2,0.4-2.4,1.2-3.8,1.9
			c-4.1-6.5-5.2-13.4-3.8-20.8c0.3-1.7-0.1-3.5-0.5-5.2c-0.1-0.4-2.1-0.8-2.5-0.5c-1.6,1.5-4.1,3.3-4.1,4.9
			c0.3,6.4,1.3,12.8,2.2,19.2c0.2,1.8,0.6,3.5,0.8,5.2c-7.3,3.7-11,2.2-14.9-5.6c8.6-2.6,11.7-6.9,9.3-13.9
			c-7.6,5.6-15.3,11.1-25.7,7.9c-0.1,0.6-0.2,1.2-0.2,1.8c1.3,0.8,2.6,2.2,3.9,2.2c5.4,0.2,8.1,3.5,10.2,7.9
			c0.7,1.6,1.9,2.9,3.3,4.9c-15.4,4.7-30.8,6.3-46.8,6.5c1.3-5.1,2.3-9.2,7.6-11.4c3.6-1.5,7.5-4.1,7.9-9.2
			c-5.6,3-10.9,5.9-15.2,8.2c-7.2-0.9-13.5-1.8-19.9-2.6c0,7.7,5,10.5,15.1,9.2c-0.6,5.1-4.6,5.1-8.1,4.6
			c-7.4-0.9-14.7-2.2-23.3-3.5c1-8.7,1.8-16.8,2.9-24.9c0.1-0.8,1.4-1.8,2.3-2.2c3.7-1.7,4.3-4.5,3.1-8.5c-2.6,1.8-4.9,3.6-7.4,5.1
			c-3.2,1.9-2,3.3,1,5.1c-5.2,0.7-5.9,3.9-5.8,7.8c0.1,3.3,0,6.7-0.6,9.9c-0.3,1.7-1.7,3.3-2.5,4.9c-1.8-1.1-4.2-1.9-5.4-3.5
			c-1.7-2.4-2.4-5.4-3.9-8c-2.1-3.6-4.5-6.9-6.9-10.5c0.7-1.4,3.2-4,2.9-6.1c-0.6-3.5-3-6.7-4.7-10c-0.6,0.4-1.2,0.9-1.9,1.3
			c-0.2-6.3-4.8-9.7-8.7-14.5c-0.6,3.6-1,6.2-1.6,8.7c-0.9,3.5,0.2,5,4,4.1c-0.1,0.7-0.1,1.2-0.2,1.6c-0.3,0.8-0.7,1.5-1,2.3
			c-1.3-0.4-2.5-0.7-3.8-1.1c0.1-6.1-3.5-7.6-11.7-5.3c2.3,5.5,7,5.7,11.9,5.1c-2.6,0.8-5.1,1.5-8.2,2.4c1.6,1.5,3.3,3.1,5.1,4.8
			c-0.9,0.2-1.9,0.4-3.2,0.7c0.4,1,0.6,1.8,1.1,2.3c2.3,2.3,4.3,5.5,7.2,6.5c3,1.1,6.7,0,11.2-0.2c1.7,3.5,4.2,8.6,6.7,13.7
			c-0.6,0.4-1.1,0.7-1.7,1.1c-29.5-11.2-52.4-30.8-71.4-56.7c26.6-5.1,52-10,78-14.9c0,4.2,0,8.1,0,13.4c-1.6-2.5-2.8-4.5-4.5-7.2
			c-4.4,6.2-1,9.5,1.7,13c-1,0.9-2.8,1.7-2.8,2.6c0,4.3,4.1,8.4,8.2,8.2c1.3-0.1,3.3-1.2,3.6-2.2c0.3-1.2-0.6-3.1-1.6-4.2
			c-1.2-1.3-3-1.9-4.5-2.8c1.5,0.1,2.9,0.2,4.2,0.3c0.7-2.9,1.4-5.5,2-8.1c0.2,0.1,0.5,0.2,0.7,0.3c0,2.6,0,5.2,0,8.7
			c2.6-1.3,4.2-2.2,6.9-3.6c-1.5,2.3-2.7,3.7-3.5,5.3c-0.8,1.6-1.3,3.4-1.9,5.1c1.9,0.1,3.9,0.1,5.8,0.2c-1.4,1.8-3.1,3.4-4.2,5.3
			c-0.6,1.1-0.5,2.6-0.7,3.9c1.3,0.1,2.9,0.6,3.8,0c1.6-0.9,2.9-2.5,4.3-3.8c0,0.9,0.3,2.3-0.1,2.7c-2.8,2.4-5.8,4.6-8.4,6.5
			c-5.2-2.2-10.1-4.3-15.5-6.7c0.2,6,3.1,8.5,7.4,10.1c-1.2,0.3-2.3,0.6-5.2,1.3c3.3,2.8,5.3,5.8,7.9,6.5c2.5,0.7,6.4,0.4,7.7-4.3
			c-1.8-0.4-3.5-0.7-5.2-1.3c-1.9-0.7-3.6-1.6-5.4-2.4c4.7-0.3,9.6,0.2,13.9-1.2c2.9-1,5.7-4.4,7.1-7.4c1.6-3.3-0.3-4.6-4.3-3.7
			c2.5-2.8,3.1-5.8,2.4-9.1C167.1,277.4,165.4,278.5,163.7,279.6z M275.4,274.9c3.6-3.2,7.3-6.4,8-12.6c-4.6,1.7-8.7,3-12.5,4.8
			c-1.1,0.5-2.4,2.7-2.2,3.7c0.4,1.5,2,2.8,3.4,3.7c0.8,0.5,2.3,0.2,3.4,0.2c-3,1.8-6,3.7-9.1,5.6c3.6,5.4,8.1,3.7,11.4,1.9
			c2.8-1.6,4.4-5.2,6.6-7.9c-1.1-0.6-2.3-1.7-3.3-1.6C279.2,273.1,277.3,274.2,275.4,274.9z M313.9,240c0-1.5,0-3,0-4.8
			c-7.4,3.4-8.7,10.4-2.9,17c0.6-2.7,1.1-4.9,1.6-7c0.5-1.8,1-3.6,1.5-5.4c-0.8,3,3.1,6,0,9.1c-0.7,0.8-1.4,2.7-0.9,3.3
			c0.6,0.9,2.2,1.4,3.4,1.4c5.1,0.1,8.1-3.5,7.9-9.8c-2.2,1-4.3,2-7.3,3.4c6.3-7.4,8.2-11.6,7.5-17.3c-2.6,1.8-5,3-6.9,4.8
			C316.3,236.2,315.2,238.2,313.9,240z M231.7,262.8c-0.2-6.1-0.1-12.3-3.8-17.5c-1-1.4-2.6-2.3-3.9-3.4c-1.1,1.5-3.1,3.1-3,4.6
			c0.1,4.9,0,10,1.6,14.5c2.2,6.6,3.7,6.6,8.5,1.8c0.2-0.2,0.6-0.1,0.9-0.2c-1.1,2.7-2.1,5.4-3.2,8.2c-2.5-2.5-5-4.9-7.4-7.5
			c-1.5-1.6-2.8-3.5-4.2-5.3c-0.5,2.5-1.4,5.1-1.5,7.6c-0.1,6.7,6.1,11.2,12.9,9.3c0-1.4,0-2.9,0-4.3c5,5.5,7.5-1.8,12.2-3.1
			c-2.9,4.3-5.4,7.4-7.3,10.9c-1.9,3.5-0.4,6.1,3.3,6.3c3.1,0.1,7.6-4.1,8.4-8.1c1-4.7-0.8-9-3.7-10.1c-0.9-4.2-1.6-8.1-2.6-11.8
			c-0.2-0.8-1.8-1.1-2.7-1.7c-0.5,0.9-1,1.9-1.4,2.8C233.7,258.1,232.7,260.5,231.7,262.8z M299.9,267.4c7.1-0.1,2.1-5.7,4.2-7.9
			c1.3-0.6,3.4-1.6,3.3-2.5c-0.2-4.3-0.9-8.6-1.5-13.3c-8.8,8.4-9.6,11-6.5,21.6c-1.3-2-2.6-4-4.3-6.5c-1.8,4.7-3.7,9.2-5.2,14
			c-0.3,1.1,0.5,3,1.4,4c2,2.3,4.6,4.1,6.7,6.2c3.8,3.8,7.2,3.2,10.2-2.2c-1.6-0.7-3.2-1.3-5.6-2.4c10.4-0.6,11.6-1.3,11.4-6.6
			c-0.8,0.2-1.6,0.3-2.3,0.5C305.2,273.4,301.2,271.7,299.9,267.4z M195.4,243.3c-0.7,0.2-1.3,0.4-2,0.6c-3.6,5.9-5.2,12.5-4.3,19.2
			c0.4,3.3,3.5,6.4,5.8,9.2c2,2.4,3.8,1.7,5-1.3c2.8-6.8,1.1-13.4-0.7-19.9C198.6,248.4,196.8,245.9,195.4,243.3z M192,294.7
			c0.9-0.8,3.3-2.1,4.5-4.1c0.4-0.7-1.7-3.5-3.2-4.7c-3-2.3-6.4-4-9.6-6c-2.7-1.6-4.1-0.5-4.5,2.2
			C178.4,288.7,183.8,294.8,192,294.7z M182.6,262.9c-1,2.6-2.6,4.8-2.6,7c-0.1,6.1,6.2,11.8,12.4,11.4c1.5-0.1,3.2-1.6,4.1-2.9
			c0.4-0.5-0.7-2.5-1.6-3.5c-3.1-3.5-6.3-6.9-9.6-10.3C184.9,264.2,184.3,264,182.6,262.9z M211.4,269.5c-0.7-2-1.5-4.8-2.9-7.2
			c-0.3-0.6-4.1-0.2-4.4,0.5c-2.1,4.9-3.8,10-5.6,15.1c-0.9,2.5-0.9,4.5,2.7,4C205.3,281.5,211.5,274.3,211.4,269.5z M192,307.8
			c1-1,3.3-2.6,4.2-4.9c0.4-1-1.9-3.8-3.6-4.7c-3.3-1.7-6.9-3-10.6-3.8c-1.1-0.2-3.8,1.6-3.8,2.5C178.5,301.8,185.3,307.8,192,307.8
			z M211.9,274.7c-3.2,4.1-6.4,8.1-9.3,12.2c-1.6,2.4-2.8,5-4.2,7.6c2.9-0.6,6-0.8,8.7-1.9C213.4,290,215.9,280.7,211.9,274.7z
			 M215.7,300.1c-3.8,2.8-7.1,5.5-10.6,7.8c-1.6,1.1-4.2,1.1-5.3,2.4c-1.5,1.7-1.9,4.2-2.8,6.4c1.8,0.1,4,0.9,5.4,0.2
			c3.8-1.9,7.7-4,10.8-6.8C215.9,307.7,217.4,304.1,215.7,300.1z M177.5,305.3c-2.9,10.1,4.4,13.5,13.4,12.3
			c1.4-0.2,2.6-1.6,3.9-2.5c-0.9-1.3-1.6-3.1-2.9-3.7C187.2,309.1,182.3,307.3,177.5,305.3z M215,288c-2.8,2.5-5.2,4.7-7.7,6.9
			c-2.5,2.2-5.3,4.1-7.6,6.5c-0.9,1-1,2.8-1.5,4.2c1.5,0.4,3.2,1.3,4.6,1C210,305.3,216.2,295.9,215,288z M250.1,284.1
			c-1-1.7-1.4-3-2.2-3.8c-0.3-0.3-1.7,0-2.2,0.4c-2.8,2.5-5.6,5.1-8.2,7.8c-2,2-2.7,4.1-0.2,6.4c2.6,2.4,5.3,2.8,7.3-0.1
			C246.9,291.5,248.3,287.7,250.1,284.1z M252.3,289.2c-0.2,0-0.4-0.1-0.5,0c-3.2,3.5-6.4,7-9.4,10.7c-1,1.3-1.1,3.2-1.5,4.9
			c1.8,0.2,3.9,1,5.5,0.5C253.8,302.8,255.4,298.2,252.3,289.2z M282.7,250.6c-3.4,1.6-6.8,3.2-10.2,4.8c-0.3,0.1-0.8,0.2-0.9,0.4
			c-0.7,1.7-1.9,3.6-1.6,5.2c0.2,1,2.5,2.3,4,2.4C280.3,263.8,284.6,257.4,282.7,250.6z M221.8,299c-0.4,6.1,3.8,9.8,12.3,9.7
			c1.8,0,3.6-1.3,5.4-2c-1.7-1.6-3.2-3.9-5.3-4.7C230.4,300.5,226.2,300,221.8,299z M234.1,286.5c-6.4-4.9-11.9-9.1-17.6-13.5
			C216.8,284.5,222.6,290,234.1,286.5z M219.9,287.7c0.6,7.1,4.1,10.8,10.3,11.5c1.6,0.2,3.3-1.2,5-1.8c-0.8-1.4-1.1-3.6-2.3-4.2
			C228.8,291.1,224.5,289.6,219.9,287.7z M280.7,285.3c-0.4-0.4-0.8-0.9-1.3-1.3c-5.2,1.3-10.5,2.6-16.1,3.9
			c2.5,5.7,7.2,6.1,10.5,5.1C276.6,292,278.4,287.9,280.7,285.3z M110.6,264.4c-0.5,0.4-0.9,0.7-1.4,1.1c-0.5,4.5,2.3,10.2,6.1,11.7
			c1,0.4,2.8,0.3,3.4-0.3c0.6-0.7,0.7-2.7,0.2-3.4C116.3,270.3,113.4,267.4,110.6,264.4z M321.2,255.2c-3.6,0-6.5-0.5-9.1,0.2
			c-1.5,0.4-2.4,2.9-3.6,4.4c1.4,1,2.8,2.8,4.3,2.9C317.5,263,319.1,259.2,321.2,255.2z M144.6,280c-0.5,0.4-1,0.9-1.5,1.3
			c2.5,2.7,4.8,5.7,7.7,7.9c1.9,1.5,4.9,0.9,5.4-2c0.2-1.3-1.3-3.6-2.5-4.2C150.9,281.6,147.7,281,144.6,280z M252,278.7
			c-0.8,7.9,0.6,10.4,6.2,11.3c1.3,0.2,2.9-0.8,4.3-1.3c-0.3-1-0.4-2.4-1.1-3C258.6,283.4,255.5,281.3,252,278.7z M317.1,264.5
			c-2.8-0.2-5.1-0.5-7.4-0.6c-1.3-0.1-3.2-0.3-3.8,0.4c-0.9,1.1-1.5,3-1.1,4.4c0.2,0.9,2.2,1.9,3.4,2
			C312.6,271,315.3,268.6,317.1,264.5z M108.7,275.7c2.2,8,6.6,10,12.8,5.5C117.1,279.3,113.3,277.7,108.7,275.7z M121.8,282
			c5.9-5.7,4.6-10.5-2.4-12.7C120.2,273.8,121,277.9,121.8,282z"/>
		<path class="st0" d="M332.3,83.7c-10.2,2.1-20.2,4.1-30.2,6.1c-6.7,1.4-13.6,2-20,4.2c-6,2-10.5,0.5-15.3-2.6
			C249.4,80.1,230.2,77,210,77.7c-12,0.4-24,0.9-34.3,8.1c-6.1,4.3-11.1,0.4-16.1-1.7c-10.5-4.5-21.1-8.7-32.6-9.2
			c-13-0.6-26.1-0.1-39.1-0.1c-0.9,0-2.2,0.3-2.7,0.9c-5.7,7.3-11.3,14.7-17,22.1c0.5,0.5,1.1,0.9,1.6,1.4
			c4.1-4.3,8.2-8.6,12.4-12.8c4.9-4.7,9.5-10,17.7-7c2.2,0.8,5.2-0.6,8.8-1.1c-8,6.4-14.9,12.5-22.2,17.8
			c-8.2,5.9-13.8,13.9-19.5,21.9c-4.9,6.9-9.6,14-14.7,20.7c-1.1,1.4-4,1.4-6.3,2.2c10.7-55.7,55.7-107.7,120.4-122
			C233.1,4.4,297,31.8,332.3,83.7z M169.3,37.8c-2.9,1.4-5.6,2.1-7.6,3.8c-1.4,1.1-1.4,3.8-2.7,5c-2.3,2-5.3,3.2-7.7,5.2
			c-1.2,1-1.7,3-2.5,4.6c2,0.9,4.1,2.7,5.9,2.4c6-0.7,11.8-2.1,17.8-3.3c9.4-1.9,18.8-3.8,28.2-5.6c4.8-0.9,9.7-1.3,14.5-2.1
			c2.8-0.5,5.2-1.9,4.3-5.4c-0.8-3.2-2.8-4.2-6-3.1c-1.8,0.6-3.7,0.9-5.5,1.4c-0.8-4.5-2.4-6.1-6.4-6.9c-6.5-1.2-12.9-2.5-19.4-3.7
			C175.5,28.8,170.8,31.7,169.3,37.8z M235.1,50.5c-0.4-0.3-0.8-0.6-1.2-0.9c-2.8,1.8-5.6,3.6-8.4,5.5c-1.7,1.2-3.4,2.4-5,3.8
			c-1.5,1.4-2.7,3-4.1,4.6c1.3,1.1,2.5,3.1,3.9,3.2c5.6,0.3,11.4,0.7,16.9-0.1c14.3-2.2,28.5-5,42.7-7.8c1.6-0.3,2.8-2.4,4.2-3.7
			c-1.5-1-2.8-2.4-4.4-2.9c-2.2-0.8-4.8-0.6-7-1.5c-3.3-1.3-6.3-3.4-9.6-4.7c-3.9-1.5-8.1-1.6-12.2-3.4
			C241.6,38.3,237.3,40.9,235.1,50.5z"/>
		<path class="st0" d="M414.2,212.8c-14,2.9-27.8,5.8-41.5,8.6c-0.4-0.5-0.8-1-1.2-1.4c2.5-2.1,5.1-4.2,7.6-6.4
			c3.3-3,6.8-5.9,9.7-9.3c1.2-1.4,1.7-3.9,1.7-5.8c0.1-29.7,0.2-59.3,0-89c0-4.2,1.1-6,5.2-6.5c5.7-0.8,11.4-2.2,18-3.5
			c-2.2,7.5-4.2,14.4-6.2,21.3c-3.2,10.7-6.6,21.3-9.6,32.1c-0.7,2.7-0.7,5.9,0.1,8.6c4.9,15.9,10.1,31.7,15.1,47.5
			C413.5,209.9,413.8,211.1,414.2,212.8z"/>
		<path class="st0" d="M53.9,286c-15,3-29.3,5.9-44.3,9c4-15,7.8-29.4,11.6-43.8c1.5-5.7,3.2-11.5,4.5-17.3c0.4-1.8-0.1-3.9-0.7-5.6
			c-5.1-15.3-10.4-30.6-15.8-46.3c7.2-1.5,14-3,21.5-4.6c0,2.7,0,4.6,0,6.6c0,28,0.1,56-0.1,83.9c0,4.5,1.1,7.4,5.6,9.2
			C42.2,279.6,47.8,282.9,53.9,286z"/>
		<path class="st0" d="M98.8,130.5c-6.4,1.2-13.1,2.4-19.7,3.6c-0.4-0.5-0.7-0.9-1.1-1.4c4.7-6.6,8.8-13.6,14.1-19.6
			c7.2-8.1,15-15.8,23.1-23c3.9-3.5,8.8-6.3,13.8-8c3.3-1.2,7.5,0.1,11.3,0.8C122.8,96,106.4,109.3,98.8,130.5z"/>
		<path class="st0" d="M128.6,122.6c5.1-11.3,10.4-21.9,20.8-28.8c0.5-0.4,1.3-0.6,1.6-1.1c2.9-4,6.2-4,10-1.2
			c1.5,1.1,3.5,1.5,4.7,2c-6.5,8.9-12.8,17.7-19.3,26.3c-0.7,0.9-2.1,1.7-3.3,1.8C138.6,122.1,134.1,122.3,128.6,122.6z"/>
		<path class="st0" d="M230.7,84.9c-5.8,7.2-10.9,14.6-17,20.9c-2.5,2.6-7.2,3.1-10.5,4.4c-3.8-3.2-3.3-6.1-0.8-8.9
			c4.7-5.4,9.1-11.1,14.4-15.8C220.9,81.7,226.2,83.9,230.7,84.9z"/>
		<path d="M124.6,290.9c1.2,0.3,2.5,0.7,3.8,1.1c0.4-0.8,0.8-1.5,1-2.3c0.2-0.4,0.1-0.9,0.2-1.6c-3.8,0.9-4.8-0.7-4-4.1
			c0.6-2.5,0.9-5.1,1.6-8.7c4,4.7,8.5,8.2,8.7,14.5c-1,1.7-2,3.3-3,5c-1.4,0.1-2.9,0-4.2,0.4c-2.5,0.7-4.9,1.7-7.3,2.6
			c0,0,0.2,0.2,0.2,0.2c-1.8-1.7-3.5-3.3-5.1-4.8c3.1-0.9,5.7-1.7,8.2-2.4L124.6,290.9z"/>
		<path class="st0" d="M236.3,102.8c4-5.4,7.1-9.7,10.5-14.2c4.1,1.6,7.8,3,11.6,4.4C251,101.8,252.6,100,236.3,102.8z"/>
		<path class="st0" d="M62.3,280.3c-6.2-3.1-11.8-5.9-18.8-9.4c7.1-1.4,12.7-2.5,18.8-3.7C62.3,271.7,62.3,275.6,62.3,280.3z"/>
		<path class="st0" d="M179.8,102.2c3.2,2.9,6.3,5.7,10.2,9.1c-6,1.6-11.3,3.1-17.4,4.8C172.9,110.2,175.4,106.3,179.8,102.2z"/>
		<path d="M149.6,271.3c1.5,0.9,3.3,1.6,4.5,2.8c1,1,1.9,3,1.6,4.2c-0.3,1-2.3,2.2-3.6,2.2c-4.2,0.2-8.3-3.9-8.2-8.2
			c0-0.9,1.8-1.7,2.8-2.6C147.6,270.3,148.6,270.8,149.6,271.3z"/>
		<path class="st0" d="M360.7,219.2c0-3.3,0-5.6,0-8.4c3-0.5,6-1,8.9-1.4C366.7,212.6,364,215.5,360.7,219.2z"/>
		<path class="st0" d="M183.1,92.5c-1.1-0.6-2.7-1.4-5-2.6c5-1.9,9.5-3.5,13.9-5.2c0.1,0.2,0.2,0.4,0.3,0.6
			C189.4,87.7,186.4,90,183.1,92.5z"/>
		<path class="st0" d="M121.5,297.7c2.4-0.9,4.8-1.9,7.3-2.6c1.3-0.4,2.8-0.3,4.2-0.4C131.8,299.2,127.7,300.3,121.5,297.7z"/>
		<path d="M209.2,168.8c5.6,0,6.2,1,4.6,6.5c-3.5,12.4-6.7,24.8-10.1,37.2c-2.1,7.9-5.2,10.1-13.4,11.4c-15.9,2.6-31.8,5.4-47.7,8.4
			c-6.1,1.1-8.4-1-6.8-7c2.4-8.8,4.8-17.6,7.2-26.3c1.2-4.5,2.6-9.1,3.6-13.7c1.1-5.1,5.4-6.2,9.2-6.9c17.1-3.4,34.3-6.4,51.4-9.5
			C207.8,168.7,208.5,168.8,209.2,168.8z M192.7,179.2c-7.5,1.3-14.4,2.5-21.3,3.6c-2.9,0.5-4.8,1.4-5.4,4.9c-1,5.4-2.9,10.6-4.3,16
			c-1.5,5.9-2.9,11.8-4.5,18.5c8.6-1.6,16.3-2.9,23.9-4.5c1-0.2,2.1-1.6,2.4-2.7C186.6,203.2,189.5,191.5,192.7,179.2z"/>
		<path d="M216.9,219.3c1.8-7.4,3.2-13.7,4.9-19.9c2.8-10.5,6-20.9,8.6-31.5c0.7-2.8,1.9-3.7,4.4-4.1c12-2.1,24-4.7,36-6.4
			c6.4-0.9,13-0.9,19.4-0.4c4.7,0.4,5.8,3.1,4.5,7.5c-2.1,7.5-5,14.9-5.9,22.6c-1.6,14.3-10.8,20.1-23.1,22.6
			c-14.5,3-29.1,5.4-43.7,8.1C220.8,218.1,219.6,218.5,216.9,219.3z M240.1,206.9c3.8-0.5,6.4-0.6,8.9-1.2
			c17.2-4.3,15.6-2.2,19.6-18.3c0.2-0.6,0.4-1.2,0.6-1.9c1.6-6.4,3.3-12.8,5.2-20.6c-6.8,1-12.2,2.4-17.7,2.6
			c-5.8,0.2-7.9,2.8-8.3,8.2c-0.2,2.7-1.6,5.3-2.3,7.9C244.2,191.2,242.3,198.6,240.1,206.9z"/>
		<path d="M108.7,204.9c0.8-3.6,1.5-6.4,2.4-10.3c-5.9,1-11.1,2.2-16.3,2.6c-6.1,0.5-8.6,3.4-9.7,9.4c-1.7,9.1-4.8,17.9-7.2,26.8
			c-0.2,0.9,0,1.9,0,3.7c7.5-1.4,14.9-2.6,22-4.4c1.2-0.3,2.3-3.2,2.6-5c0.7-4.6,2.7-7,7.8-7.3c4.6-0.2,9.2-1.6,14.8-2.7
			c-1.7,5.6-2.2,11-4.8,15.2c-1.9,2.9-6.4,5-10.1,5.8c-16.1,3.4-32.3,6.3-48.5,9c-5.6,0.9-7.1-1.1-5.8-7c2-9,4.8-17.9,7.3-26.8
			c1-3.6,2.4-7.2,2.8-10.9c0.7-6.8,5.6-8.9,10.9-10c16.3-3.2,32.7-6.1,49.1-9.1c5.9-1.1,6.8,1,6.5,6.8c-0.6,10.9-8.1,12.1-16.1,13.1
			C113.9,204.1,111.5,204.5,108.7,204.9z"/>
		<path d="M297.1,204.9c1.3-5.3,2.3-10.2,3.6-15c3.2-12.3,6.5-24.5,10-36.7c0.4-1.3,2.1-3,3.4-3.2c16.3-3.2,32.7-6.1,49-9.1
			c1-0.2,2,0,3,0c-1.6,8.3-1.6,8.3-12,10c-8,1.3-16.1,2.7-24,4.1c-1.2,4.7-2.2,9.1-3.5,14.3c9.8-1.8,19.2-3.5,28.6-5.2
			c-0.8,8.8-1.3,8.4-7.1,9.1c-7.3,0.8-14.4,2.5-21.6,3.9c-0.9,0.2-2.2,0.7-2.4,1.4c-1.3,4.6-2.4,9.3-3.8,14.6
			c11.9-2.2,22.8-4.2,33.9-6.2c-1.1,9.7-0.5,7.8-10.2,9.8C328.7,199.7,313.4,202,297.1,204.9z"/>
		<path d="M228,121.8c-3.5,11.4-6.4,21.3-9.5,31.2c-1.4,4.3-4.9,4.2-9,3.5c1.7-5.8,3.4-11.5,5.3-18.1c-5.1,5.5-9.6,10.3-14.1,15
			c-1.3,1.3-3,3.3-4.3,3.1c-1.3-0.1-2.6-2.4-3.4-4c-1.5-3-2.7-6.2-4.5-10.2c-1.9,5.7-3.6,10.2-4.9,14.9c-1.7,6.4-2.9,7.3-9.9,6.1
			c2.9-9.6,6.3-19.2,8.7-28.9c1.1-4.6,4.8-3.1,7.2-4.3c0.4-0.2,2.5,2.2,3.3,3.7c2.2,4.3,4.2,8.7,6.4,13.4c6.1-7.1,11.6-14,17.9-20.2
			C219.6,124.6,223.6,123.8,228,121.8z"/>
		<path d="M277.3,143.1c1.9-6.3,3.8-12.7,5.7-19c0.2-0.6,0.6-1.2,0.6-1.8c0.6-9.4,7.3-11.4,14.9-12.4c6.6-0.9,13.2-2.2,19.8-3.2
			c1.7-0.3,3.5,0.1,5.7,0.3c-2.9,9.7-5.5,18.5-8.4,27.3c-0.5,1.6-2.3,3.6-3.8,4c-11.1,2.5-22.2,4.6-33.3,6.8
			C278,144.2,277.6,143.6,277.3,143.1z M314,110.6c-6.2,1.2-11.4,2.1-16.6,3.3c-1.4,0.3-3.2,1.6-3.7,2.9c-2.5,7.5-4.6,15.1-6.9,22.9
			c5.8-1.1,11.4-1.9,16.9-3.2c1.4-0.3,3.1-2.1,3.6-3.5C309.7,125.9,311.7,118.7,314,110.6z"/>
		<path d="M363.5,128.3c-6.2,2-9-1.7-11.8-5.2c-3-3.7-6-7.3-9.5-11.6c-2,6-3.9,11.2-5.4,16.6c-1.8,6.5-2.7,7.2-9.9,6.4
			c3-9.9,5.7-19.9,9-29.7c0.5-1.5,3.6-2.6,5.7-3.1c1.1-0.3,2.9,0.8,3.8,1.8c4.2,5,8.2,10.2,12.6,15.8c2-6.4,3.8-12,5.6-17.6
			c1.8-5.5,2.1-5.7,9.5-5.4C369.8,107.1,366.6,117.8,363.5,128.3z"/>
		<path d="M119.8,157.1c3.7-0.6,6.5-1.4,9.4-1.6c5.3-0.3,7.6-3.4,8.4-8.2c0.2-0.9,0.6-1.8,1-3.3c-5.8,1-11.3,1.8-16.7,3
			c-1,0.2-1.9,2-2.3,3.3c-2.2,7-4.1,14-6.3,21c-1.9,6-3.7,6.9-10.6,6c2.8-9.2,5.6-18.3,8.2-27.5c0.9-3.3,2.2-5,6.1-5.4
			c9.2-1.1,18.3-3,27.5-4.6c0.8-0.1,1.6,0.1,2.4,0.1c1.6,10-3.4,16-15.5,18.6c1.6,2.2,3,4.3,4.6,6.3c1.4,1.9,3,3.7,5,6.2
			c-5.4,0.9-9.7,3.4-12.8-2.7C126.3,164.4,123.1,161.3,119.8,157.1z"/>
		<path d="M262.8,126.4c0.3-1.9,0.6-3.4,1.1-6c-5.8,1-10.9,1.5-15.9,2.9c-1.2,0.3-1.6,3.5-2.5,5.7c6.4,1.9,12.3,3.8,18.2,5.3
			c3.4,0.9,4.2,2.2,3.2,6c-1.4,5.6-4.4,8-10.1,8.7c-8.5,1.1-16.9,3.1-25.3,4.7c-2.1-8.5,2.2-13.4,9.9-11.4c-0.6,2-1.2,3.9-2,6.6
			c5.7-1.1,11.1-1.8,16.3-3.4c1.5-0.5,2-3.8,3.2-6.2c-5.7-1.8-11.1-3.5-16.4-5.4c-2.1-0.8-5.7-2.7-5.6-3.3c0.9-3.6,0.6-8.3,5.4-9.5
			c6.8-1.6,13.7-2.9,20.6-4.1c3.3-0.6,6.7-0.9,10.1-1.3C273.7,123.9,270.6,127.1,262.8,126.4z"/>
		<path d="M99.4,149.1c-1.1,8.5-1.6,8.9-10.6,10.7c0.3-2.1,0.5-4.1,0.9-6.6c-5.2,0.9-10.1,1.6-14.9,2.8c-1.3,0.3-2.6,2.1-3.1,3.5
			c-2.4,7.2-4.5,14.6-6.9,22.3c5.8-1.1,11.5-2.2,17.2-3.3c2.6-7.4,2.6-7.4,11-9.3c-0.1,8.7-2.3,11.1-10.9,12.7
			c-8.6,1.6-17.2,3.2-27.3,5.1c1.8-6.2,3.1-10.8,4.4-15.3c1.2-4.1,2-8.3,3.7-12.1c1-2.2,3.1-5,5.2-5.4c9.3-2.1,18.9-3.6,28.3-5.2
			C97.4,148.7,98.4,149,99.4,149.1z"/>
		<path d="M160.1,167.5c-2.7,0.5-5.3,0.9-9,1.5c3.5-11.5,6.7-22.1,10-33c2.6-0.4,5.4-0.9,9-1.4C166.6,146.2,163.4,156.8,160.1,167.5
			z"/>
		<path d="M299.9,267.4c1.4,4.3,5.4,6,11.9,4.9c0.8-0.1,1.5-0.3,2.3-0.5c0.2,5.3-1,6-11.4,6.6c2.4,1,4,1.7,5.6,2.4
			c-3,5.4-6.3,6-10.2,2.2c-2.2-2.2-4.7-4-6.7-6.2c-0.9-1-1.7-2.9-1.4-4c1.5-4.7,3.4-9.3,5.2-14c1.7,2.6,3,4.6,4.3,6.5
			C299.6,266,299.7,266.7,299.9,267.4z"/>
		<path d="M228.7,270.8c1.1-2.7,2.1-5.4,3.2-8.2l-0.2,0.2c1-2.3,1.9-4.6,3-6.9c0.4-1,0.9-1.9,1.4-2.8c0.9,0.6,2.5,0.9,2.7,1.7
			c1,3.7,1.7,7.5,2.6,11.8c2.9,1.2,4.7,5.5,3.7,10.1c-0.8,3.9-5.3,8.2-8.4,8.1c-3.7-0.1-5.2-2.8-3.3-6.3c1.9-3.4,4.4-6.6,7.3-10.9
			c-4.8,1.3-7.2,8.6-12.2,3.1L228.7,270.8z"/>
		<path d="M195.4,243.3c1.3,2.6,3.2,5,3.9,7.8c1.8,6.5,3.5,13.1,0.7,19.9c-1.3,3.1-3,3.7-5,1.3c-2.4-2.8-5.4-5.9-5.8-9.2
			c-0.9-6.7,0.7-13.3,4.3-19.2C194.1,243.7,194.8,243.5,195.4,243.3z"/>
		<path d="M260.6,246.8c-2-6.5-0.2-10.6,5.1-11.8c0.6,2.9,1.1,5.8,1.6,8.2c1.5-5.6,3.1-11.2,4.6-16.8c0,0-0.1,0.2-0.1,0.2
			c3.8-0.3,5.4,1.3,4.9,5.1c-0.5,3.7,2.2,7.7-1.2,11.1c-0.9,0.9-1.9,1.8-2.8,2.8c-1,0.6-2.4,1-3,1.9c-0.9,1.5-1.3,3.3-1.9,5
			c-2.1-1.3-4.1-2.6-6.2-3.9C261.2,248.1,260.9,247.4,260.6,246.8z"/>
		<path d="M231.9,262.6c-0.3,0-0.7,0-0.9,0.2c-4.8,4.8-6.3,4.8-8.5-1.8c-1.5-4.5-1.5-9.7-1.6-14.5c0-1.5,2-3,3-4.6
			c1.3,1.1,3,2,3.9,3.4c3.7,5.3,3.6,11.5,3.8,17.5C231.7,262.8,231.9,262.6,231.9,262.6z"/>
		<path d="M313.9,240c1.3-1.8,2.4-3.8,4-5.3c1.9-1.7,4.3-3,6.9-4.8c0.7,5.7-1.2,9.9-7.5,17.3c3-1.4,5.1-2.4,7.3-3.4
			c0.2,6.2-2.8,9.9-7.9,9.8c-1.2,0-2.8-0.6-3.4-1.4c-0.4-0.6,0.2-2.5,0.9-3.3c3.1-3.1-0.8-6.1,0-9.1
			C314.1,239.8,313.9,240,313.9,240z"/>
		<path d="M192,294.7c-8.1,0-13.6-6-12.8-12.5c0.3-2.7,1.8-3.9,4.5-2.2c3.2,2,6.6,3.7,9.6,6c1.5,1.1,3.6,4,3.2,4.7
			C195.3,292.7,192.9,294,192,294.7z"/>
		<path d="M182.6,262.9c1.7,1,2.3,1.3,2.7,1.7c3.2,3.4,6.5,6.8,9.6,10.3c0.8,1,2,2.9,1.6,3.5c-1,1.3-2.6,2.8-4.1,2.9
			c-6.2,0.5-12.4-5.3-12.4-11.4C180,267.7,181.6,265.5,182.6,262.9z"/>
		<path d="M167,285.1c4-1,5.9,0.4,4.3,3.6c-1.4,3-4.2,6.4-7.1,7.4c-4.3,1.5-9.2,0.9-13.9,1.2l0.1,0.1c-4.2-1.5-7.2-4.1-7.4-10.1
			c5.5,2.3,10.3,4.4,15.5,6.7c2.5-1.9,5.6-4.1,8.4-6.5c0.5-0.4,0.1-1.8,0.1-2.7C167.1,285,167,285.1,167,285.1z"/>
		<path d="M211.4,269.5c0.1,4.8-6.1,11.9-10.2,12.5c-3.5,0.5-3.5-1.6-2.7-4c1.8-5.1,3.4-10.2,5.6-15.1c0.3-0.7,4.1-1.1,4.4-0.5
			C209.9,264.7,210.7,267.5,211.4,269.5z"/>
		<path d="M192,307.8c-6.7-0.1-13.5-6-13.7-10.9c0-0.9,2.7-2.7,3.8-2.5c3.6,0.8,7.3,2.1,10.6,3.8c1.7,0.9,4,3.7,3.6,4.7
			C195.4,305.2,193,306.8,192,307.8z"/>
		<path d="M211.9,274.7c4,6,1.5,15.3-4.8,17.9c-2.7,1.1-5.8,1.3-8.7,1.9c1.4-2.5,2.6-5.2,4.2-7.6
			C205.6,282.8,208.8,278.9,211.9,274.7z"/>
		<path d="M215.7,300.1c1.7,4,0.2,7.5-2.5,10c-3.1,2.8-7,4.9-10.8,6.8c-1.4,0.7-3.6-0.1-5.4-0.2c0.9-2.2,1.4-4.7,2.8-6.4
			c1.2-1.3,3.7-1.3,5.3-2.4C208.6,305.6,211.9,303,215.7,300.1z"/>
		<path d="M177.5,305.3c4.8,2,9.7,3.9,14.4,6.2c1.3,0.6,1.9,2.4,2.9,3.7c-1.3,0.8-2.5,2.3-3.9,2.5
			C181.9,318.8,174.6,315.4,177.5,305.3z"/>
		<path d="M215,288c1.2,7.9-5,17.3-12.2,18.6c-1.4,0.3-3.1-0.7-4.6-1c0.5-1.4,0.6-3.2,1.5-4.2c2.3-2.4,5-4.3,7.6-6.5
			C209.8,292.7,212.2,290.5,215,288z"/>
		<path d="M250.1,284.1c-1.8,3.6-3.3,7.5-5.5,10.7c-1.9,2.8-4.7,2.5-7.3,0.1c-2.5-2.3-1.8-4.4,0.2-6.4c2.7-2.7,5.4-5.3,8.2-7.8
			c0.5-0.5,1.9-0.7,2.2-0.4C248.7,281.1,249.2,282.3,250.1,284.1z"/>
		<path d="M299.9,267.4c-0.1-0.7-0.3-1.4-0.4-2.1c-3.1-10.6-2.4-13.2,6.5-21.6c0.6,4.7,1.3,9,1.5,13.3c0,0.9-2,1.9-3.3,2.5
			C302,261.7,307,267.3,299.9,267.4z"/>
		<path d="M228.5,270.6c0,1.5,0,2.9,0,4.3c-6.8,1.9-13-2.6-12.9-9.3c0.1-2.6,1-5.1,1.5-7.6c1.4,1.8,2.7,3.6,4.2,5.3
			c2.4,2.6,4.9,5,7.4,7.5C228.7,270.8,228.5,270.6,228.5,270.6z"/>
		<path d="M252.3,289.1c3,9,1.5,13.7-5.9,16.1c-1.6,0.5-3.6-0.3-5.5-0.5c0.5-1.7,0.5-3.6,1.5-4.9c2.9-3.7,6.2-7.1,9.4-10.7
			C251.9,289.1,252.2,289.2,252.3,289.1z"/>
		<path d="M272.7,245.6c0.9-0.9,1.9-1.8,2.8-2.8c2.6-1.8,5.2-3.5,8.5-5.8c0.4,1.5,1.3,3.1,1.1,4.6c-0.4,5.2-5.5,10.1-10.8,10.8
			c-2.8,0.3-4.2-0.7-3-3.7C271.7,247.7,272.2,246.7,272.7,245.6z"/>
		<path d="M275.4,274.9c1.9-0.8,3.8-1.8,5.7-2.1c1-0.2,2.2,1,3.3,1.6c-2.2,2.7-3.8,6.4-6.6,7.9c-3.3,1.8-7.8,3.5-11.4-1.9
			c3.1-1.9,6.1-3.8,9.1-5.6L275.4,274.9z"/>
		<path d="M282.7,250.6c1.9,6.8-2.4,13.2-8.7,12.9c-1.4-0.1-3.8-1.4-4-2.4c-0.3-1.6,1-3.5,1.6-5.2c0.1-0.2,0.6-0.3,0.9-0.4
			C275.9,253.9,279.3,252.2,282.7,250.6z"/>
		<path d="M221.8,299c4.4,1,8.6,1.5,12.5,2.9c2.1,0.8,3.5,3.1,5.3,4.7c-1.8,0.7-3.6,2-5.4,2C225.6,308.8,221.4,305.1,221.8,299z"/>
		<path d="M234.1,286.5c-11.5,3.5-17.3-2-17.6-13.5C222.2,277.4,227.7,281.6,234.1,286.5z"/>
		<path d="M260.6,246.8c0.3,0.6,0.6,1.3,1,1.9c1.3,2.6,2.4,5.5,4.1,7.9c1.7,2.2,3.1,4.5,0.5,6.2c-1.1,0.7-3.9-0.9-5.8-1.9
			c-1.4-0.7-2.6-2.1-3.9-3.1c0,0,0.1,0.1,0.1,0.1C254.8,250.9,255.8,248,260.6,246.8z"/>
		<path d="M260.5,273.8c1.3,1.4,2.8,2.7,4,4.2c0.7,1,1.2,2.4,1.1,3.5c-0.1,0.5-1.8,1.1-2.9,1.1c-5,0.2-7.8-3.3-10.3-6.7
			c-1.7-2.4-2.6-5.5,0.4-7.6c2.4,1.6,4.6,3,6.8,4.5C259.9,273.1,260.2,273.4,260.5,273.8z"/>
		<path d="M260.5,273.8c-0.3-0.4-0.7-0.7-1-1.1c-2-3.8-4.2-7.6-5.8-11.6c-0.7-1.8-0.4-4.3,2.9-3.2c0,0-0.1-0.1-0.1-0.1
			c1,1.5,1.8,3.2,2.9,4.5c1.4,1.7,3.2,3,4.4,4.7c1.1,1.7,1.7,3.9,2.5,5.8C264.4,273.2,262.5,273.5,260.5,273.8z"/>
		<path d="M275.6,274.8c-1.2,0-2.6,0.3-3.4-0.2c-1.4-0.9-3-2.3-3.4-3.7c-0.3-1,1-3.2,2.2-3.7c3.8-1.8,7.8-3.1,12.5-4.8
			c-0.7,6.2-4.4,9.4-8,12.6C275.4,274.9,275.6,274.8,275.6,274.8z"/>
		<path d="M219.9,287.7c4.6,1.9,8.9,3.4,12.9,5.4c1.2,0.6,1.6,2.8,2.3,4.2c-1.7,0.7-3.4,2-5,1.8C224,298.5,220.5,294.8,219.9,287.7z
			"/>
		<path d="M280.7,285.3c-2.2,2.7-4,6.7-6.8,7.6c-3.2,1.1-7.9,0.7-10.5-5.1c5.6-1.4,10.8-2.6,16.1-3.9
			C279.8,284.4,280.2,284.8,280.7,285.3z"/>
		<path d="M110.6,264.4c2.8,3,5.7,5.9,8.3,9c0.6,0.7,0.5,2.8-0.2,3.4c-0.6,0.7-2.4,0.7-3.4,0.3c-3.8-1.5-6.6-7.2-6.1-11.7
			C109.6,265.1,110.1,264.8,110.6,264.4z"/>
		<path d="M321.2,255.2c-2,4-3.6,7.8-8.4,7.5c-1.5-0.1-2.9-1.9-4.3-2.9c1.2-1.5,2.1-4,3.6-4.4C314.6,254.6,317.6,255.2,321.2,255.2z
			"/>
		<path d="M144.6,280c3.1,1,6.3,1.6,9.1,3c1.3,0.6,2.8,2.9,2.5,4.2c-0.5,3-3.5,3.5-5.4,2c-2.9-2.2-5.2-5.3-7.7-7.9
			C143.6,280.9,144.1,280.5,144.6,280z"/>
		<path d="M167.1,285c-1.4,1.3-2.7,2.9-4.3,3.8c-1,0.5-2.5,0-3.8,0c0.2-1.3,0-2.8,0.7-3.9c1.2-1.9,2.8-3.5,4.2-5.3
			c0,0-0.1,0.2-0.1,0.2c1.7-1.1,3.4-2.2,5.6-3.7c0.8,3.3,0.1,6.4-2.4,9.1C167,285.1,167.1,285,167.1,285z"/>
		<path d="M252,278.7c3.5,2.5,6.6,4.6,9.5,7c0.7,0.6,0.7,2,1.1,3c-1.4,0.5-3,1.5-4.3,1.3C252.5,289.1,251.2,286.6,252,278.7z"/>
		<path d="M313.9,240c0,0,0.2-0.2,0.2-0.2c-0.5,1.8-1.1,3.6-1.5,5.4c-0.5,2.1-1,4.2-1.6,7c-5.8-6.5-4.5-13.6,2.9-17
			C313.9,237,313.9,238.5,313.9,240z"/>
		<path d="M150.3,297.4c1.8,0.8,3.6,1.7,5.4,2.4c1.6,0.6,3.3,0.8,5.2,1.3c-1.3,4.7-5.2,5-7.7,4.3c-2.7-0.8-4.7-3.7-7.9-6.5
			c2.9-0.7,4-1,5.2-1.3C150.4,297.6,150.3,297.4,150.3,297.4z"/>
		<path d="M317.1,264.5c-1.8,4.1-4.5,6.5-8.9,6.2c-1.2-0.1-3.2-1.1-3.4-2c-0.3-1.3,0.2-3.3,1.1-4.4c0.6-0.7,2.5-0.4,3.8-0.4
			C312,264,314.3,264.3,317.1,264.5z"/>
		<path d="M124.8,290.7c-4.9,0.6-9.6,0.4-11.9-5.1c8.3-2.4,11.8-0.8,11.7,5.3C124.6,290.9,124.8,290.7,124.8,290.7z"/>
		<path d="M108.7,275.7c4.7,2,8.4,3.6,12.8,5.5C115.3,285.7,110.9,283.7,108.7,275.7z"/>
		<path d="M121.8,282c-0.8-4.1-1.6-8.2-2.4-12.7C126.4,271.6,127.7,276.3,121.8,282z"/>
		<path d="M169.3,37.8c1.5-6,6.2-9,13.1-7.7c6.5,1.2,12.9,2.5,19.4,3.7c4,0.8,5.6,2.4,6.4,6.9c1.8-0.5,3.7-0.8,5.5-1.4
			c3.2-1.1,5.2-0.1,6,3.1c0.8,3.5-1.5,4.9-4.3,5.4c-4.8,0.9-9.7,1.2-14.5,2.1c-9.4,1.7-18.8,3.7-28.2,5.6
			c-5.9,1.2-11.8,2.6-17.8,3.3c-1.8,0.2-3.9-1.6-5.9-2.4c0.8-1.6,1.3-3.5,2.5-4.6c2.3-2,5.4-3.2,7.7-5.2c1.3-1.2,1.3-3.9,2.7-5
			C163.7,39.9,166.4,39.1,169.3,37.8z"/>
		<path d="M235.1,50.5c2.2-9.6,6.6-12.2,16-8c4.1,1.8,8.3,1.9,12.2,3.4c3.3,1.3,6.3,3.4,9.6,4.7c2.2,0.9,4.8,0.7,7,1.5
			c1.6,0.6,3,1.9,4.4,2.9c-1.4,1.3-2.6,3.4-4.2,3.7c-14.2,2.8-28.4,5.6-42.7,7.8c-5.5,0.9-11.3,0.4-16.9,0.1
			c-1.3-0.1-2.6-2.1-3.9-3.2c1.3-1.5,2.6-3.2,4.1-4.6c1.5-1.4,3.2-2.6,5-3.8c2.7-1.9,5.6-3.7,8.4-5.5
			C234.3,49.9,234.7,50.2,235.1,50.5z"/>
		<path class="st0" d="M192.7,179.2c-3.2,12.3-6.1,24.1-9.2,35.8c-0.3,1.1-1.4,2.5-2.4,2.7c-7.6,1.6-15.2,2.9-23.9,4.5
			c1.6-6.7,3-12.6,4.5-18.5c1.4-5.3,3.3-10.6,4.3-16c0.6-3.4,2.5-4.4,5.4-4.9C178.3,181.7,185.2,180.5,192.7,179.2z"/>
		<path class="st0" d="M240.1,206.9c2.2-8.3,4.1-15.8,6.1-23.3c0.7-2.7,2-5.3,2.3-7.9c0.4-5.4,2.6-8,8.3-8.2
			c5.5-0.2,10.9-1.5,17.7-2.6c-2,7.8-3.6,14.2-5.2,20.6c-0.2,0.6-0.4,1.2-0.6,1.9c-3.9,16.1-2.4,14-19.6,18.3
			C246.5,206.4,243.9,206.4,240.1,206.9z"/>
		<path class="st0" d="M314,110.6c-2.4,8.2-4.3,15.4-6.6,22.4c-0.5,1.5-2.2,3.2-3.6,3.5c-5.5,1.3-11.1,2.1-16.9,3.2
			c2.3-7.8,4.4-15.4,6.9-22.9c0.4-1.3,2.2-2.6,3.7-2.9C302.6,112.6,307.8,111.8,314,110.6z"/>
	</g>
</g>
</svg>
