<?xml version="1.0" encoding="UTF-8" standalone="no"?>
<!-- Generator: Adobe Illustrator 22.0.1, SVG Export Plug-In . SVG Version: 6.00 Build 0)  -->

<svg
   xmlns:dc="http://purl.org/dc/elements/1.1/"
   xmlns:cc="http://creativecommons.org/ns#"
   xmlns:rdf="http://www.w3.org/1999/02/22-rdf-syntax-ns#"
   xmlns:svg="http://www.w3.org/2000/svg"
   xmlns="http://www.w3.org/2000/svg"
   xmlns:sodipodi="http://sodipodi.sourceforge.net/DTD/sodipodi-0.dtd"
   xmlns:inkscape="http://www.inkscape.org/namespaces/inkscape"
   version="1.1"
   id="Layer_1"
   x="0px"
   y="0px"
   viewBox="0 0 1080 1080"
   style="enable-background:new 0 0 1080 1080;"
   xml:space="preserve"
   sodipodi:docname="ACM_crimsoncodelogo_white_1080x1080-04 (1).svg"
   inkscape:version="0.92.4 (5da689c313, 2019-01-14)"><metadata
   id="metadata7082"><rdf:RDF><cc:Work
       rdf:about=""><dc:format>image/svg+xml</dc:format><dc:type
         rdf:resource="http://purl.org/dc/dcmitype/StillImage" /><dc:title></dc:title></cc:Work></rdf:RDF></metadata><defs
   id="defs7080" /><sodipodi:namedview
   pagecolor="#ffffff"
   bordercolor="#666666"
   borderopacity="1"
   objecttolerance="10"
   gridtolerance="10"
   guidetolerance="10"
   inkscape:pageopacity="0"
   inkscape:pageshadow="2"
   inkscape:window-width="2560"
   inkscape:window-height="1346"
   id="namedview7078"
   showgrid="false"
   inkscape:pagecheckerboard="true"
   inkscape:zoom="1.2361274"
   inkscape:cx="645.6767"
   inkscape:cy="230.27765"
   inkscape:window-x="-11"
   inkscape:window-y="-11"
   inkscape:window-maximized="1"
   inkscape:current-layer="Layer_1" />
<style
   type="text/css"
   id="style6855">
	.st0{fill:none;stroke:#FFFFFF;stroke-miterlimit:10;}
	.st1{fill:#231F20;}
	.st2{fill:#FFFFFF;}
	.st3{font-family:'Gotham-Medium';}
	.st4{font-size:101.6353px;}
	.st5{fill:none;}
</style>
<polygon
   class="st0"
   points="164.8,648.3 108.2,660.8 144.8,771 104.8,909.7 232.8,880.3 236.8,833.6 851.5,718.1 844.8,759.8   971.5,735 935.5,610.9 971.5,484.2 904.8,494.3 902.8,447.1 174.2,592.9 "
   id="polygon6857" />
<path
   class="st1"
   d="M666.4,758.1c0.1,0,0.2,0,0.3-0.1c0-0.1,0.1-0.2,0.1-0.3L666.4,758.1z"
   id="path6859" />
<path
   class="st1"
   d="M666.4,758.1c0.1,0,0.2,0,0.3-0.1c0-0.1,0.1-0.2,0.1-0.3L666.4,758.1z"
   id="path6861" />
<path
   class="st1"
   d="M666.4,758.1c0.1,0,0.2,0,0.3-0.1c0-0.1,0.1-0.2,0.1-0.3L666.4,758.1z"
   id="path6863" />
<path
   class="st1"
   d="M666.4,758.1c0.1,0,0.2,0,0.3-0.1c0-0.1,0.1-0.2,0.1-0.3L666.4,758.1z"
   id="path6865" />
<path
   class="st1"
   d="M666.4,758.1c0.1,0,0.2,0,0.3-0.1c0-0.1,0.1-0.2,0.1-0.3L666.4,758.1z"
   id="path6867" />
<path
   class="st1"
   d="M666.4,758.1c0.1,0,0.2,0,0.3-0.1c0-0.1,0.1-0.2,0.1-0.3L666.4,758.1z"
   id="path6869" />
<path
   class="st1"
   d="M666.4,758.1c0.1,0,0.2,0,0.3-0.1c0-0.1,0.1-0.2,0.1-0.3L666.4,758.1z"
   id="path6871" />
<path
   class="st1"
   d="M666.4,758.1c0.1,0,0.2,0,0.3-0.1c0-0.1,0.1-0.2,0.1-0.3L666.4,758.1z"
   id="path6873" />
<path
   class="st1"
   d="M666.4,758.1c0.1,0,0.2,0,0.3-0.1c0-0.1,0.1-0.2,0.1-0.3L666.4,758.1z"
   id="path6875" />
<path
   class="st1"
   d="M666.4,758.1c0.1,0,0.2,0,0.3-0.1c0-0.1,0.1-0.2,0.1-0.3L666.4,758.1z"
   id="path6877" />
<path
   class="st1"
   d="M666.4,758.1c0.1,0,0.2,0,0.3-0.1c0-0.1,0.1-0.2,0.1-0.3L666.4,758.1z"
   id="path6879" />
<path
   class="st1"
   d="M666.4,758.1c0.1,0,0.2,0,0.3-0.1c0-0.1,0.1-0.2,0.1-0.3L666.4,758.1z"
   id="path6881" />
<path
   class="st1"
   d="M666.6,758c0-0.1,0.1-0.2,0.1-0.3l-0.4,0.4C666.5,758,666.6,758,666.6,758z"
   id="path6883" />
<path
   class="st1"
   d="M666.4,758.1c0.1,0,0.2,0,0.3-0.1c0-0.1,0.1-0.2,0.1-0.3L666.4,758.1z"
   id="path6885" />
<path
   class="st1"
   d="M666.4,758.1c0.1,0,0.2,0,0.3-0.1c0-0.1,0.1-0.2,0.1-0.3L666.4,758.1z"
   id="path6887" />
<path
   class="st1"
   d="M666.4,758.1c0.1,0,0.2,0,0.3-0.1c0-0.1,0.1-0.2,0.1-0.3L666.4,758.1z"
   id="path6889" />
<path
   class="st1"
   d="M666.4,758.1c0.1,0,0.2,0,0.3-0.1c0-0.1,0.1-0.2,0.1-0.3L666.4,758.1z"
   id="path6891" />
<path
   class="st1"
   d="M666.4,758.1c0.1,0,0.2,0,0.3-0.1c0-0.1,0.1-0.2,0.1-0.3L666.4,758.1z"
   id="path6893" />
<path
   class="st1"
   d="M666.4,758.1c0.1,0,0.2,0,0.3-0.1c0-0.1,0.1-0.2,0.1-0.3L666.4,758.1z"
   id="path6895" />
<path
   class="st1"
   d="M666.4,758.1c0.1,0,0.2,0,0.3-0.1c0-0.1,0.1-0.2,0.1-0.3L666.4,758.1z"
   id="path6897" />
<path
   class="st1"
   d="M666.4,758.1c0.1,0,0.2,0,0.3-0.1c0-0.1,0.1-0.2,0.1-0.3L666.4,758.1z"
   id="path6899" />
<path
   class="st1"
   d="M666.4,758.1c0.1,0,0.2,0,0.3-0.1c0-0.1,0.1-0.2,0.1-0.3L666.4,758.1z"
   id="path6901" />
<path
   class="st1"
   d="M666.4,758.1c0.1,0,0.2,0,0.3-0.1c0-0.1,0.1-0.2,0.1-0.3L666.4,758.1z"
   id="path6903" />
<path
   class="st2"
   d="M676.2,761.5c-0.3-0.6-0.7-1.2-1.2-1.7C675.4,760.3,675.8,760.9,676.2,761.5z M666.7,757.7l-0.4,0.4  c0.1,0,0.2,0,0.3,0l0,0C666.7,757.9,666.7,757.8,666.7,757.7z M635,823.5L635,823.5c-0.1-0.1-0.2-0.2-0.3-0.3L635,823.5z   M582.7,833.6L582.7,833.6c0-0.1,0.1-0.1,0.1-0.3l0,0C582.8,833.4,582.7,833.5,582.7,833.6z M507.5,787.1l24.4-4.6l15.3-2.9  l22.7-4.3c-12.3,2.3-24.5,4.5-36.8,6.9C524.5,783.7,516,785.3,507.5,787.1z M438.1,973.3c1,0.1,1.9,0.3,2.9,0.4  c-0.9-0.2-1.9-0.4-2.8-0.7C438.2,973.1,438.2,973.2,438.1,973.3z"
   id="path6905" />
<path
   class="st2"
   d="M537.8,636.7c-5.4,0.6-10.9,1.2-16.3,2.1c-32.3,5.6-64.7,11-96.9,17.3c-11,2.1-19.5,7.5-21.9,20.7  c-2.9,16-8.6,31.5-12.8,47.3c-3.2,12.2-6,24.5-8.7,35.7c-0.1,8.8,4.6,12.3,12.7,10.8c34.6-6.3,69.3-12.1,103.8-19  c10.2-2.1,21.9-3.3,25.4-17c7.4-29,15.6-57.9,23.2-86.9C548.2,641,546.6,635.6,537.8,636.7z M486.7,712.7  c-1.4,5.3-4.3,10.4-4.4,15.6c-0.2,8.4-4.6,11.3-11.6,12.5c-14,2.3-28.1,4.7-44.6,7.4c4.8-17.9,9-33.7,13.2-49.4  c2-7.5,4.8-15,5.8-22.7c0.9-7.4,5.3-9.2,11.3-10.2c14.4-2.4,28.8-4.9,44.7-7.6C496.2,677,491.5,694.9,486.7,712.7z"
   id="path6907" />
<path
   class="st2"
   d="M706.1,611.8c-13.5-1-27.4-1.4-40.8,0.5c-25.7,3.7-51.1,9-76.5,14.2c-3.3,0.6-7.4,4.5-8.4,7.6  c-7.4,25.1-14.2,50.4-21,75.8c-2.7,10.1-4.8,20.2-7.5,31.7c22.6-3.9,42.5-6.8,62.3-10.8c17.7-3.5,35.3-7.5,52.6-12.6  c17.7-5.2,30-15.4,33.5-35.6c3.1-18.7,9.4-36.9,14.6-55.2C717.4,618.3,715.2,612.5,706.1,611.8z M666.4,651.3  c-4.1,15.1-7.9,30.2-12.7,45.1c-1.3,4-4.9,9-8.5,10.1c-13.8,4.3-28.1,7.3-45.4,11.5c5-19.1,9.2-34.8,13.3-50.5  c1.2-4.6,2.5-9.2,3.7-13.8c5.1-18.6,6.1-19.4,25.5-21.3c8.8-0.9,17.7-1.8,29.3-3C669.6,638,668.2,644.7,666.4,651.3z"
   id="path6909" />
<path
   class="st2"
   d="M324.8,712.2c1.6-7.2,3-13.4,4.7-21.4c-12.1,1.9-22.7,4.1-33.4,5c-12.9,1.1-18.7,7.2-21.1,20.3  c-3.4,18.7-9.7,36.9-14.6,55.3c-0.6,2.2-0.4,4.6-0.7,8.4c16-3.1,31.1-5.6,45.8-9.3c2.8-0.7,5.6-6.2,6.1-9.9  c1.4-10.2,5.7-15.5,16.7-16.1c9.7-0.5,19.2-3.3,30.8-5.4c-3.4,11.5-6,21.6-9.5,31.3c-3.5,9.5-12.8,11.1-21.1,12.7  c-34.2,6.6-68.5,12.7-102.8,19c-9.8,1.8-14.7-4.6-11.9-15.3c4.2-15.8,8.8-31.5,13.1-47.3c2.8-10.2,6.2-20.3,7.8-30.7  c2-13.7,11.1-19.2,22.6-21.5c34.5-6.8,69.2-12.9,103.9-19.1c12.4-2.2,13.8,2,13.2,14.6c-1.2,23.4-17.4,24.9-34.1,27.2  C335.4,710.6,330.4,711.4,324.8,712.2z"
   id="path6911" />
<path
   class="st2"
   d="M781.4,637.4c20.5-3.8,40.1-7.3,59.7-10.9c0.4,15.1-0.7,16.3-14.5,18.7c-15.1,2.6-30.3,5.5-45.4,8.4  c-1.9,0.4-4.7,1.4-5.1,2.8c-2.9,9.7-5.3,19.5-8.2,30.8c25.1-4.5,48.3-8.7,71-12.8c2.4,18.3-10.9,18.8-22,20.8  c-31.6,5.9-63.2,11.2-97.1,17.1c2.6-11.3,4.7-21.8,7.5-32.2c6.7-25,14.1-49.9,20.3-75c1.5-6.2,4.4-7.4,9.5-8.3  c24.9-4.4,49.8-9,74.7-13.5c10.7-1.9,21.4-3.8,32.5-5.7c-3,17.7-3,17.7-24.8,21.4c-16.8,2.8-33.7,5.7-50.5,8.5  C786.4,617.1,784.1,626.3,781.4,637.4z"
   id="path6913" />
<path
   class="st2"
   d="M574.3,541.2c-0.4,1.2-0.8,2.3-1.1,3.5c-1.4,4.3-2.7,8.6-4.1,12.8c-0.9,2.7-1.7,5.4-2.6,8.2  c-1,3.3-2.1,6.6-3.2,9.9c-0.8,2.6-1.7,5.2-2.5,7.7c-2.5,7.7-5.2,15.4-8,23c-1.3,3.6-9.2,4.7-14,6.9c-0.9-0.8-1.7-1.6-2.6-2.4  c3.4-12,6.9-24,11-38.4c-11,12.3-20.3,23-29.9,33.3c-2.3,2.5-5.8,5.2-8.9,5.4c-1.8,0.1-4.5-4.2-5.8-6.9c-3.5-6.9-6.5-14.1-10.8-23.5  c-3.9,13.7-7,24.9-10.3,36c-3.1,10.2-11.4,9.5-20.3,9.4c6.5-21.7,12.2-42.9,19.6-63.5c1.3-3.6,8.9-5.7,14-7c1.5-0.4,5,4.2,6.5,7  c4.7,9.1,8.8,18.5,13.7,28.9c11.8-13.6,22.6-27.3,34.8-39.5c5.8-5.8,14.4-9,21.7-13.3c0.3,0.3,0.7,0.6,1,0.9  C573,540,573.6,540.6,574.3,541.2z"
   id="path6915" />
<path
   class="st2"
   d="M763.8,506.3c-13.8,2.1-27.6,4.8-41.4,6.7c-16.1,2.2-29.9,6.5-31.1,26.3c-0.2,3.6-2.6,7-3.6,10.6  c-3.2,11-6.2,22.1-9.5,33.7c2.9,0.4,4.7,1,6.3,0.7c21.8-3.7,43.8-7.1,65.4-11.7c3.5-0.7,7.2-6.1,8.6-10  c6.1-17.6,11.4-35.5,17.9-56.3C771.2,506.2,767.4,505.7,763.8,506.3z M740.9,562.4c-1,2.9-4.8,6.1-7.9,6.9  c-11.2,2.6-22.6,4.3-34.6,6.5c4.8-16.4,9.3-32.2,14.3-47.9c0.8-2.5,3.2-5.7,5.5-6.2c11.5-2.6,23.3-4.4,37.1-6.8  C750.2,531.9,746,547.3,740.9,562.4z"
   id="path6917" />
<path
   class="st2"
   d="M781.7,564.5c6.4-20.6,13.1-40.3,18.3-60.3c2.1-7.9,7-8.7,12.6-8.4c3,0.2,6.5,2.9,8.7,5.4  c8.6,9.8,16.8,19.9,26.1,31c4.1-13.3,7.9-25.4,11.7-37.4c3.2-10.1,6.2-11.7,19.6-9.8c-6.8,22.5-13.5,44.9-20.1,66.9  c-12.2,4.5-18.4-3.2-24.6-10.8c-6.3-7.7-12.5-15.4-19.9-24.6c-4.2,12.6-8.3,23.5-11.4,34.6C798.7,564.9,797.4,566.1,781.7,564.5z"
   id="path6919" />
<path
   class="st2"
   d="M387.7,584.2c-10.9,2.3-20.4,5.3-30.1,5.9c-7.4,0.5-8.8,4.1-10.4,9.9c-3.9,14.1-8.2,28.1-12.6,42.1  c-3.9,12.3-8.3,14.6-22,12.3c5.8-19.2,11.9-38.4,17.3-57.7c2-7.1,5.1-10.3,12.9-11.3c19-2.4,37.7-6.3,56.6-9.5c2-0.3,4.1,0,6,0  c3,22.8-7.9,35.8-33,38.5c6.8,8.9,13.1,17.2,20.7,27.1c-11,0.9-19.8,7.4-26.4-5.4c-4.1-8.1-11.2-14.6-18.2-23.4  c8.1-1.9,14.8-4.8,21.4-4.7c10.1,0.1,12.8-5.8,14.8-13.6C385.3,591.5,386.3,588.6,387.7,584.2z"
   id="path6921" />
<path
   class="st2"
   d="M647.9,547.7c0.7-4,1.3-7.2,2.2-12.4c-11.8,1.9-22.3,2.9-32.4,5.7c-2.7,0.8-3.9,7-6.2,11.7  c11.1,3.7,21.3,7.2,31.6,10.4c5.5,1.7,14.8,0,14.3,8c-0.5,8.5-1.3,19.3-13.1,21.8c-20.6,4.2-41.4,8.2-62,12.2  c-0.6-2.8-0.9-5.4-0.9-7.8v-0.4c0-0.5,0-1,0-1.5c0-0.6,0.1-1.1,0.2-1.7c0-0.4,0.1-0.7,0.1-1c0.1-0.8,0.3-1.5,0.5-2.2  c0.1-0.3,0.1-0.6,0.3-0.9c0.1-0.3,0.2-0.6,0.4-0.9c0.1-0.2,0.2-0.4,0.3-0.6c0.3-0.7,0.7-1.4,1.1-2c0.2-0.2,0.3-0.5,0.5-0.7  c0.2-0.3,0.5-0.6,0.8-0.9c0.6-0.7,1.3-1.3,2-1.7c0.3-0.2,0.6-0.4,0.9-0.6c1-0.6,2.1-1,3.2-1.3c0.5-0.1,0.9-0.2,1.4-0.3  c3-0.5,6.4-0.3,10.2,0.8c-1.3,4.2-2.6,8.3-4.8,15.2c14.3-8.1,34.2,1.3,41-21.6c-11.7-3.8-23.2-7.3-34.5-11.4  c-4.3-1.6-11.8-6-11.4-7.2c2.1-7,1-17,10.7-19.3c14.6-3.5,29.3-6.3,44.1-9c7-1.3,14.1-1.8,21.3-2.7  C670.2,543,663.6,549.5,647.9,547.7z"
   id="path6923" />
<path
   class="st2"
   d="M269.9,656.7c0.7-13.6,8.4-19.8,21.9-18.9c1.1,12.4-4,22.4-15.1,24.7c-18.7,3.9-37.6,6.7-56.5,9.8  c-2,0.3-4.1-0.3-7.6-0.6c3.1-10.3,6-20,8.8-29.7c2.5-8.5,4.2-17.3,7.6-25.4c1.9-4.4,6.1-9.9,10.2-10.9c21.5-5,43.3-8.6,65.6-12.8  c-0.7,19.3-3.6,22.4-22,24.3c0.6-4.3,1.3-8.4,2-13.5c-10.6,2-20.3,3.4-29.7,5.9c-3.1,0.8-6.9,4-7.9,7c-5.2,15.3-9.5,31-14.4,47.4  C245.3,661.5,256.9,659.2,269.9,656.7z"
   id="path6925" />
<path
   class="st2"
   d="M434.7,567.9c6.1-0.9,11.6-1.7,18.8-2.8c-7.4,24.1-14.2,46.4-21,68.8c-5.7,0.9-11.3,1.8-18.9,3.1  C421,613.1,427.8,590.8,434.7,567.9z"
   id="path6927" />
<path
   class="st2"
   d="M666.6,758L666.6,758c-0.1,0-0.2,0-0.3,0.1l0.4-0.4C666.7,757.8,666.7,757.9,666.6,758z"
   id="path6929" />
<path
   class="st1"
   d="M674.9,759.8c0.5,0.5,0.9,1,1.2,1.7C675.8,760.9,675.4,760.3,674.9,759.8z"
   id="path6931" />
<path
   class="st1"
   d="M582.8,833.3c0,0.1-0.1,0.2-0.1,0.3l0,0L582.8,833.3L582.8,833.3L582.8,833.3z"
   id="path6933" />
<path
   class="st1"
   d="M634.8,823.3c0.1,0.1,0.2,0.1,0.3,0.2l0,0L634.8,823.3z"
   id="path6935" />
<g
   id="g6957">
	<g
   id="g6939">
		<path
   class="st2"
   d="M640.1,823.2c-2.4,0.1-4.7,0.2-7.1,0.3c-2.6,0.1-5.3,0.2-7.9,0.3c-2.9,0.1-5.8,0.3-8.7,0.4    c-0.3,0-0.4,0.1-0.4,0.4c0,2.6-0.4,5.2-1.2,7.7c-0.1,0.3-0.1,0.5,0,0.8c0.7,3.3,1.2,6.6,1.1,9.9c0,1.5-0.1,2.9-0.4,4.4    c0,0.1-0.1,0.2-0.1,0.5c-0.5-1-0.9-2-1.4-2.9c-1.3-2.7-2.8-5.4-4.6-7.8c-0.6-0.8-1.4-1.4-2.4-1.8c-2.9-1.1-5.9-1.9-9.1-1.9    c-5.3,0-9.9,1.8-13.8,5.4c-4.6,4.3-7.3,9.7-8.7,15.7c-0.8,3.6-0.8,7.2-0.3,10.9c1,7.1,2.4,14.2,3.8,21.3c1.1,5.7,2.1,11.4,3,17.2    c0.6,3.8,1.2,7.7,1.7,11.5c0.7,5.5,0.6,11-1.2,16.3c-2.6,7.3-7.8,11.9-15.1,14.1c-2.8,0.8-5.7,1.2-8.6,1.3    c-3.4,0.1-6.8-0.5-10.1-1c-3.9-0.6-7.8-1.2-11.7-1.7c-3.6-0.5-7.1-1-10.7-1.4c-3.5-0.4-7-0.8-10.5-1c-3.8-0.3-7.6-0.6-11.5-0.7    c-1.1,0-2.1,0-3.2-0.1c11.9-7.4,20.7-17.7,28.2-29.5c0.1,0.8,0.2,1.5,0.3,2.2c0.4,4.1,0.5,8.3,0.1,12.4c-0.1,0.6-0.1,1.2-0.1,1.8    c0,0.3,0.1,0.3,0.3,0.4c4,0.4,8,0.6,12,0c4.2-0.6,8.1-2.1,11.2-5.1c2.4-2.3,4-5.1,5.1-8.2c1.1-3.2,1.5-6.5,1.7-9.8    c0.3-5.9-0.3-11.8-1.3-17.7c-1.3-7.6-3.1-15-4.8-22.5c-1-4.5-2.2-9-3-13.6c-0.7-4.1-1.1-8.1-0.9-12.3c0.2-5.4,1.1-10.6,3.4-15.6    c2.6-5.7,6.5-10.2,12-13.2c1.2-0.7,2.5-1.2,3.8-1.6c0.2-0.1,0.3-0.1,0.4-0.3c2.7-8.3,5.4-16.6,8.1-24.9c0-0.1,0-0.1,0-0.2    c0.9,0,1.8,0,2.7,0c-1.8,8.1-3.7,16.2-5.5,24.3c1.2-0.2,2.3-0.4,3.4-0.5c0.4,0,0.6-0.2,0.7-0.6c1.4-4.4,2.8-8.8,4.1-13.1    c0.9-2.8,1.8-5.6,2.7-8.4c0.1-0.2,0-0.4,0.3-0.5c0.8,0,1.6,0,2.4,0c-0.1,0.3-0.1,0.5-0.2,0.8c-1.5,6.8-2.9,13.7-4.4,20.5    c-0.1,0.5,0,0.5,0.4,0.4c0.3-0.1,0.7-0.1,1-0.1c3.6-0.4,7.2-0.8,10.8-1.1c3.8-0.3,7.5-0.6,11.3-1c0.6-0.1,1.1,0.1,1.5,0.4    c1.4,0.9,2.3,2.2,3.2,3.6c0.2,0.4,0.4,0.4,0.9,0.3c7.4-2.3,14.8-4.6,22.3-6.9c0.3-0.1,0.5-0.1,0.6,0.3c0.1,0.5,0.3,1.1,0.5,1.6    c0.2,0.4,0.1,0.6-0.3,0.8c-6.9,2.7-13.9,5.4-20.8,8.1c-0.9,0.4-0.9,0.4-0.6,1.3c0.1,0.4,0.3,0.5,0.7,0.4c2.1-0.3,4.2-0.5,6.3-0.8    c2.8-0.3,5.6-0.7,8.4-1c2.9-0.4,5.9-0.7,8.8-1.1c0.2,0,0.3,0,0.3,0.3c0.1,0.6,0.2,1.2,0.3,1.7c0.1,0.4,0,0.6-0.5,0.7    c-7.6,1.5-15.1,3-22.6,4.5c-0.1,0-0.3,0-0.3,0.1c0,0.4,0.1,0.8,0.2,1.1c0.1,0.2,0.3,0.1,0.5,0.1c1.7,0.1,3.5,0.1,5.2,0.2    c4.3,0.1,8.6,0.3,12.9,0.4c2,0.1,3.9,0.1,5.9,0.2C640.1,821.4,640.1,822.3,640.1,823.2z M562.2,842.9c0.1-0.2,0.2-0.3,0.3-0.5    c2-3.3,4.4-6.4,7.7-8.5c6.3-4.2,13.3-5.8,20.9-5.4c0.7,0,1.4,0,2-0.2c0.5-0.2,0.6-0.5,0.2-0.8c-0.5-0.4-1.1-0.7-1.7-0.9    c-3-1.2-6.1-1.4-9.2-1.4c-2,0-4.1,0.2-6.1,0.5c-2.4,0.4-4.8,0.9-6.9,2.1c-3.4,1.9-5.6,4.8-6.7,8.6    C562,838.5,561.7,840.7,562.2,842.9z"
   id="path6937" />
	</g>
	<g
   id="g6943">
		<path
   class="st2"
   d="M474.2,913.6c0.9-0.6,1.6-1.3,2.3-2.1c4.5-4.6,8-9.9,11.2-15.4c4.5-8,8-16.4,10.8-25.2    c0.1-0.2,0.1-0.3,0.2-0.6c1.5,1.3,2.9,2.6,4.3,3.9c1.8,1.6,3.6,3.3,5.4,4.9c0.3,0.2,0.3,0.5,0.2,0.8c-0.6,1.8-1.1,3.5-1.6,5.3    c-0.1,0.3-0.1,0.5,0.1,0.8c2.1,3.1,4,6.3,5.3,9.8c0.2,0.4,0.3,0.8,0.4,1.3c2.1-4.7,3-9.6,2.7-14.6c-0.2-4-2-9.8-3.4-11.5    c-0.4,1.2-0.8,2.4-1.3,3.7c-1.5-1.3-2.9-2.7-4.4-4c-2-1.8-3.9-3.6-5.9-5.3c-0.4-0.3-0.5-0.6-0.3-1.1c1.5-4.4,3.5-8.7,5.8-12.8    c1.9-3.5,4.1-6.8,6.4-10.1c0.2-0.3,0.4-0.3,0.6,0c2.7,3.1,5.4,6.3,8.1,9.4c0.2,0.2,0.2,0.4,0,0.6c-0.7,1.1-1.3,2.1-1.9,3.2    c-0.1,0.2-0.2,0.4,0,0.6c3.5,3.8,6.6,7.7,9.5,12c0,0,0.1,0,0.2,0.1c1.3-8,1-15.8-1-23.7c-1.1,1-2.2,2-3.2,3    c-0.3,0.3-0.4,0.2-0.6,0c-2.7-3.1-5.3-6.2-8-9.3c-0.2-0.3-0.3-0.4,0-0.7c7.4-7.3,15.5-13.7,24.7-18.5c4.2-2.2,8.5-4,12.9-5.5    c0,0,0.1,0,0.2,0c-0.5,0.6-1,1.2-1.4,1.8c-3.7,4.7-5.9,10.1-7.1,16c-0.9,4.2-1.1,8.5-1,12.9c0.2,4.7,1,9.4,2,14    c1.8,8,3.7,15.9,5.4,24c1,4.8,1.9,9.5,2.3,14.4c0.4,4.1,0.5,8.2,0,12.3c-0.4,3.1-1.1,6.1-2.7,8.8c-2,3.5-5.2,5.3-9,6.2    c-2.5,0.6-5.1,0.7-7.7,0.7c-0.4,0-0.4-0.1-0.4-0.4c0.1-2,0.1-4,0-6c-0.2-5.4-1-10.7-2.5-15.9c-0.4-1.4-0.8-2.8-1.2-4.3    c-0.4,0.9-0.8,1.7-1.2,2.5c-3.5,7.7-8,14.8-13.4,21.3c-4.9,5.9-10.4,11.2-16.9,15.2c-3.6,2.2-7.4,4-11.5,5c-0.1,0-0.3,0.1-0.4,0.1    h-0.1c4.7-7.2,7.6-15.2,9.3-23.6c0.6-3,1-6.1,1.1-9.2c-1.5,0.4-2.9,0.9-4.3,1.2c-5.6,1.5-11.2,2.7-16.9,3.8    c-0.8,0.2-1.6,0.3-2.3,0.4C474.2,913.7,474.2,913.7,474.2,913.6z"
   id="path6941" />
	</g>
	<g
   id="g6947">
		<path
   class="st2"
   d="M587.6,947.8C587.6,947.9,587.6,947.9,587.6,947.8c-3.3,0.1-6.5,0.1-9.8,0.1v-0.1    C581.1,947.8,584.3,947.8,587.6,947.8z"
   id="path6945" />
	</g>
	<g
   id="g6951">
		<path
   class="st2"
   d="M620.5,868.8c0.7,1.9,1.2,3.7,1.7,5.5c1.3,4.7,2.4,9.5,3.1,14.3c0.6,4.1,0.8,8.3,0.5,12.4    c-0.3,3.7-1.1,7.4-2.9,10.7c-2.5,4.5-6.4,7-11.4,7.9c-6.5,1.2-11.7-1.2-15.9-6c-3.3-3.8-5.6-8.3-7.4-13c-2.1-5.4-3.5-11-4.6-16.6    c-0.8-3.8-1.3-7.7-1.8-11.6c0-0.1,0-0.2,0-0.5c0.8,2.2,1.6,4.2,2.5,6.2c2.3,4.7,5,9.2,8.7,12.9c2.7,2.7,5.8,4.8,9.5,5.7    c3.6,0.9,7.1,0.7,10.4-0.9c2.9-1.4,4.8-3.9,6-6.8c1.1-2.5,1.6-5.1,1.9-7.8c0.4-3.8,0.2-7.6-0.2-11.5    C620.6,869.5,620.5,869.2,620.5,868.8z"
   id="path6949" />
	</g>
	<g
   id="g6955">
		<path
   class="st2"
   d="M587.6,947.8c-3.3,0-6.5,0-9.8,0c-0.8,0-1.5,0-2.3,0c6.7-4.1,10.3-10.4,12.8-17.5c0.8,1.6,1.4,3.2,1.8,4.9    c1,3.7,1.4,7.5,1.2,11.4c-0.1,1.1,0,0.9-1,1C589.5,947.7,588.5,947.8,587.6,947.8z"
   id="path6953" />
	</g>
</g>
<text
   transform="matrix(0.9999616,-0.19053066,0.01087935,0.99796547,0,0)"
   class="st2 st3 st4"
   id="text6959"
   style="font-size:101.83231354px;font-family:Gotham-Medium;fill:#ffffff;stroke-width:1.00193846"
   x="328.13348"
   y="987.92389">20     20</text>

<polygon
   class="st2"
   points="306.6,269.6 315.5,275.1 478.7,210.3 481.6,210.2 600.3,246.8 601.6,246.6 609.9,239 481.8,199.8 "
   id="polygon6961" />
<g
   id="g7075">
	<path
   class="st5"
   d="M579.2,354.5l13.2,1.7c0.2,0,0.4,0,0.6,0c0.4-0.1,0.9-0.3,1.2-0.6c0.5-0.5,0.7-1.2,0.6-1.9l-0.5-4.7   c0.7-0.2,1.3-0.8,1.5-1.6c0.1-0.3,0.1-0.5,0.1-0.8l-0.1-1.1c-0.1-1-0.9-1.9-1.9-2.1l-15.6-2.6c-0.3,0-0.5,0-0.8,0   c-0.4,0.1-0.8,0.3-1.2,0.6c-0.5,0.5-0.7,1.3-0.6,2l1.4,9.1C577.4,353.6,578.2,354.3,579.2,354.5z M589.8,347.4l0.4,3.9l-8.8-1.1   l-0.6-4.3L589.8,347.4z"
   id="path6963" />
	<path
   class="st5"
   d="M564.5,321.7c2.5,5.5,4.4,11.2,5.5,16.8l0,0c0.2,1,0.4,2.1,0.6,3.1c2.2,13.8,3.6,37.2-11.5,39.6   c-5,0.8-13-4.1-20.3-12.4c-7.7-8.8-13.5-19.6-16-30.1c0.3-0.4,0.5-1,0.4-1.6l-0.5-5.8c1.1-0.2,1.8-1.3,1.8-2.4v-0.5l-0.3-3.5   c-0.1-1.1-0.9-1.9-2-2.1l-1.5-0.2c-0.1-1.8-0.2-3.8-0.2-5.9c0-0.9,0-1.7,0-2.6c-0.2,0-0.5,0-0.7,0c-1.3,0-2.5,0-3.8,0   c0,0.6,0,1.2,0,1.8c0,2.3,0.1,4.9,0.3,7.6l-10.6-1.4c-0.7-0.1-1.3,0.1-1.8,0.6s-0.7,1.2-0.7,1.8l0.1,1.4l0.7,8.3   c0.1,1.1,0.9,2,2,2.1l12.2,1.4c2.4,11.8,8.8,24.3,17.5,34.1c8.6,9.7,17.6,14.9,24.3,13.9c8.1-1.3,20.9-8.8,15.2-44.9   c0-0.3-0.1-0.6-0.2-1c-0.9-5.6-2.6-11.3-4.9-16.9c-0.8-1.9-1.6-3.8-2.5-5.6c-1.8-0.3-3.6-0.5-5.4-0.7   C562.9,318.3,563.7,320,564.5,321.7z M508.1,332l-0.4-5l8.7,1.2l0.5,4.9L508.1,332z"
   id="path6965" />
	<path
   class="st5"
   d="M653.1,342v-0.2c-16.2-7.1-33-12.9-50.3-17.4l1.9,11.8l2.5,15.7l7.4,46.4l-24.9-4.4c-0.2,0-0.5,0-0.7,0   c-0.3,0-0.5,0.1-0.7,0.2l-2.8,1.6c-0.7,0.4-1.2,1.2-1.2,2v4.7l-1.4,0.6l-37.4-8.9l-13.4-7.5l-0.1-3.1c0-1-0.7-1.8-1.6-2.1   l-28.3-9.3c-0.4-0.1-0.9-0.1-1.3,0c-0.6-0.5-1.4-0.6-2.1-0.3L457.8,388c-0.9,0.4-1.5,1.4-1.4,2.4l0.8,6.3l-12.4,5.2   c-0.9,0.4-1.5,1.4-1.3,2.5l-59,20.1l-2.3,0.4l-1-6.6c-0.2-1.1-1.1-1.9-2.2-1.9l-5.7-0.1c-0.2,0-0.5,0-0.7,0.1L339,427.2l-7.7-54.7   c-29.1,19.9-55,44.3-76.4,72.2l49.6,111.2l43.5-8.7l-5.5-34.5l19.2-6.1l0,0c2.7-0.9,6-1.9,7.8-2.5l8.5-2.7l15.4-5.1l36.7-12.1   l14.8-4.9l27-8.9c0.3-0.1,30.5-9.5,40.2-12.5l1.6,10l4,25l3.1,19.8l5.9-1.2l-4-25.1l-3-18.7l-1.6-10.2l33.2,6l66.2,12.2l5.8,1.1   c0.2,0.9,0.9,1.7,1.8,1.9l10.8,2l1.4,8.7l31.1-6.2l36.1-113.4c-14.5-9.7-30-18.3-46.2-25.7C656.3,343.4,654.7,342.7,653.1,342z    M527.5,385.5l0.1,2.7c0,0.8,0.5,1.6,1.2,1.9l14.8,8.3c0.2,0.1,0.4,0.2,0.6,0.2l38.4,9.2c0.5,0.1,0.9,0.1,1.4-0.1l3.5-1.5   c0.8-0.4,1.4-1.2,1.4-2.1v-4.8l1-0.5l26,4.5l4.5,1.3l0.8,5.3c0.1,0.9,0.8,1.6,1.7,1.9l9.4,2.5l-0.2,0.2c-0.5,0.4-0.8,1.1-0.8,1.7   v2.6l-5.1,0.8l-29.6-5.3c-0.2,0-0.5,0-0.7,0l-10.6,1.7l-46.2-10.4l-5.9-4.9c-0.3-0.2-0.5-0.4-0.8-0.4l-24.6-7l1.2-8.9   c0.1-0.5,0-1-0.3-1.5l-2.4-4.3L527.5,385.5z M333.7,444.9c1.1-0.3,1.7-1.4,1.6-2.6l-1.2-7.7l4.6-2.5l34.8-11.2l3.4,0.1l1.1,7   c0.1,0.6,0.4,1.2,0.9,1.5c0.5,0.4,1.1,0.5,1.7,0.4l4.7-0.8c0.1,0,0.2-0.1,0.4-0.1l61-20.8c1-0.4,1.7-1.4,1.5-2.5v-0.1l12.4-5.2   c0.9-0.4,1.5-1.4,1.4-2.4l-0.8-6.3l37.5-14.9l4.3,7.6l-1.2,8.4l-40.4,14.1c-0.5,0.2-1,0.5-1.2,1l-1.9,3.5l-75.5,26.2l-2.6-0.6   c-0.3-0.1-0.5-0.1-0.8,0l-17.8,2.8c-0.2,0-0.3,0.1-0.5,0.1L335,451.1l-4-0.6l-5.5-3.4L333.7,444.9z M511.4,453.3   c-8.5,2.6-39.7,12.3-41.2,12.8l-16.5,5.4l-22.3,7.4h-0.1h-0.1L397.7,490l-21.4,7.1l-8.2,2.6H368c-1.4,0.4-3.8,1.2-7.8,2.5l0,0   l-13.7,4.4l0,0l-6,1.9c-2.7-1.6-9.9-5.9-13-7.7l37.2-12.7l0,0l16.7-5.7l130.5-44.7L511.4,453.3z M318.9,497.3   c-0.3-1-1.3-1.6-2.3-1.5l-0.7,0.1l-0.9-4.1c-0.1-0.3-0.1-0.5-0.3-0.7c-0.4-0.7-1.2-1.1-2-1.1l-6.2,0.2l-0.3-0.8   c-0.2-0.5-0.5-0.8-0.9-1.1l19.4-5.3l0,0l2.4-0.6c0.3-0.1,0.6-0.2,0.8-0.4l11-8.9l53-13.6h0.1l58.9-19.6c0,0,0.1,0,0.1-0.1l55.5-23   l5.3,4.6v9.9L318.9,497.3z M510.2,412.2c-0.3,0-0.5,0-0.8,0s-0.5,0.1-0.8,0.3l-0.2-0.2c-0.6-0.6-1.5-0.7-2.3-0.4l-56.7,23.5   L390.8,455l-46,11.8l-5.8,1.5l-0.6-4.1l-1.4-8.6l25.5-10.9l17.1-2.7l2.8,0.6c0.4,0.1,0.8,0.1,1.2-0.1l76.9-26.7   c0.5-0.2,1-0.6,1.2-1l1.9-3.5l40.9-14.3c0.1,0,0.1,0,0.2,0.1l26,7.4l5.9,5c0.3,0.2,0.6,0.4,0.9,0.5l47.1,10.7   c0.3,0.1,0.5,0.1,0.8,0l10.7-1.7l28.7,5.1l2,12.5L510.2,412.2z M648.5,464.1l-11.9,10.6l-18.7-3.4L551.7,459l-34.2-6.2l0.4-15.8   l130.9,25.9L648.5,464.1z M659,449.1l-0.6,1.9l-4.1,1.8c-0.4,0.2-0.7,0.5-1,0.8l-2.3,3.5l-133.1-26.3l-0.1-11.3   c0-0.4-0.1-0.8-0.3-1.1l110.3,23l28.4,7.2c0.4,0.2,0.8,0.3,1.2,0.3l1.7-0.1C659.1,448.9,659.1,449,659,449.1z"
   id="path6967" />
	<path
   class="st5"
   d="M522.5,301.3c1.7-4.9,4.7-8.7,9.7-9.5c6.8-1.1,14.1,3.5,20.6,11c2.1,0.2,4.2,0.4,6.3,0.7l-0.1-0.1   c-8.9-11.8-18.7-17.6-27.5-16.1c-4.4,0.7-10.6,3.6-13.7,14c0.7,0,1.3,0,2,0C520.6,301.2,521.6,301.3,522.5,301.3z"
   id="path6969" />
	<path
   class="st5"
   d="M452.6,337L452.6,337l0.9,6.1c0.1,0.7,0.5,1.3,1,1.7c0.5,0.3,1,0.4,1.5,0.3c0.1,0,0.3-0.1,0.4-0.1l14.4-5.2   c1-0.4,1.6-1.4,1.4-2.5l-1.7-10.6c-0.1-0.7-0.5-1.3-1.1-1.6c-0.1,0-0.1-0.1-0.2-0.1c-0.5-0.3-1.2-0.3-1.8-0.1l-0.4,0.2l-16,6.1   c-1,0.4-1.6,1.4-1.4,2.5l0.3,1.6C450.2,336.3,451.4,337.2,452.6,337z M466.7,330l0.9,5.9l-10.1,3.7l-0.8-5.6c0-0.1,0-0.1,0-0.2   L466.7,330z"
   id="path6971" />
	<path
   class="st5"
   d="M520.5,512.8l-61.6,12.3c0,0.3,0,0.6-0.1,0.9c5.1-1.3,10-2.6,14.8-3.9l47.7-9.5c0.5,0.5,1,1,1.6,1.4   c4.1-1.7,9.2-2.8,13.7-4.5l26.5-5.3l-36.8,7.4L520.5,512.8z"
   id="path6973" />
	<path
   class="st5"
   d="M347.9,372.8c0.2,1.3,1.3,2.1,2.6,1.9h0.1l0.9,6.3c0.1,0.7,0.5,1.3,1.1,1.7c0.5,0.3,1,0.4,1.5,0.3   c0.1,0,0.3,0,0.4-0.1l15.1-5.5c1-0.4,1.6-1.4,1.4-2.5v-0.2c-0.2-1.6-0.5-3.1-0.7-4.7c-0.2-1.3-0.4-2.6-0.6-4l-0.3-2.2   c-0.1-0.7-0.5-1.3-1.1-1.6c-0.6-0.3-1.3-0.4-1.9-0.2l-17.2,6.6c-1,0.4-1.6,1.4-1.4,2.5L347.9,372.8z M365.3,367.4   c0.2,1.1,0.4,2.2,0.5,3.3c0.1,1,0.3,2,0.5,3l-10.8,3.9l-0.9-5.9c0-0.1,0-0.2-0.1-0.3L365.3,367.4z"
   id="path6975" />
	<path
   class="st5"
   d="M637,489.5L574.6,502l34.1-6.8c0.6-0.1,1.2-0.1,1.9-0.2c0.6-0.1,1.2-0.2,1.9-0.2c0.7-0.1,1.4-0.2,2-0.3   c0.6-0.1,1.1-0.2,1.6-0.3c0.5-0.1,0.9-0.2,1.4-0.3c0.4-0.1,0.7-0.2,1.1-0.3c0.6-0.2,1.2-0.3,1.8-0.6l54.7-10.9   c2.7,0.2,5.4,0.1,8.4-0.5c1.4-0.2,2.9-0.7,4.3-1.2c0.4-0.1,0.8-0.3,1.2-0.4c1.7-0.7,3.5-1.3,5.3-1.8c10.8-3.3,22.4-4.7,33.6-7   c14.3-2.8,28.6-5.6,43-8.3c7.6-1.5,15.1-2.9,22.7-4.3c0-0.1-0.1-0.1-0.1-0.2c-22.8-33.9-53.1-64.4-89.1-88.4l-36.1,113.4L637,489.5   z"
   id="path6977" />
	<path
   class="st5"
   d="M402,320.2c-0.1-0.6-0.2-1.1-0.4-1.7c0.1,0.6,0.1,1.2,0.2,1.7c0,0.5,0.1,1.1,0.2,1.6c0.1,0,0.2-0.1,0.3-0.1   C402.3,321.2,402.2,320.7,402,320.2z"
   id="path6979" />
	<path
   class="st5"
   d="M207.9,528.1c-0.1,0.2-0.1,0.3-0.2,0.5c-6,15.9-10.8,32.3-14.2,49.1c0.5,0,1,0,1.5,0c2.6,0,4.9-0.5,6.9-1.4   l78.2-15.6c8.2-1.5,16.3-2.9,23.9-4.2c0.1-0.2,0.1-0.4,0.2-0.6l-49.6-111.2C235.1,470,219.3,498.1,207.9,528.1z"
   id="path6981" />
	<path
   class="st5"
   d="M393.8,538.2c1.2-0.1,2.5-0.2,3.7-0.3c1.4-0.1,3.1-0.7,4.4-1.5l-9.6,1.9C392.9,538.3,393.4,538.3,393.8,538.2z   "
   id="path6983" />
	<path
   class="st5"
   d="M404.2,338.8c0.9,6.7,2,13.5,3.2,20.2v0.3l0.2,0.2c2.7,2.7,5.5,5.3,8.3,7.9c1.4,1.3,2.8,2.6,4.2,3.9   c1.4,1.3,2.8,2.6,4.3,3.8c-1.3-1.4-2.6-2.8-3.9-4.2c-1.3-1.4-2.6-2.8-3.9-4.2c-2.6-2.7-5.2-5.4-7.8-8.1c-1-6.6-2-13.3-3.2-19.9   c-0.2-1.4-0.5-2.8-0.8-4.2c-0.4,0.1-0.8,0.3-1.2,0.4C403.8,336.2,404,337.5,404.2,338.8z"
   id="path6985" />
	<path
   class="st5"
   d="M443.2,326.3c1.2,3.5,2.1,7.5,2.8,11.8c2,12.4-0.5,26.1-6.8,37.5c-6.2,11.3-15.1,18.6-24.5,20.1   c-20.1,3.2-34.5-9.6-38.4-34.2c-0.8-4.8-0.8-9.8-0.1-14.9c-0.4,0.2-0.9,0.4-1.3,0.6v0.1c-1.1,0.5-2.3,1.1-3.4,1.7   c-0.4,4.5-0.2,8.9,0.5,13.2c2.1,13.3,7.2,23.9,14.7,30.5c7.6,6.7,17.6,9.3,28.8,7.6c10.7-1.7,20.7-9.9,27.6-22.3   c6.8-12.3,9.5-27.1,7.3-40.5c-0.7-4.1-1.5-7.9-2.6-11.4c-0.4-1.3-0.8-2.5-1.3-3.8c-1.5,0.3-2.9,0.7-4.4,1   C442.4,324.1,442.8,325.2,443.2,326.3z"
   id="path6987" />
	<path
   class="st5"
   d="M383.7,324.1L383.7,324.1c6.6-11.6,15.8-19.1,25.4-20.6c9.9-1.6,18,0.6,24.2,6.3c0.6,0.6,1.2,1.2,1.8,1.8   c1.6-0.4,3.2-0.8,4.9-1.2c-1.2-1.5-2.4-2.8-3.7-4.1c-7.3-6.7-16.7-9.2-27.9-7.4c-10.8,1.7-21.2,10-28.5,22.7   c-0.7,1.3-1.4,2.6-2.1,4c-1.2,2.4-2.2,4.9-3.1,7.5c1.9-0.9,3.9-1.8,5.8-2.6C381.5,328.3,382.5,326.2,383.7,324.1z"
   id="path6989" />
	<path
   class="st5"
   d="M539,319.1c0.4,3.3,0.8,6.5,1.3,9.8c0.1,0.8,0.2,1.6,0.3,2.3c0.8,5.7,1.8,11.4,2.7,17.1v0.2l0.1,0.1   c2.5,3.1,5,6.2,7.5,9.3c1.3,1.5,2.5,3.1,3.8,4.6s2.6,3,3.9,4.5c-1.1-1.7-2.3-3.3-3.4-4.9c-1.1-1.6-2.3-3.2-3.5-4.8   c-2.3-3.2-4.6-6.3-7-9.4c-0.8-5.5-1.7-10.9-2.6-16.4c-0.1-1-0.3-1.9-0.5-2.9c-0.6-3.2-1.2-6.5-1.8-9.7v-0.1   c-0.3-1.4-0.6-2.8-0.8-4.3c-0.2,0-0.4,0-0.6,0c0.2,1.4,0.3,2.8,0.5,4.2C539,318.9,539,319,539,319.1z"
   id="path6991" />
	<path
   class="st5"
   d="M191,852.1c11.9,5.9,23.8,11.8,36.6,18.2V843c-12.6,2.3-24.4,4.6-36.2,6.8C191.3,850.5,191.2,851.3,191,852.1z   "
   id="path6993" />
	<path
   class="st5"
   d="M803.8,730.7l-22.6,4.3l-76.6,14.6l-19.2,3.7l-54.7,10.4l-11.6,2.2l-48.4,9.2l-0.9,0.2   c-12.3,2.3-24.5,4.6-36.8,6.9c-8.5,1.6-17,3.3-25.6,5h-0.2l-23.1,4.4l-14.8,2.8l-56.9,10.8l-9.6,1.8l-88.2,16.8l-24.1,4.6   l-47.9,9.1c45.9,66.4,115,115.5,195.6,135.5c0,0.1,0,0.2,0,0.3c1,0.1,1.9,0.2,2.9,0.4c25.2,6.1,51.5,9.2,78.6,9.2   c159.7,0,293.4-111.3,327.8-260.5l-29.2,5.5L803.8,730.7z"
   id="path6995" />
	<path
   class="st5"
   d="M853.6,724.7v18.4c1-1.2,2-2.3,3-3.4c5.6-6.4,10.4-11.8,16.3-18.4c-4.6,0.8-8.8,1.5-12.5,2.2   C857.9,724,855.7,724.4,853.6,724.7z"
   id="path6997" />
	<path
   class="st5"
   d="M172.8,863.5c-0.3-0.1-0.7-0.3-1-0.5s-0.6-0.3-0.9-0.5c-0.2-0.1-0.4-0.2-0.6-0.4c-1.6-0.9-3-2-4.1-3.2   c-0.2-0.2-0.4-0.4-0.6-0.6c-0.2-0.2-0.4-0.4-0.5-0.6c-0.2-0.2-0.3-0.4-0.5-0.6c-0.2-0.3-0.5-0.7-0.7-1c-0.1-0.1-0.1-0.1-0.1-0.2   c-0.2-0.3-0.3-0.6-0.5-0.9c0,0,0,0,0-0.1c-0.2-0.3-0.3-0.7-0.5-1.1c-0.2-0.4-0.3-0.8-0.4-1.3c-0.3-1-0.5-2-0.7-3.1   c-0.1-0.5-0.2-1.1-0.2-1.6c-0.1-1.2-0.2-2.5-0.2-3.9c0.4-58.6,0.2-117.3,0.2-175.9v-13.7c-15.8,3.4-30.2,6.5-45.2,9.7   c11.3,33.1,22.4,65.1,33.2,97.2c1.3,3.7,2.1,8.2,1.3,11.8c-2.7,12.2-6.2,24.1-9.4,36.2c-8,30.2-16,60.4-24.3,91.7   c31.6-6.4,61.8-12.5,92.7-18.8c-12.5-6.4-23.9-13.1-36-18.2C173.6,863.9,173.2,863.7,172.8,863.5z"
   id="path6999" />
	<path
   class="st5"
   d="M254.7,425c21.5-25.5,46.5-47.8,74.3-66.3l-0.2-1.4l-1.9-13.1l-2.2-15.4L345,321c1-0.4,1.6-1.4,1.4-2.5   l-1.1-7.1l2.4-1.2c0.9-0.4,1.4-1.4,1.2-2.4l-1-6.5l53.8-21.4l45.1-18l4.5,3.4c0.2,0.2,0.5,0.3,0.8,0.4l2.9,0.8l1.7,1.3l0.7,4.5   l-0.5,2c-0.1,0.6,0,1.3,0.3,1.8s0.9,0.9,1.5,1l1.9,0.4c0.4,0.1,0.9,0,1.3-0.1l21.2-8.5c0,0,0,0,0.1,0l15.3,5   c0.5,0.2,1.1,0.1,1.6-0.1l1.5-0.7c0.5-0.3,1-0.8,1.2-1.4s0.1-1.3-0.2-1.8l-1.1-2l-0.9-5.6l3.5-1.7c0.4-0.2,0.8-0.6,1-1l1.3-2.7   l68.2,20.1l0.5,3.1l0.6,3.8c0.1,0.8,0.7,1.5,1.4,1.8l2.6,1l1.6,10.1c0.1,0.9,0.8,1.7,1.8,1.9l16.2,3.7l1.4,8.7   c17.3,4.1,34,9.6,50.2,16.2l-0.1-0.7c0.6,0.3,1.2,0.6,1.8,0.9c1,0.5,2,1,3.1,1.5c1.9,1,3.9,1.9,5.8,2.9c0,0,0.1,0,0.1,0.1   c2,1,3.9,2,5.9,3c1.7,0.9,3.4,1.8,5.1,2.6c1.9,1,3.8,2,5.6,3c1.9,1,3.7,2,5.6,3c1.8,1,3.7,2,5.5,3.1c1.8,1,3.6,2,5.4,3   c0.2,0.1,0.4,0.3,0.6,0.4c1.5,0.9,3,1.7,4.4,2.6c0.6,0.4,1.2,0.7,1.8,1.1c1.4,0.8,2.8,1.7,4.1,2.6c0.9,0.5,1.7,1.1,2.6,1.7l19.1-60   L626.7,83l-505.2,63.3l127.4,285.6c1.7-2.1,3.4-4.2,5.2-6.2C254.3,425.5,254.5,425.2,254.7,425z M300.6,269.6l170.4-65l-168,66   L300.6,269.6z M309.5,275.1L307,274l166.5-65.5c0.1,0,0.1,0,0.2,0.1l122,37.7v0.3l-1.2,0.2h-0.1c-0.1-0.1-0.3-0.1-0.4-0.1   l-118.3-36.4c-0.3-0.1-0.7-0.1-1-0.1c-0.1,0-0.3,0-0.4,0.1c-0.5-0.2-1.1-0.2-1.6,0l-162.3,64.2C310,274.6,309.7,274.8,309.5,275.1z    M477.1,204.8l1.2-4.1L603.9,239l-7,2.8L477.1,204.8z M592.4,259.6l-113.2-33.2c-0.3-0.1-0.6-0.1-1-0.1c-0.1,0-0.3,0.1-0.4,0.1   c-0.5-0.2-1-0.2-1.6,0L336,279.9l-18.6,7.1l-1.6-7.1v-0.2l158.9-62.2h0.1l116.6,35.9L592.4,259.6z M462,272.3c0-0.1,0-0.2,0-0.3   l-0.9-5.9c-0.1-0.6-0.4-1.2-0.9-1.5l-2.8-2.1c-0.2-0.2-0.5-0.3-0.8-0.4l-2.9-0.8l-5.1-3.9c-0.6-0.5-1.4-0.6-2.2-0.3l-57,22.7   l-44.6,17.8c-1,0.4-1.6,1.4-1.4,2.5l1,6.6L342,308c-0.9,0.4-1.4,1.4-1.2,2.4l1.1,6.9l-19.1,7.3l-1.5-8.4c-0.2-0.9-0.9-1.7-1.8-1.9   l-5.2-0.9l-3.7-4l8.1-3c0.6-0.3,1.2-0.8,1.4-1.5c0.2-0.7,0.1-1.4-0.3-2l-6.5-9.6l4.9-1.8c0.1,0,0.1-0.1,0.2-0.1l30.7-11.7   l126.4-48.2l1.4,8.8c0.1,0.7,0.6,1.4,1.2,1.7l1.4,0.7l-1.5,9.1c0,0.2,0,0.5,0,0.7l1.9,12.3L462,272.3z M603.5,284l-4.7,5.2   c-0.5,0.5-0.7,1.3-0.5,2l1.2,6.3l-0.1,0.1l-14.1-3.2l-1.6-9.9c-0.1-0.8-0.7-1.5-1.4-1.8l-2.6-1l-0.3-1.8l-0.8-5.3   c-0.1-0.9-0.8-1.6-1.6-1.8l-71.3-21c-1-0.3-2.1,0.2-2.6,1.1l-1.8,3.6l-4.3,2.1c-0.9,0.4-1.4,1.4-1.2,2.4l1.2,7.3l-11.3-3.7   l-1.9-12.1l1.8-11.4c0.1-1-0.3-2-1.2-2.4l-2.1-1.1l-0.9-5.9l111.5,32.7c0.1,0,0.1,0,0.2,0.1l5.5,1.5l-0.9,1.6   c-0.1,0.2-0.2,0.4-0.3,0.6l-1.9,7.6c-0.3,1.2,0.3,2.3,1.4,2.8l3.3,1.3l4.1,1.6L603.5,284z M477.6,168.8l75.7,24.4   c0.4,0.1,0.9,0.1,1.3,0l11.9-3.8c1-0.3,1.7-1.4,1.5-2.5l-0.8-4.9c-0.1-0.7-0.5-1.3-1.2-1.7l-0.3-0.2c-1.6-0.9-2.6-2.4-2.9-4.2   c-0.5-3.1,1.6-6,4.6-6.5s5.9,1.7,6.4,4.8c0.3,1.8-0.3,3.5-1.4,4.8l-1.5,1.6c-0.7,0.7-0.8,1.8-0.4,2.6c0.5,0.9,1.4,1.4,2.3,1.2h0.2   l0.1,0.6c0.1,0.8,0.7,1.5,1.5,1.8l13.4,5c0,0.1,0,0.2-0.1,0.3l-0.1,0.3l-2.5,0.4c-0.6,0.1-1.1,0.4-1.5,0.9   c-0.3,0.5-0.5,1.1-0.4,1.7l1.9,10.8L479,175.9l-1.5-0.4c-0.1,0-0.3-0.1-0.5-0.1l-5.8-1.1l-2.3-14.7l6.4,2c0,0.2,0,0.4,0,0.5   l0.8,4.8C476.1,167.8,476.7,168.5,477.6,168.8z M458.2,151.1l-0.1-0.9c0.9-0.2,1.5-0.9,1.7-1.9c0.1-1-0.4-2-1.2-2.4l-2.1-1.1   c-1.8-0.9-3.1-2.7-3.4-4.7c-0.5-3.5,1.8-6.7,5.1-7.3c3.4-0.5,6.6,1.9,7.1,5.3c0.3,2-0.3,4.1-1.7,5.6l-1.6,1.7   c-0.7,0.7-0.8,1.8-0.4,2.7s1.4,1.4,2.3,1.2v0.3c0.1,0.8,0.7,1.5,1.4,1.8l10.5,4l0,0l-11-3.4c-0.3-0.1-0.7-0.1-1-0.1   c-0.2,0-0.4,0.1-0.6,0.2l-16.4,7.8l-1.5-0.4l11.6-5.9C457.8,153.1,458.3,152.1,458.2,151.1z M314.5,192.8c3.3-0.5,6.4,1.8,7,5.2   c0.4,2.3-0.5,4.5-2.3,5.9l-2.2,1.8c-0.2,0.1-0.3,0.3-0.4,0.5c-0.2-0.1-0.4-0.2-0.5-0.3l-2.7-1.1c-2-0.8-3.5-2.7-3.8-4.9   C309,196.5,311.2,193.3,314.5,192.8z M314.3,212.3c0.7-0.4,1.2-1.2,1.2-2h0.1c0.6-0.1,1.2-0.4,1.5-0.9c0.5,0.4,1.1,0.5,1.7,0.4l0,0   l0.1,0.8c0.1,0.9,0.7,1.6,1.6,1.8l13.1,4.2c0.5,0.1,1,0.1,1.5-0.1l114.4-46.3c1-0.4,1.5-1.4,1.4-2.5l-0.4-2.7l12.3-6l3,18.9   c0.1,0.5,0.3,0.9,0.6,1.2l-157.7,58.4l-2.5-14.9c-0.1-0.8-0.6-1.4-1.3-1.7l-3.6-1.6L314.3,212.3z M306.4,243.3   c0.2-0.1,0.4-0.2,0.6-0.4c0.2,0,0.5,0,0.7-0.1l167.1-61.9c0.5-0.2,0.9-0.5,1.2-1l0.4,0.1h0.1l111,31.8c0.3,0.1,0.5,0.1,0.8,0.1   c0.2,0.1,0.4,0.3,0.6,0.4l33.7,13.3l-0.2,0.6l-3,0.5c-0.5,0.1-0.9,0.3-1.2,0.7l-5.5,5.8c-0.5,0.6-0.7,1.4-0.5,2.2l0.5,1.8   c-0.2-0.1-0.4-0.3-0.6-0.3l-134.7-41.1c-0.3-0.1-0.7-0.1-1-0.1c-0.3,0.1-0.6,0.2-0.9,0.3c-0.4-0.1-0.8,0-1.2,0.1l-180.5,71.3   c-0.3,0.1-0.6,0.3-0.9,0.6l-3.2-1.4l-0.3-1.3c-0.1-0.7-0.6-1.3-1.2-1.6l-10.1-5l-0.5-3.4L306.4,243.3z"
   id="path7001" />
	<path
   class="st5"
   d="M898.6,695V454.7c-27,5.4-54,10.7-81.1,16.1c-3.3,0.7-6.6,1.3-9.8,2c-1.1,0.2-2.3,0.5-3.4,0.7   c-38.1,7.5-76.1,15.1-114.1,22.7c-1.5,0.3-2.9,0.6-4.4,0.9c-36.9,7.3-73.8,14.7-110.7,22c-2,0.4-3.9,0.8-5.9,1.2   C511.6,531.6,454,543,396.4,554.5c-1.5,0.3-2.9,0.6-4.4,0.9c-67.6,13.4-135.2,26.9-202.8,40.3c-0.8,0.2-1.6,0.3-2.4,0.5   c-2.2,0.4-4.3,0.9-6.4,1.3v235.7c1.7,0.2,3.1,0.7,4.3,0.5c11.2-2.1,22.3-4.2,33.5-6.3c4.4-0.8,8.8-1.7,13.2-2.5   c0.8-0.2,1.6-0.3,2.4-0.5c17.2-3.3,34.4-6.5,51.6-9.8c50.8-9.5,100.7-23.5,152.1-30.3c22.3-3,44.3-8.7,66.4-13.1   c29.5-5.8,59.1-11.5,88.7-17.2c29.5-5.7,59.1-11.2,88.6-17c34.5-6.8,69-14,103.5-20.6c22-4.2,44-8.4,66.1-12.5h0.1   c4.3-0.8,8.7-1.6,13-2.4C875.6,699.3,887.1,697.2,898.6,695z"
   id="path7003" />
	<path
   class="st5"
   d="M956.9,701.6c-4.7-14.7-9.5-29.3-14.1-44c-1.8-5.7-3.6-11.3-5.4-17c-2.1-6.8-4.3-13.6-6.4-20.4   c-1.6-5.2-1.6-11.7-0.1-17c6.2-22.5,13.4-44.8,20-67.2c4.3-14.5,8.5-29,13.1-44.8c-13.6,2.7-25.5,5.5-37.5,7.3   c-8.5,1.2-11.3,4.6-11.2,13.6c0.5,59.7-0.1,119.4,0.5,179.2v0.8c0,0.9,0,1.7-0.1,2.5c0,1.3-0.2,2.5-0.3,3.8c0,0.3-0.1,0.6-0.1,0.8   c0,0.1,0,0.2,0,0.3c-0.1,0.7-0.2,1.5-0.4,2.2c0,0.1,0,0.2-0.1,0.3c-0.1,0.5-0.2,1-0.4,1.6c-0.1,0.3-0.2,0.7-0.3,1   c-0.1,0.4-0.2,0.8-0.4,1.1c-0.1,0.3-0.2,0.6-0.3,0.9c0,0,0,0,0,0.1c-0.1,0.3-0.2,0.7-0.4,1c-0.1,0.1-0.1,0.3-0.2,0.4   c0,0.2-0.1,0.3-0.2,0.5l0,0l0,0c-0.3,0.6-0.6,1.2-0.9,1.7c-0.4,0.7-0.8,1.4-1.2,2.1c-0.1,0.2-0.2,0.4-0.3,0.5   c-1.1,1.6-2.3,3-3.8,4.5c-0.4,0.4-0.9,0.9-1.3,1.3c-0.5,0.5-1.1,1-1.7,1.4c-9.4,7.7-18,16.5-26.9,24.9c0.5,0.7,0.9,1.4,1.4,2.2   c28.8-6,57.7-12,87.1-18.1c-1-3.8-1.6-6.5-2.4-9C960.8,713.7,958.9,707.6,956.9,701.6z"
   id="path7005" />
	<path
   class="st2"
   d="M477.8,252.1l1.5-9.1l-1.4-0.7c-0.6-0.3-1.1-1-1.2-1.7l-1.4-8.8L348.9,280l-30.7,11.7c-0.1,0-0.1,0.1-0.2,0.1   l-4.9,1.8l6.5,9.6c0.4,0.6,0.5,1.3,0.3,2s-0.7,1.2-1.4,1.5l-8.1,3l3.7,4l5.2,0.9c0.9,0.2,1.7,0.9,1.8,1.9l1.5,8.4l19.1-7.3   l-1.1-6.9c-0.2-1,0.3-2,1.2-2.4l2.4-1.2l-1-6.6c-0.2-1.1,0.4-2.1,1.4-2.5l44.6-17.8l57-22.7c0.7-0.3,1.5-0.2,2.2,0.3l5.1,3.9   l2.9,0.8c0.3,0.1,0.5,0.2,0.8,0.4l2.8,2.1c0.5,0.4,0.8,0.9,0.9,1.5l0.9,5.9c0,0.1,0,0.2,0,0.3l17.8-7.2l-1.9-12.3   C477.8,252.6,477.8,252.3,477.8,252.1z"
   id="path7007" />
	<path
   class="st2"
   d="M474.7,217.5l-158.9,62.2v0.2l1.6,7.1l18.6-7.1l140.2-53.5c0.5-0.2,1-0.2,1.6,0c0.1,0,0.3-0.1,0.4-0.1   c0.3,0,0.6,0,1,0.1l113.2,33.2l-1-6.2l-116.6-35.9C474.8,217.5,474.8,217.5,474.7,217.5z"
   id="path7009" />
	<path
   class="st2"
   d="M596.8,278.6c-1.1-0.4-1.7-1.6-1.4-2.8l1.9-7.6c0.1-0.2,0.1-0.4,0.3-0.6l0.9-1.6l-5.5-1.5   c-0.1,0-0.1,0-0.2-0.1l-111.5-32.7l0.9,5.9l2.1,1.1c0.9,0.5,1.4,1.4,1.2,2.4l-1.8,11.4l1.9,12.1l11.3,3.7l-1.2-7.3   c-0.1-1,0.3-2,1.2-2.4l4.3-2.1l1.8-3.6c0.5-1,1.6-1.4,2.6-1.1l71.3,21c0.8,0.3,1.5,1,1.6,1.8l0.8,5.3l0.3,1.8l2.6,1   c0.8,0.3,1.3,1,1.4,1.8l1.6,9.9l14.1,3.2l0.1-0.1l-1.2-6.3c-0.1-0.7,0.1-1.5,0.5-2l4.7-5.2l0.7-2.5l-4.1-1.6L596.8,278.6z"
   id="path7011" />
	<path
   class="st2"
   d="M355.5,377.7l10.8-3.9c-0.1-1-0.3-2-0.5-3c-0.2-1.1-0.3-2.2-0.5-3.3l-10.7,4.1c0,0.1,0.1,0.2,0.1,0.3   L355.5,377.7z"
   id="path7013" />
	<polygon
   class="st2"
   points="300.6,269.6 303,270.6 470.9,204.5  "
   id="polygon7015" />
	<path
   class="st2"
   d="M334.8,451.4l26.1-11.2c0.2-0.1,0.3-0.1,0.5-0.1l17.8-2.8c0.3,0,0.5,0,0.8,0l2.6,0.6l75.5-26.2l1.9-3.5   c0.3-0.5,0.7-0.9,1.2-1l40.4-14.1l1.2-8.4l-4.3-7.6L461,391.9l0.8,6.3c0.1,1-0.4,2-1.4,2.4l-12.4,5.2v0.1c0.2,1.1-0.5,2.2-1.5,2.5   l-61,20.8c-0.1,0-0.2,0.1-0.4,0.1l-4.7,0.8c-0.6,0.1-1.2-0.1-1.7-0.4c-0.5-0.4-0.8-0.9-0.9-1.5l-1.1-7l-3.4-0.1l-34.8,11.2   l-4.6,2.5l1.2,7.7c0.2,1.1-0.5,2.2-1.6,2.6l-8.5,2.5l5.5,3.4L334.8,451.4z"
   id="path7017" />
	<polygon
   class="st2"
   points="603.9,239 478.3,200.7 477.1,204.8 596.9,241.9  "
   id="polygon7019" />
	<path
   class="st2"
   d="M364.6,488.1L364.6,488.1l-37.2,12.7c3.1,1.8,10.3,6,13,7.7l6-1.9l0,0l13.7-4.4l0,0c4-1.3,6.4-2.1,7.8-2.5h0.1   l8.2-2.6l21.4-7.1l33.5-11.1h0.1h0.1l22.3-7.4l16.5-5.4c1.4-0.5,32.7-10.2,41.2-12.8l0.4-15.6l-130.5,44.7L364.6,488.1z"
   id="path7021" />
	<path
   class="st2"
   d="M474.3,210.3c0.1,0,0.3-0.1,0.4-0.1c0.3-0.1,0.6,0,1,0.1L594,246.7c0.1,0,0.3,0.1,0.4,0.1h0.1l1.2-0.2v-0.3   l-122-37.7c-0.1,0-0.1,0-0.2-0.1L307,274l2.5,1.1c0.2-0.3,0.5-0.5,0.9-0.6l162.3-64.2C473.2,210.1,473.7,210.1,474.3,210.3z"
   id="path7023" />
	<path
   class="st2"
   d="M506.6,416.7l-55.5,23c-0.1,0-0.1,0-0.1,0.1l-58.9,19.6c-0.1,0-0.1,0-0.1,0L339,473l-11,8.9   c-0.2,0.2-0.5,0.3-0.8,0.4l-2.4,0.6l0,0l-19.4,5.3c0.4,0.3,0.7,0.6,0.9,1.1l0.3,0.8l6.2-0.2c0.8,0,1.6,0.4,2,1.1   c0.1,0.2,0.2,0.5,0.3,0.7l0.9,4.1l0.7-0.1c1-0.1,2,0.5,2.3,1.5l193-66v-9.9L506.6,416.7z"
   id="path7025" />
	<path
   class="st2"
   d="M313.4,204.8l2.7,1.1c0.2,0.1,0.4,0.2,0.5,0.3c0.1-0.2,0.3-0.3,0.4-0.5l2.2-1.8c1.8-1.4,2.6-3.6,2.3-5.9   c-0.5-3.4-3.7-5.7-7-5.2s-5.6,3.7-5,7.1C309.9,202.1,311.3,204,313.4,204.8z"
   id="path7027" />
	<path
   class="st2"
   d="M508.8,384.2l-1.2,8.9l24.6,7c0.3,0.1,0.6,0.2,0.8,0.4l5.9,4.9l46.2,10.4l10.6-1.7c0.2,0,0.5,0,0.7,0l29.6,5.3   l5.1-0.8V416c0-0.7,0.3-1.3,0.8-1.7l0.2-0.2l-9.4-2.5c-0.9-0.2-1.5-1-1.7-1.9l-0.8-5.3l-4.5-1.3l-26-4.5l-1,0.5v4.8   c0,0.9-0.5,1.7-1.4,2.1l-3.5,1.5c-0.4,0.2-0.9,0.3-1.4,0.1l-38.4-9.2c-0.2,0-0.4-0.1-0.6-0.2l-14.8-8.3c-0.7-0.4-1.1-1.1-1.2-1.9   l-0.1-2.7l-21.3-7l2.4,4.3C508.8,383.2,508.9,383.7,508.8,384.2z"
   id="path7029" />
	<path
   class="st2"
   d="M475.2,161.6l-6.4-2l2.3,14.7l5.8,1.1c0.1,0,0.3,0,0.5,0.1l1.5,0.4l106.3,30.5l-1.9-10.8   c-0.1-0.6,0-1.2,0.4-1.7s0.9-0.8,1.5-0.9l2.5-0.4l0.1-0.3c0-0.1,0-0.2,0.1-0.3l-13.4-5c-0.8-0.3-1.3-1-1.5-1.8l-0.1-0.6h-0.2   c-0.9,0.1-1.9-0.3-2.3-1.2c-0.4-0.9-0.3-1.9,0.4-2.6l1.5-1.6c1.2-1.3,1.7-3.1,1.4-4.8c-0.5-3.1-3.4-5.3-6.4-4.8s-5.1,3.4-4.6,6.5   c0.3,1.8,1.3,3.3,2.9,4.2l0.3,0.2c0.6,0.3,1.1,1,1.2,1.7l0.8,4.9c0.2,1.1-0.5,2.2-1.5,2.5l-11.9,3.8c-0.4,0.1-0.9,0.1-1.3,0   L477.5,169c-0.8-0.3-1.4-1-1.6-1.8l-0.8-4.8C475.2,161.9,475.2,161.7,475.2,161.6z"
   id="path7031" />
	<path
   class="st2"
   d="M457,153.6l-11.6,5.9l1.5,0.4l16.4-7.8c0.2-0.1,0.4-0.1,0.6-0.2c0.3,0,0.6,0,1,0.1l11,3.4l0,0l-10.5-4   c-0.8-0.3-1.3-1-1.4-1.8v-0.3c-0.9,0.1-1.9-0.4-2.3-1.2c-0.4-0.9-0.3-2,0.4-2.7l1.6-1.7c1.4-1.4,2.1-3.5,1.7-5.6   c-0.5-3.5-3.8-5.9-7.1-5.3c-3.4,0.5-5.7,3.8-5.1,7.3c0.3,2,1.6,3.8,3.4,4.7l2.1,1.1c0.9,0.4,1.4,1.4,1.2,2.4   c-0.1,0.9-0.8,1.7-1.7,1.9l0.1,0.9C458.3,152.1,457.8,153.1,457,153.6z"
   id="path7033" />
	<path
   class="st2"
   d="M306.2,222.5l2.5,14.9L466.4,179c-0.3-0.3-0.5-0.8-0.6-1.2l-3-18.9l-12.3,6l0.4,2.7c0.1,1.1-0.4,2.1-1.4,2.5   L335,216.5c-0.5,0.2-1,0.2-1.5,0.1l-13.1-4.2c-0.8-0.3-1.4-1-1.6-1.8l-0.1-0.8l0,0c-0.6,0.1-1.2-0.1-1.7-0.4   c-0.3,0.5-0.9,0.8-1.5,0.9h-0.1c0,0.8-0.5,1.6-1.2,2l-12.9,6.9l3.6,1.6C305.6,221.1,306.1,221.8,306.2,222.5z"
   id="path7035" />
	<path
   class="st2"
   d="M656.3,448.7l-28.4-7.2l-110.3-23c0.2,0.3,0.3,0.7,0.3,1.1l0.1,11.3l133,26.2l2.3-3.5c0.3-0.4,0.6-0.6,1-0.8   l4.1-1.8l0.6-1.9c0-0.1,0.1-0.2,0.1-0.3l-1.7,0.1C657,449,656.6,448.9,656.3,448.7z"
   id="path7037" />
	<path
   class="st2"
   d="M624.7,424l-28.7-5.1l-10.7,1.7c-0.3,0-0.5,0-0.8,0l-47.1-10.7c-0.4-0.1-0.7-0.2-0.9-0.5l-5.9-5l-26-7.4   c0,0-0.1,0-0.2-0.1l-40.9,14.3l-1.9,3.5c-0.3,0.5-0.7,0.9-1.2,1l-76.9,26.7c-0.4,0.1-0.8,0.1-1.2,0.1l-2.8-0.6l-17.1,2.7   l-25.5,10.9l1.4,8.6l0.6,4.1l5.8-1.5l46-11.8l58.7-19.6l56.7-23.5c0.8-0.3,1.7-0.2,2.3,0.4l0.2,0.2c0.2-0.1,0.5-0.2,0.8-0.3   c0.3,0,0.5,0,0.8,0l116.4,24.3L624.7,424z"
   id="path7039" />
	<path
   class="st2"
   d="M288.2,263.6c0.6,0.3,1.1,0.9,1.2,1.6l0.3,1.3l3.2,1.4c0.2-0.3,0.5-0.5,0.9-0.6L474.3,196   c0.4-0.1,0.8-0.2,1.2-0.1c0.3-0.2,0.5-0.3,0.9-0.3c0.3,0,0.6,0,1,0.1l134.7,41.1c0.2,0.1,0.4,0.2,0.6,0.3l-0.5-1.8   c-0.2-0.8,0-1.6,0.5-2.2l5.5-5.8c0.3-0.4,0.8-0.6,1.2-0.7l3-0.5l0.2-0.6l-33.7-13.3c-0.2-0.1-0.4-0.2-0.6-0.4c-0.3,0-0.5,0-0.8-0.1   l-111-31.8h-0.1l-0.4-0.1c-0.3,0.5-0.7,0.8-1.2,1l-167.1,61.9c-0.2,0.1-0.5,0.1-0.7,0.1c-0.2,0.2-0.4,0.3-0.6,0.4l-28.8,11.9   l0.5,3.4L288.2,263.6z"
   id="path7041" />
	<polygon
   class="st2"
   points="507.7,326.9 508.1,332 516.8,333 516.4,328.1  "
   id="polygon7043" />
	<path
   class="st2"
   d="M635.6,480.7l-10.8-2c-0.9-0.2-1.7-1-1.8-1.9l-5.8-1.1L551,463.5l-33.2-6l1.6,10.2l3,18.7l4,25.1l36.8-7.4   l3.4-0.7l5.9-1.2l2.1-0.4l62.4-12.5L635.6,480.7z"
   id="path7045" />
	<polygon
   class="st2"
   points="590.2,351.2 589.8,347.4 580.8,345.9 581.4,350.1  "
   id="polygon7047" />
	<path
   class="st2"
   d="M457.5,339.6l10.1-3.7l-0.9-5.9l-10,3.8c0,0.1,0,0.1,0,0.2L457.5,339.6z"
   id="path7049" />
	<path
   class="st2"
   d="M517.4,492.9l-4-25l-1.6-10c-9.7,3-39.9,12.4-40.2,12.5l-27,8.9l-14.8,4.9l-36.7,12.1l-15.4,5.1l-8.5,2.7   c-1.8,0.5-5.1,1.6-7.8,2.5l0,0l-19.2,6.1l5.5,34.5l41.8-8.3l3-0.6l0,0l9.6-1.9l0,0L459,525l0,0l61.6-12.3L517.4,492.9z"
   id="path7051" />
	<polygon
   class="st2"
   points="517.5,452.8 551.7,459 617.9,471.2 636.6,474.6 648.5,464.1 648.8,462.9 517.8,437  "
   id="polygon7053" />
	<path
   class="st2"
   d="M969.7,699.1c-7.1-21.8-13.8-43.7-20.8-65.5c-3.8-11.7-8.2-23.2-3.4-35.8c2.9-7.6,5.3-15.5,7.7-23.3   c9-29.7,17.8-59.4,26.7-89.2c2.4-8.1-0.8-11.3-8.9-9.5c-7.6,1.8-15.2,3.7-22.9,5.2c-11.9,2.4-23.8,4.5-36.5,6.9   c0-13.5,0.1-25.7-0.1-37.9c-0.1-6.5-1.1-10.9-10.4-8.8c-27.6,6.3-55.5,11.5-83.3,16.9c-3.9,0.8-7,0.4-9.9-2.6   c-0.1-0.1-0.1-0.1-0.2-0.2c-0.6-0.7-1.2-1.5-1.9-2.4c-17.9-26.8-40.1-50.1-64.4-71.1c-9.7-8.3-19.9-15.8-30.5-22.7   c-0.9-0.6-1.8-1.2-2.7-1.7l-3.9,12.3c36.1,24,66.3,54.5,89.1,88.4c0,0.1,0.1,0.1,0.1,0.2c-7.6,1.5-15.2,2.9-22.7,4.3   c-14.4,2.7-28.7,5.5-43,8.3c-11.2,2.2-22.8,3.7-33.6,7c-1.8,0.5-3.5,1.1-5.3,1.8c-0.4,0.1-0.8,0.3-1.2,0.4   c-1.5,0.5-2.9,0.9-4.3,1.2c-2.9,0.6-5.7,0.7-8.4,0.5l-54.7,10.9c-0.6,0.2-1.2,0.4-1.8,0.6c-0.4,0.1-0.7,0.2-1.1,0.3   c-0.5,0.1-0.9,0.2-1.4,0.3c-0.5,0.1-1.1,0.2-1.6,0.3c-0.7,0.1-1.4,0.2-2,0.3c-0.6,0.1-1.2,0.2-1.9,0.2c-0.6,0.1-1.2,0.2-1.9,0.2   l-34.1,6.8l-11.4,2.3l-26.5,5.3c-4.6,1.7-9.6,2.8-13.7,4.5c-0.6-0.5-1.1-1-1.6-1.4l-47.7,9.5c-4.8,1.3-9.7,2.5-14.8,3.9   c0-0.3,0-0.6,0.1-0.9L402,536.4c-1.3,0.9-3,1.4-4.4,1.5c-1.2,0.1-2.5,0.2-3.7,0.3c-0.5,0-0.9,0.1-1.4,0.1l-44.7,8.9l-43.5,8.7   c-0.1,0.2-0.1,0.4-0.2,0.6c-7.7,1.4-15.7,2.8-23.9,4.2L202,576.3c-2,0.8-4.3,1.3-6.9,1.4c-0.5,0-1,0-1.5,0   c3.4-16.8,8.2-33.2,14.2-49.1c0.1-0.2,0.1-0.3,0.2-0.5c11.4-30.1,27.3-58.1,46.7-83.4l-5.7-12.8c-9.5,11.7-18.3,24.1-26,37.3   l-0.3,0.6c-11,18.9-20.7,38.4-28.3,58.6c-0.1,0.1-0.1,0.2-0.1,0.4c-5.3,13.9-9.6,28.2-12.9,42.9c-0.5,2.2-1,4.4-1.4,6.6   c-0.1,0.3-0.1,0.6-0.3,0.9c-0.2,0.6-0.5,1.2-0.9,1.8c-1.4,2.4-3.8,4.8-5.7,4.9c-7.9,0.5-7.7,5.3-7.6,10.8c0.1,14.3,0,28.6,0,43.2   c-17.8,3.9-35.1,7.6-52.4,11.3c-13.5,2.9-15.4,6.1-10.8,19.9c9.9,30.1,20.2,60,29.8,90.2c1.7,5.4,2.2,12.1,0.9,17.6   c-10.6,42.5-22,84.9-32.9,127.4c-2.1,8.1,2.4,12.3,10.3,10.7c39.8-8.2,79.6-16.4,119.4-24.6c7.4-1.5,13-4.1,11.4-13.6   c-0.8-4.5-0.2-9.2-0.2-17c0-0.4,0-0.9,0-1.4c4.7,3.4,7.5,4.7,9.3,6.8c21.6,25.9,45.9,49,74.2,67.3c18.9,12.2,38.4,26,58.7,34.3   c9.8,4,17.5,6.7,23.9,9.1c33.9,12.5,57.2,16,89.2,17.2c48.2,1.8,93.6-3.2,141.4-19.2c8.4-2.8,16.5-6.7,24.6-10.1   c11.6-4.9,19.8-10.2,29.9-15.9c7.5-4.2,15.5-9.3,22.5-14.5c25.7-18.8,49.8-39.1,70.4-63.8c24.1-29,43.8-60.4,57.2-95.6   c1.5-4,3.6-6.7,6.2-8.5c1.9-1.3,4.2-2.2,6.8-2.7c38.5-7.9,77-15.5,115.5-23.3c7.8-1.6,11.9-4.3,8.4-14.2   C975.8,717.8,972.7,708.5,969.7,699.1z M117.2,901.1c8.3-31.3,16.3-61.5,24.3-91.7c3.2-12,6.7-24,9.4-36.2c0.8-3.7,0-8.1-1.3-11.8   c-10.8-32.1-21.8-64.1-33.2-97.2c15-3.2,29.3-6.3,45.2-9.7v13.7c0,58.6,0.2,117.3-0.2,175.9c0,1.4,0,2.7,0.2,3.9   c0.1,0.5,0.1,1.1,0.2,1.6c0.2,1.1,0.4,2.1,0.7,3.1c0.1,0.4,0.3,0.9,0.4,1.3c0.1,0.4,0.3,0.7,0.5,1.1v0.1c0.1,0.3,0.3,0.6,0.5,0.9   c0,0.1,0.1,0.1,0.1,0.2c0.2,0.3,0.4,0.7,0.7,1c0.1,0.2,0.3,0.4,0.5,0.6c0.1,0.2,0.3,0.4,0.5,0.6c0.2,0.2,0.4,0.4,0.6,0.6   c1.1,1.2,2.5,2.2,4.1,3.2c0.2,0.1,0.4,0.2,0.6,0.4c0.3,0.2,0.6,0.3,0.9,0.5c0.3,0.2,0.6,0.3,1,0.5s0.8,0.4,1.1,0.5   c12.1,5.1,23.5,11.8,36,18.2C179,888.5,148.9,894.7,117.2,901.1z M227.6,870.3c-12.8-6.3-24.7-12.3-36.6-18.2   c0.1-0.8,0.3-1.6,0.4-2.4c11.8-2.2,23.6-4.4,36.2-6.8L227.6,870.3L227.6,870.3z M519.6,982.9c-27.1,0-53.4-3.2-78.6-9.2   c-0.9-0.1-1.9-0.2-2.9-0.4c0-0.1,0-0.2,0-0.3c-80.6-20-149.7-69.1-195.6-135.5l47.9-9.1l24.1-4.6l88.2-16.8l9.6-1.8l56.9-10.8   l14.8-2.8l23.1-4.4h0.2c8.5-1.7,17-3.4,25.6-5c12.3-2.3,24.5-4.6,36.8-6.9l0.9-0.2l48.4-9.2l11.6-2.2l54.7-10.4l19.2-3.7l76.6-14.6   l22.6-4.3l14.4-2.8l29.2-5.5C812.9,871.6,679.2,982.9,519.6,982.9z M850.9,703.9c-22.1,4.1-44.1,8.2-66.1,12.5   c-34.5,6.7-69,13.9-103.5,20.6c-29.5,5.8-59.1,11.3-88.6,17c-29.6,5.7-59.1,11.4-88.7,17.2c-22.2,4.3-44.1,10.1-66.4,13.1   c-51.4,6.8-101.3,20.8-152.1,30.3c-17.2,3.2-34.4,6.5-51.6,9.8c-0.8,0.1-1.6,0.3-2.4,0.5c-4.4,0.8-8.8,1.7-13.2,2.5   c-11.2,2.1-22.4,4.2-33.5,6.3c-1.3,0.2-2.6-0.3-4.3-0.5V597.4c2.2-0.4,4.3-0.9,6.4-1.3c0.8-0.2,1.6-0.3,2.4-0.5   c67.6-13.4,135.1-26.9,202.8-40.3c1.5-0.3,2.9-0.6,4.4-0.9c57.6-11.5,115.2-22.9,172.9-34.4c2-0.4,3.9-0.8,5.9-1.2   c36.9-7.3,73.8-14.7,110.7-22c1.5-0.3,2.9-0.6,4.4-0.9c38-7.5,76-15.1,114.1-22.7c1.1-0.2,2.3-0.5,3.4-0.7c3.3-0.6,6.6-1.3,9.8-2   c27-5.4,54-10.8,81.1-16.1V695c-11.5,2.2-23,4.3-34.5,6.4c-4.3,0.8-8.7,1.6-13,2.4C851,703.9,851,703.9,850.9,703.9z M856.6,739.7   c-1,1.1-2,2.2-3,3.4v-18.4c2.1-0.4,4.3-0.8,6.7-1.2c3.8-0.7,7.9-1.4,12.5-2.2C867,727.9,862.2,733.4,856.6,739.7z M878.1,746.9   c-0.5-0.7-1-1.4-1.4-2.2c8.9-8.3,17.4-17.2,26.9-24.9c0.6-0.5,1.1-0.9,1.7-1.4c0.5-0.4,0.9-0.8,1.3-1.3c1.4-1.5,2.7-2.9,3.8-4.5   c0.1-0.1,0.2-0.3,0.3-0.5c0.5-0.7,0.9-1.4,1.2-2.1c0.3-0.6,0.6-1.1,0.9-1.7l0,0c0,0,0.1,0,0,0c0.1-0.1,0.2-0.3,0.2-0.5   c0.1-0.1,0.1-0.3,0.2-0.4c0.1-0.3,0.3-0.6,0.4-1c0,0,0,0,0-0.1c0.1-0.3,0.2-0.6,0.3-0.9c0.1-0.4,0.3-0.8,0.4-1.1   c0.1-0.3,0.2-0.7,0.3-1c0.1-0.5,0.3-1,0.4-1.6c0-0.1,0.1-0.2,0.1-0.3c0.2-0.7,0.3-1.4,0.4-2.2c0-0.1,0-0.2,0-0.3   c0-0.3,0.1-0.6,0.1-0.8c0.1-1.2,0.3-2.5,0.3-3.8c0-0.8,0.1-1.7,0.1-2.5V691c-0.7-59.7-0.1-119.4-0.5-179.2   c-0.1-8.9,2.7-12.3,11.2-13.6c12-1.7,23.9-4.6,37.5-7.3c-4.6,15.8-8.8,30.3-13.1,44.8c-6.7,22.4-13.8,44.7-20,67.2   c-1.5,5.3-1.5,11.8,0.1,17c2.1,6.8,4.2,13.6,6.4,20.4c1.8,5.7,3.6,11.4,5.4,17c4.7,14.7,9.4,29.4,14.1,44c2,6.1,3.9,12.1,5.9,18.2   c0.8,2.6,1.4,5.2,2.4,9C935.8,734.9,906.9,740.9,878.1,746.9z"
   id="path7055" />
	<path
   class="st2"
   d="M701.4,353.3c-0.6-0.4-1.2-0.7-1.8-1.1c-1.5-0.9-3-1.8-4.4-2.6c-0.2-0.1-0.4-0.2-0.6-0.4c-1.8-1-3.6-2-5.4-3   c-1.8-1-3.7-2.1-5.5-3.1c-1.9-1-3.7-2-5.6-3c-1.9-1-3.8-2-5.6-3c-1.7-0.9-3.4-1.8-5.1-2.6c-2-1-3.9-2-5.9-3c0,0-0.1,0-0.1-0.1   c-1.9-1-3.9-1.9-5.8-2.9c-1-0.5-2-1-3.1-1.5c-0.6-0.3-1.2-0.6-1.8-0.9l0.1,0.7c-16.1-6.6-32.9-12-50.2-16.2l2.2,13.7   c17.4,4.5,34.2,10.3,50.3,17.4v0.2c1.6,0.7,3.3,1.4,4.9,2.2c16.3,7.4,31.7,16,46.2,25.7l3.9-12.3c-0.9-0.6-1.7-1.1-2.6-1.7   C704.1,355,702.8,354.2,701.4,353.3z"
   id="path7057" />
	<path
   class="st2"
   d="M331,372.6l-2-13.9c-27.8,18.4-52.9,40.8-74.3,66.3c-0.2,0.2-0.4,0.5-0.6,0.8c-1.8,2-3.5,4.1-5.2,6.2l5.7,12.8   C276.1,416.9,301.9,392.5,331,372.6z"
   id="path7059" />
	<polygon
   class="st2"
   points="304.2,555.9 347.7,547.3 347.7,547.3  "
   id="polygon7061" />
	<path
   class="st2"
   d="M446,338c-0.7-4.3-1.6-8.2-2.8-11.8c-0.4-1.1-0.7-2.1-1.1-3.1c-1.2-3.1-2.7-5.8-4.4-8.2   c-0.8-1.1-1.6-2.2-2.5-3.2c-0.6-0.7-1.2-1.3-1.8-1.8c-6.2-5.7-14.4-7.9-24.2-6.3c-9.5,1.5-18.7,9-25.3,20.5v0.1   c-1.2,2.1-2.2,4.2-3.1,6.4c-1.1,2.6-2.1,5.4-2.8,8.1c-0.7,2.6-1.2,5.3-1.6,7.9c-0.7,5.1-0.6,10.1,0.1,14.9   c3.9,24.6,18.3,37.4,38.4,34.2c9.3-1.5,18.3-8.8,24.5-20.1C445.5,364.1,448,350.4,446,338z M420.1,371.2c-1.4-1.3-2.8-2.6-4.2-3.9   c-2.8-2.6-5.6-5.2-8.3-7.9l-0.2-0.2v-0.3c-1.1-6.7-2.2-13.4-3.2-20.2c-0.2-1.3-0.4-2.6-0.6-4c-0.1-0.9-0.2-1.7-0.3-2.6   c-0.1-1.2-0.3-2.4-0.5-3.5c-0.3-2.3-0.6-4.6-0.8-6.8c-0.1-0.5-0.1-1.1-0.2-1.6c-0.1-0.6-0.1-1.2-0.2-1.7c0.1,0.6,0.3,1.1,0.4,1.7   c0.1,0.5,0.2,1,0.3,1.5c0.5,2.3,0.9,4.5,1.4,6.8c0.2,1.2,0.4,2.3,0.6,3.5c0.1,0.8,0.3,1.6,0.4,2.4c0.3,1.4,0.5,2.8,0.8,4.2   c1.2,6.6,2.2,13.3,3.2,19.9c2.6,2.7,5.2,5.4,7.8,8.1c1.3,1.4,2.7,2.8,3.9,4.2c1.3,1.4,2.6,2.8,3.9,4.2   C422.9,373.7,421.5,372.4,420.1,371.2z"
   id="path7063" />
	<path
   class="st2"
   d="M607.1,352l-2.5-15.7l-1.9-11.8l-2.2-13.7l-1.4-8.7l-16.2-3.7c-0.9-0.2-1.6-1-1.8-1.9l-1.6-10.1l-2.6-1   c-0.7-0.3-1.3-1-1.4-1.8l-0.6-3.8l-0.5-3.1l-68.2-20.1l-1.3,2.7c-0.2,0.4-0.6,0.8-1,1l-3.5,1.7l0.9,5.6l1.1,2   c0.3,0.6,0.4,1.2,0.2,1.8c-0.2,0.6-0.6,1.1-1.2,1.4l-1.5,0.7c-0.5,0.2-1.1,0.3-1.6,0.1l-15.3-5c0,0,0,0-0.1,0l-21.2,8.5   c-0.4,0.2-0.8,0.2-1.3,0.1l-1.9-0.4c-0.6-0.1-1.1-0.5-1.5-1c-0.3-0.5-0.4-1.2-0.3-1.8l0.5-2l-0.7-4.5l-1.7-1.3l-2.9-0.8   c-0.3-0.1-0.6-0.2-0.8-0.4l-4.5-3.4l-45.1,18L347.7,301l1,6.5c0.2,1-0.3,2-1.2,2.4l-2.4,1.2l1.1,7.1c0.2,1.1-0.4,2.1-1.4,2.5   l-20.3,7.8l2.2,15.4l1.9,13.1l0.2,1.4l2,13.9l7.7,54.7l33.6-10.8c0.2-0.1,0.5-0.1,0.7-0.1l5.7,0.1c1.1,0,2,0.9,2.2,1.9l1,6.6   l2.3-0.4l59-20.1c-0.2-1,0.4-2.1,1.3-2.5l12.4-5.2l-0.8-6.3c-0.1-1,0.4-2.1,1.4-2.4l40.9-16.2c0.7-0.3,1.5-0.2,2.1,0.3   c0.4-0.1,0.8-0.1,1.3,0l28.3,9.3c0.9,0.3,1.5,1.2,1.6,2.1l0.1,3.1l13.4,7.5l37.4,8.9l1.4-0.6v-4.7c0-0.8,0.4-1.6,1.2-2l2.8-1.6   c0.2-0.1,0.5-0.2,0.7-0.2s0.5,0,0.7,0l24.9,4.4L607.1,352z M369.5,377.5l-15.1,5.5c-0.1,0-0.3,0.1-0.4,0.1c-0.5,0.1-1,0-1.5-0.3   c-0.6-0.4-1-1-1.1-1.7l-0.9-6.3h-0.1c-1.2,0.2-2.4-0.7-2.6-1.9l-0.3-1.6c-0.2-1.1,0.4-2.1,1.4-2.5l17.2-6.6   c0.6-0.3,1.3-0.2,1.9,0.2c0.6,0.4,1,1,1.1,1.6l0.3,2.2c0.2,1.3,0.4,2.7,0.6,4c0.3,1.6,0.5,3.2,0.7,4.7v0.2   C371.1,376.1,370.5,377.1,369.5,377.5z M443.1,377.9c-6.9,12.5-17,20.6-27.6,22.3c-11.2,1.8-21.2-0.8-28.8-7.6   c-7.5-6.6-12.6-17.2-14.7-30.5c-0.7-4.3-0.8-8.7-0.5-13.2c0.2-3,0.7-5.9,1.3-8.9c0.5-2.3,1.2-4.7,2-7c0.9-2.5,1.9-5.1,3.1-7.5   c0.6-1.3,1.3-2.7,2.1-4c7.3-12.7,17.6-20.9,28.5-22.7c11.2-1.8,20.6,0.7,27.9,7.4c1.3,1.2,2.6,2.6,3.7,4.1c0.9,1.2,1.8,2.5,2.6,3.8   c1.4,2.3,2.7,4.9,3.8,7.8c0.5,1.2,0.9,2.5,1.3,3.8c1.1,3.5,2,7.3,2.6,11.4C452.5,350.7,449.9,365.5,443.1,377.9z M470.9,339.6   l-14.4,5.2c-0.1,0-0.3,0.1-0.4,0.1c-0.5,0.1-1,0-1.5-0.3c-0.6-0.4-1-1-1-1.7l-0.9-6.1l0,0c-1.2,0.2-2.4-0.7-2.6-1.9l-0.3-1.6   c-0.2-1.1,0.4-2.1,1.4-2.5l16-6.1l0.4-0.2c0.6-0.2,1.2-0.2,1.8,0.1c0.1,0,0.1,0,0.2,0.1c0.6,0.3,1,0.9,1.1,1.6l1.7,10.6   C472.5,338.2,471.9,339.3,470.9,339.6z M559.8,385.8c-6.7,1-15.7-4.1-24.3-13.9c-8.7-9.9-15.1-22.3-17.5-34.1l-12.2-1.4   c-1-0.1-1.9-1-2-2.1l-0.7-8.3l-0.1-1.4c-0.1-0.7,0.2-1.4,0.7-1.8c0.5-0.5,1.2-0.7,1.8-0.6l10.6,1.4c-0.2-2.7-0.3-5.3-0.3-7.6   c0-0.6,0-1.2,0-1.8c0.2-5.2,0.8-9.4,1.8-12.8c3.1-10.4,9.3-13.3,13.7-14c8.9-1.4,18.7,4.3,27.5,16.1l0.1,0.1   c3.1,4.2,6,8.9,8.4,13.9c0.9,1.8,1.7,3.7,2.5,5.6c2.3,5.6,4,11.4,4.9,16.9c0.1,0.3,0.1,0.6,0.2,1   C580.7,376.9,568,384.5,559.8,385.8z M596,347.4c-0.2,0.8-0.8,1.4-1.5,1.6l0.5,4.7c0.1,0.7-0.2,1.4-0.6,1.9   c-0.3,0.3-0.8,0.5-1.2,0.6c-0.2,0-0.4,0-0.6,0l-13.2-1.7c-1-0.1-1.8-0.9-1.9-1.9l-1.4-9.1c-0.1-0.7,0.1-1.5,0.6-2   c0.3-0.3,0.7-0.5,1.2-0.6c0.3-0.1,0.5-0.1,0.8,0l15.6,2.6c1,0.2,1.8,1,1.9,2.1l0.1,1.1C596,346.9,596,347.2,596,347.4z"
   id="path7065" />
	<path
   class="st2"
   d="M570.6,341.6c-0.2-1-0.4-2.1-0.6-3.1l0,0c-1.2-5.6-3.1-11.3-5.5-16.8c-0.8-1.7-1.6-3.4-2.4-5   c-2.7-5.1-5.9-9.9-9.3-13.8c-6.5-7.5-13.8-12.1-20.6-11c-5,0.8-8,4.6-9.7,9.5c-1.3,3.8-1.9,8.3-2,12.7c0,0.9,0,1.7,0,2.6   c0,2.1,0.1,4.1,0.2,5.9l1.5,0.2c1.1,0.1,1.9,1,2,2.1l0.3,3.5v0.5c0.1,1.2-0.7,2.2-1.8,2.4l0.5,5.8c0.1,0.6-0.1,1.2-0.4,1.6   c2.5,10.5,8.3,21.4,16,30.1c7.3,8.3,15.3,13.2,20.3,12.4C574.2,378.8,572.8,355.4,570.6,341.6z M554.9,362.5   c-1.3-1.5-2.6-3.1-3.8-4.6c-2.5-3.1-5.1-6.2-7.5-9.3l-0.1-0.1v-0.2c-1-5.7-1.9-11.4-2.7-17.1c-0.1-0.8-0.2-1.6-0.3-2.3   c-0.5-3.2-0.9-6.5-1.3-9.8c0-0.1,0-0.2,0-0.3c-0.2-1.4-0.3-2.8-0.5-4.2c-0.2-1.7-0.4-3.5-0.6-5.2c0.4,1.8,0.8,3.5,1.1,5.3   c0.3,1.4,0.6,2.8,0.8,4.3v0.1c0.6,3.2,1.2,6.5,1.8,9.7c0.2,1,0.3,1.9,0.5,2.9c0.9,5.4,1.8,10.9,2.6,16.4c2.4,3.1,4.7,6.3,7,9.4   c1.2,1.6,2.4,3.2,3.5,4.8c1.2,1.6,2.3,3.2,3.4,4.9C557.5,365.6,556.2,364,554.9,362.5z"
   id="path7067" />
	<polygon
   class="st2"
   points="566.6,503.5 563.2,504.2 574.6,502 572.5,502.4  "
   id="polygon7069" />
	<path
   class="st2"
   d="M389.4,538.9l-41.8,8.3l0,0l44.7-8.9l0,0L389.4,538.9z"
   id="path7071" />
	<polygon
   class="st2"
   points="402,536.4 402,536.4 458.9,525.1 458.9,525  "
   id="polygon7073" />
</g>
</svg>